<mxfile modified="2024-06-22T07:35:53.995Z" host="app.diagrams.net" agent="Mozilla/5.0 (Windows NT 10.0; Win64; x64) AppleWebKit/537.36 (KHTML, like Gecko) Chrome/126.0.0.0 Safari/537.36" etag="4pRdLo-LxE3WblOn9A_q" version="24.6.1" type="device">
  <diagram id="Ht1M8jgEwFfnCIfOTk4-" name="Page-1">
    <mxGraphModel dx="1969" dy="908" grid="1" gridSize="10" guides="1" tooltips="1" connect="1" arrows="1" fold="1" page="1" pageScale="1" pageWidth="1169" pageHeight="827" background="#ffffff" math="0" shadow="0">
      <root>
        <mxCell id="0" />
        <mxCell id="1" parent="0" />
        <mxCell id="-QjtrjUzRDEMRZ5MF8oH-47" value="FX Regulations Q&amp;amp;A RAG Application" style="text;html=1;resizable=0;points=[];autosize=1;align=left;verticalAlign=top;spacingTop=-4;fontSize=30;fontStyle=1" parent="1" vertex="1">
          <mxGeometry x="67.5" y="29.480000000000004" width="530" height="40" as="geometry" />
        </mxCell>
        <mxCell id="SCVMTBWpLvtzJIhz15lM-1" value="" style="line;strokeWidth=2;html=1;fontSize=14;" parent="1" vertex="1">
          <mxGeometry x="67.5" y="69.48" width="1059" height="10" as="geometry" />
        </mxCell>
        <mxCell id="EbK2CHf3StFBIsQLwMvG-86" value="" style="shape=image;verticalLabelPosition=bottom;labelBackgroundColor=default;verticalAlign=top;aspect=fixed;imageAspect=0;image=https://streamlit.io/images/brand/streamlit-logo-primary-colormark-darktext.svg;" vertex="1" parent="1">
          <mxGeometry x="601" y="20" width="211.5" height="58.97" as="geometry" />
        </mxCell>
        <mxCell id="EbK2CHf3StFBIsQLwMvG-9" value="" style="shape=actor;whiteSpace=wrap;html=1;" vertex="1" parent="1">
          <mxGeometry x="48" y="329.1" width="39" height="60" as="geometry" />
        </mxCell>
        <mxCell id="EbK2CHf3StFBIsQLwMvG-11" value="" style="sketch=0;aspect=fixed;pointerEvents=1;shadow=0;dashed=0;html=1;strokeColor=none;labelPosition=center;verticalLabelPosition=bottom;verticalAlign=top;align=center;fillColor=#00188D;shape=mxgraph.azure.computer" vertex="1" parent="1">
          <mxGeometry x="265.06" y="332.48" width="68.44" height="62.5" as="geometry" />
        </mxCell>
        <mxCell id="EbK2CHf3StFBIsQLwMvG-19" value="" style="endArrow=classic;html=1;rounded=0;entryX=0.017;entryY=0.118;entryDx=0;entryDy=0;entryPerimeter=0;exitX=1.018;exitY=0.081;exitDx=0;exitDy=0;exitPerimeter=0;" edge="1" parent="1" source="EbK2CHf3StFBIsQLwMvG-11" target="EbK2CHf3StFBIsQLwMvG-22">
          <mxGeometry width="50" height="50" relative="1" as="geometry">
            <mxPoint x="314.5" y="347.48" as="sourcePoint" />
            <mxPoint x="417.11" y="349.98" as="targetPoint" />
          </mxGeometry>
        </mxCell>
        <mxCell id="EbK2CHf3StFBIsQLwMvG-22" value="&lt;font style=&quot;font-size: 14px;&quot;&gt;&lt;b&gt;Retrieval System&amp;nbsp;&lt;/b&gt;&lt;/font&gt;" style="rounded=0;whiteSpace=wrap;html=1;" vertex="1" parent="1">
          <mxGeometry x="466" y="329.98" width="127.5" height="60" as="geometry" />
        </mxCell>
        <mxCell id="EbK2CHf3StFBIsQLwMvG-23" value="" style="endArrow=classic;html=1;rounded=0;exitX=0;exitY=0.75;exitDx=0;exitDy=0;entryX=0.989;entryY=0.676;entryDx=0;entryDy=0;entryPerimeter=0;" edge="1" parent="1" source="EbK2CHf3StFBIsQLwMvG-22" target="EbK2CHf3StFBIsQLwMvG-11">
          <mxGeometry width="50" height="50" relative="1" as="geometry">
            <mxPoint x="455.70000000000005" y="375.48" as="sourcePoint" />
            <mxPoint x="334.5" y="375.48" as="targetPoint" />
          </mxGeometry>
        </mxCell>
        <mxCell id="EbK2CHf3StFBIsQLwMvG-25" value="" style="endArrow=classic;html=1;rounded=0;entryX=0.09;entryY=0.021;entryDx=0;entryDy=0;entryPerimeter=0;" edge="1" parent="1" target="EbK2CHf3StFBIsQLwMvG-53">
          <mxGeometry width="50" height="50" relative="1" as="geometry">
            <mxPoint x="515" y="390.18" as="sourcePoint" />
            <mxPoint x="514" y="455.98" as="targetPoint" />
            <Array as="points">
              <mxPoint x="515" y="429.98" />
            </Array>
          </mxGeometry>
        </mxCell>
        <mxCell id="EbK2CHf3StFBIsQLwMvG-32" value="" style="shape=image;verticalLabelPosition=bottom;labelBackgroundColor=default;verticalAlign=top;aspect=fixed;imageAspect=0;image=data:image/png,iVBORw0KGgoAAAANSUhEUgAAAq8AAAE7CAYAAADzfmhVAAAAAXNSR0IArs4c6QAAAARnQU1BAACxjwv8YQUAAAAJcEhZcwAADsMAAA7DAcdvqGQAAPqcSURBVHhe7P1nkCRJmiWIPXdzFjwiOakkVVmcV1dXVzVnMz3TPdPbM7Ozu8DuLLnDHNkTASCA4NfuQWQBwQ8I5ADcCcjJEcHt3N7MDd1pMtNkmndXdxfnLCuzKjknwcO5Od771NTd3MMjMiIzMjMiU1/E52amppx8+lRNTS3TIhAQEBAQEBAQEBCwAZBNjgEBAQEBAQEBAQHrHoG8BgQEBAQEBAQEbBgE8hoQEBAQEBAQELBhEMhrQEBAQEBAQEDAhkEgrwEBAQEBAQEBARsGgbwGBAQEBAQEBARsGATyGhAQEBAQEBAQsGEQyGtAQEBAQEBAQMCGQSCvAQEBAQEBAQEBGwaBvAYEBAQEBAQEBGwYBPIaEBAQEBAQEBCwYRDIa0BAQEBAQEBAwIZBIK8BAQEBAQEBAQEbBoG8BgQEBAQEBAQEbBgE8hoQEBAQEBAQELBhEMhrQEBAQEBAQEDAhkEgrwEBAQEBAQEBARsGgbwGBAQEBAQEBARsGATyGhAQEBAQEBAQsGEQyGtAQEBAQEBAQMCGQSCvAQEBAQEBAQEBGwaBvAYEBAQEBAQEBGwYBPIaEBAQEBAQEBCwYRDIa0BAQEBAQEBAwIZBIK8BAQEBAQEBAQEbBoG8BgQEBAQEBAQEbBgE8hoQEBAQEBAQELBhEMhrQEBAQEBAQEDAhkEgrwEBAQEBAQEBARsGgbwGBAQEBAQEBARsGATyGhAQEBAQEBAQsGEQyGtAQEBAQEBAQMCGQSCvAQEBAQEBAQEBGwaBvAYEBAQEBAQEBGwYBPIaEBAQEBAQEBCwYRDIa0BAQEBAQEBAwIZBIK8BAQEBAQEBAQEbBoG8BgQEBAQEBAQEbBgE8hoQEBAQEBAQELBhEMhrQEBAQEBAQEDAhkEgrwEBAQEBAQEBARsGgbwGBAQEBAQEBARsGATyGhAQEBAQEBAQsGEQyGtAQEBAQEBAQMCGQSCvAQEBAQEBAQEBGwaBvAYEBAQEBAQEBGwYBPIaEBAQEBAQEBCwYRDIa0BAQEBAQEBAwIZBIK8BAQEBAQEBAQEbBoG8BgQEBAQEBAQEbBgE8hoQEBAQEBAQELBhEMhrQEBAQEBAQEDAhkEgrwEBAQEBAQEBARsGgbwGBAQEBAQEBARsGATyGhAQEBAQEBAQsGEQyGtAQEBAQEBAQMCGQSCvAQEBAQG3HFqtFhqNBprNZmISEBBwqyCQ14CAgICAWwoirnEcY2FhAdVqNTENCAi4VRDIa0BAQEDALYVMJoNsNotKpYJ6vW5kNiAg4NZBIK8BAQEBAbcYSFYzTZLXOurVLMlrJjEPCAi4FRDIa0BAQEDALYYGYsxjbqaByvwIeGF8NiAg4NZAIK8BAQEBAbcYMvzLYn62gUsXKmiJvAYEBNwyCOQ1ICAgIOAWQwS0SpibreHC+UnEnryG2deAgFsCgbwGBAQEBNxiyKBeyWFmqo7Tpy4hUk8Xlr0GBNwyCOQ1ICAgIODWQguYn2thbraB2ekKygvOLBDYgIBbA4G8BgQEBATccpidqWGGxHVhvobLl1rtda9h26yAgI2PQF4DAgICAjYgREJ7iaium3bQTgPzcw1UqzEuXZxpr3vVHrABAQEbG4G8BgQEBARsMHji6kXQUQy1iVoNOHdmFo1alp1cAYcPn7TOLuw6EBBwayCQ14CAgICADQbNnnoRxEpFXiNKAZUF4NTJC2i1sshkszh98rytew0rBgICbg0E8hoQEBAQsAGRJq9Nd0gmXytl4Mzpy8hkImSzGVQrwNEj88iK2wYEBGx4BPIaEBAQELAxYTOpIrCaeXXdWYs89rWXT/JY5B2x1QxacQGvvfqe3Q8ICNj4COQ1ICAgIGCDw60H0JrW6cvAh4fP8CJHE09o87h8aQ5HP7zoraYgg0WGAQEB6xiBvAYEBAQEbFwY73TkUxsJHDtaw9Rk2da7alssSRxHmJ+r44PDR1CrpYmqzrXkIJDXgICNhEBeAwICAgI2IEg4Mw1KjeeRzbrOzwEvvfg6spmis2KktKWFA2g1SzjyfhNnTlbsTkyntqTA/4W3uQICNgwCeQ0ICAgI2IDQOlcR0TrFvYl16OAZnDt7GbWqmKkjro7kUuIiLp/L4+jhy/YCl8Hz1UBcAwI2FAJ5DQgICAjYgNCLWnmK1ra2sDAHvPnaSWQzBcStBvlonCwb0FFEl/w1jnHkg/OYvMDOj84aTbLYlvwh+bVjQEDARkAgrwEBAQEBGxAZklF1YUU0mzm89/ZFXDpfx8DAGIqFEs39bKpIacaIrHDp4jyOfjCJZkPkVTO08iMQ14CAjYRAXgMCAgICNiAy9ulXcdQLZ2p4+82TqCzkUZ7XTGuETCZrn4JNi1CvZfDGa4dx5uS8rY3Vi11tnhsQELAhEMhrQEBAQMA6xVKsUssAGhgYKKJa1nKBMzh/ZoZmIqIFipYT9IeWFExNTeEXP38LzRrtKYgM/cssteuAzNyyg4CAgPWBQF4DAgICAtYhRBq9pA422eqIZszDmVM1HHr3Ahp1rX2VsdavLv0prUKhaMsNThyZxUvPn5I3RGYxeW0H7U9S9wICAm4qAnkNCAgICFiHcGtVnXQQxyKRMstj+gLwnW++iempmj3+b7WapJgVtDJ+O4HFaFSL/NnK4zheef4YDr9XQ72aQb2m5Qb0V95rorXNVb1BQEDAekEgrwEBAQEB6xQp4pqcRlGGpzlcvtDED753BJfO18gvtcZVs60kmtr7dVmySXtxgVJEeSGLXz37Fv0iFc6V6IfcJ6y1mzMHBASsIwTyGhAQEBCwPiEemXDJNkgq52eA5395EO8f/BD5fJ6ENkI2s9LurEk/6hStP8jiwvkZvPDcm5ie1LIBkd4ye0YSYJFXI7D6CV1lQMB6QmiRAQEBAQEbAi3yy0YFeOu1c3j/nQtoxTnbRcDtgqVZUxJN21nArPcgYaNa25rVV7li2iPpxSCOfHARL/zqECoLWjc7aMsHYgVmzNmT176eBgQE3AQE8hoQEBAQsD5Bvij62Gy66ddGHXj1pYuUY2jWhpDPiWi6Barax1ULCvS3mGh6M4lmXkletTygFdmLXtWFPN5+4xR+9P3X0ajylpYg2EcL5Ld3FxAQsF6QYYN3WiEgICAgIGDdQMRRs58ZktcMauUIb756Hj//yTu8NYRWXKC5Pg3rQPrqmG5fpAiolgzI31aJJnkjv3GrQqd60WsBTz51Hz77xQMoDQDZ9o5b8rgfge0NMJDcgIAbgTDzGhAQEBBwEyEC6CWNLE3UReXQrEZ47aVzePZnb6FaziFuRigvaEeBFFnsdb4s0u4ytvwgbhaRj7bY8oHv/s3bmJnirWTlgO1CsCiO/rrXPCAg4HojzLwGBAQEBNwkqPtxj/0dkr1aibih5QLA5XPAi7+cxjvvvEuSqU/CsuPKaFusFo/pmc7lZj3T9xJGqrD0dS3ek1+SbDbiZQ2ZaBb7DozjM59/HNu3Z9Gg9Vyhhkj3tVtBm7CmlxV4CQgIuN4I5DUgICAg4CZCBFBIkT8aVeaBUyeBV54/iiMfXCKRbSwirCKxHayUPPouj24166pLOjPX9sKXdhqo8nYFO3eN42NPP4F7H8gijioktaSumYJza/B+rSTcgICAtUIgrwEBAQEBNxy9RNSg3ojSrAEvvzCN1146icnJOVLDnG2HVa1W6cZZFa6OvNKOLQMQ3IyrjIy3JsaZTIxmXOe9JjZtGsf9D2/HE88MYWg4QibLuGQ6M8QrCjIgIGBNEchrQEBAQMANR7PZNELq0dSEZwxcOg987ztv4cL5WSzMN5DN5EkmSRppx/VW6S4rzRx1vhSTpHlXT5e2l9xg4I5M6zqZkbXTDKJcHRNbgE9/7kHsv3sEhRJvtWJks448p+O1iJAHBASsOQJ5DQgICAi4KRCBFdkTCZyfBl57+SzeeO0oLl+skj7mkcvlyQm1znUl3ZRI41LEkebLeWFf1fIzwTp39rX5lruMSWBjlIaquO+hbfjkp+7D0AhvkWxrF69s5IkvrXaRV+ev+deF3uuAgIDVIJDXgICAgIAbjjh2hG9qagrHPyzj3ddncfbsOdTrNEeRnE/ENWf2JI4ELgcRwmsjhW3eaV/fihmiwpW5lhc0GDfNFuexfccYHn7sTtx59zCGx4CBoU7cusmrXg6TH2kznWvG9triGhBwOyOQ14CAgICANYDvSjwpS3ctiRmNtDxAcu5sDZOX5u0Tr8ePTqJZHyZf1FrTGJE2WG1pRwG6kzfmPPGvvV61bZKgY95BnzgsidTMq8irSKe6R5uVFbTfLJCLirTXRK4QY/PWAdx513bcsW8Ttm7LI0/OXRxIrBPqXiVtfy2MpYlrx25AQMByCOQ1ICAgIOAa4WYoHSnrT75iEr/Jiy18cOg0Tp2cxOWLdczPAOUFdkHqhYwwrgSdl7S6uy+Ga/6kzdLxujIcb6T7ZBmBE0E3Il7q6PzyPmZzLQyP5LF1Rx679w5j350T2L5jmOaJBUbBr3roer+MfqeJajotgcAGBCyPQF4DAgICAlYNdR2d7kPn7szthUqTBlCrAhfOA0c+PIWTJy6RsDZQWWig2RSpzNqerUYI9S/CmCKHS+NqyOvK0CGNiR/eL4uXD7c7flpakKW9ZtxAocB72Sq2bR/F3v3bsHffbmzaDIyMiOQm0UuiGVv+aVkB72WzXYQ1kNeAgOURyGtAQEBAwFWhUqmgXC7bFlbz8/OYm1uwl62mJ+u4dHEWs1N1VCsR4mYOcaOIRnWIRE3bXrHzyWp7Ab2wRYJJrmaE7Yrktfv+ou7LiHDa7GrJaz90h90G46ClDq2mXjArkInWkY20T+y8pTEbNTA4lMf4phK2bh/C5i2jmJgYxNBwAaWBIopFLUNwL6358AN5DQhYHoG8BgQEBASsCuo2fNeh49zcnBHYSrmKhfks5mZiktg5TF2u8Bq25VWZx8p80b6Slcnq7f2WvaXfAkmsx7LkdfG9K3df15u8tmwnBLmLMgOoNzSTWkeuUEehVCdpzWF0bADjE0MYGy9gZJzXoyUM0LxYypK4ivDmFpHWQF4DApZHIK8BAQEBAauCuo1016FZQ+172iB5y0f5ZDmAezFrbgY4d27BZmIvXajg/LkpTE/NGumTF/ZSltaTxn6RaD/iJrPF5teHvKb9TIfZLw4irw00mjUS0QzGJkrYtmMEmzYPYfvOCWzZog8bAAODtNrZ0tbgot4JS2kJ5DUgYGUI5DUgICAgYFXw3YYdybMyImE8tkhIRVwzyCLKZR03S/GwhVntMuBmZA++ewynTl4kwSXxjYvkmanX9NOO7Dx93UH/7itt1u/+0miT1661rkI6DokdQ4wCSeu2HWO4655xe2FrYksOpVKEfD6LWNttMY7pjzF0ID+cn73pCOQ1IGB5BPIaEBAQELBqqOvokKxONyLCpuusvVovc0/SSOB4qtuSakUvc9Xw0kuv48jhS8g0tqDRrKPR0Jer8nShN5w86aPDFe1G4OPhj1cDhSX3Xlx6ms0WCoVBkm1S86hJOxXsu3MTPvLUvSSvOZtd1TcV2jsKJFnju9hASAMC1g6BvAYEBAQErBrd5LUD9wa9v+fJn87F6iTOjZYU1GsgIdQWWsALvzyNQ+8fRaXcQNykYSshsB5GXq/UXen+tXZpifsUgdXSANdVxqg3RFq349OffRwHHnBWEheG7u2wAgICrgcCeQ0ICAgIWDO4LqWX2C4muYLNwtK6dteK68DBtyt47ZWjOHtKL4C5baQcgdUM7EpnXteiS0vItp/5JZHN5VoYmajiqY/vxSOP7USuSHNGqUESHqU5diCvAQHXHYG8BgQEBASsGXyXcqXH5LLn7TTqIqpaKZvF7Azw1msXcOj907h4fg5xw83Cik/6z8S2fe4Kw3dl19qlOT/1JSyt4dXlwGCMR5/cifsf2onNW7OIGJ2suC2jo69udZHXdJQCAgKuCwJ5DQgICAi4yfBbZrE7apEJxhFOHQNeefE4Pnj/PBq1PGr1OvL5HAmsm5EVugmyurK1Ia7yR9t5xXEd27ZvxpNP78NDT+YZXoM2ChTtyUprHesOgbgGBNwQBPIaEBAQEHCToO5Hs6kNntV51DP3nBFEYfoy8PqLs3j5+RNoNpuo12pdj+Wvjbx6u/IwORdxto8mVJEr1HDPfbvx9DN3Y9NW2irogwqa9dW+rLQbiGpAwE1DIK8BAQEBATcJ6n40kyryqpnXyMghkEczJlnkWZZmb74I/PiHL2J2toooK2IrwplJkVf5s8quTC9kmRPNomoNQAa252ymxmjM4pHH9+JzX7gbgyNApQoUiiLZDFN/KQLtPAlMNiDgRiKQ14CAgICAmwx1Q74rEhHskEF1USKph9+dx/f+9kXMzxSRzRRQr7sPJWSzsis7sr0aEulJZxb53ADKC1XkCy0UB2t4+hMH8LFPbEEmoo2EqFpPSetdk72GpbrQ1cQlICBgNQjkNSAgICBg3ULLCTKaia0DJ4818bMfvY0LZ+dRrWagT81mtVXBqsmrs5eloygXodFooForY3S8hY9/6iF85KlN9lJWmqx6qts/CN+Ntm0tgeXuBQQErBRdDz8CAgICAgLWE0RcBZHJ3XsjfPSZuzC+OY98gR1YtrN0YOXTMLIv0SdtMyhX5lFvzmBkvIHPfPEePPGxTbYNln1cS0sLEusWjGRJ9IuAzLwEBASsFQJ5DQgICAhY30i4n75gdd8Dw/jkZx7G0EiMQilGJut3H1gpSdT61hylYJ+yrVTmUBys41Ofux8PP7YDuYKWIyQ81dbB8rASbwMCAm4YAnkNCAgICFjfSGY8jUSy17rn/hI+9dmHUKvrYwYVmpPE2uLUZadGHTSlqo8PiMDSs6HhIj7xyUfx2BMirtppQC+O9UIvawUEBKwXBPIaEBAQELBhoNnSbB546LExPPTQfcjnSzTTvqwrIK4GdXsir1nkcnk8+tjDRlzpjbsX03Nx1fZsqwitZneXmn4N07IBq4NqTKg114ZAXjcyfAvoEv1ov0SJZhC6tPDK0eXnCiRBK/lTqFL3i0Pv4yggICBgBdDkqpYOSLdlc8CXvrIH+w+M0sxrGs2qJl/kslnYPiIimq0iylewdUceTz69GcUh3kLV3RNkdUXweiytz9LhqYv1smJPAzYIFvVk3kDV0Ys3Sywmh4BrRCCvGxVLtgC2lhaVsEmN11dBYHut6jotyzRMnehbOeoCvMiawyLLAQEBAVcBPfIHiiPAJz67D5u2iH1K22hGtUQp8twTxl6pUwPNYXCkQrd3YdtuvQxWpnmiL43cSnhpoJuWLpbSXWm9Jv9TSN9KS8CGR98i1Um6f/TSY7FtP+CqEcjrrQbbmJCKPDNI0XMwt66rrVTTjSjVkHwbM7IpXZ0Sc+5lqWt9lYbKP4Mqu48q8pQCO4k8fYz0AfD2Gw9yIAkICAi4dmzfMYCHHt2OYkk6iNBHBjJ68uR1TjeazRhxq4nHP7oPdx7QNltEK0/b2mIguTbQP+02sIQ/HaR1mjSoaVEK3flbvRKw4aFiTHeDBm+obteEdSCiZFUXXD3yVkI1uDYoDwNuFbA1SGXquzQNFq2kSYl5rWbTT2L+yI3mZ6srkBrDqCfSoBjBpblfLKBfHwsTdhJtRR4IbEBAwBqjyHH6gfs2YfvOEaoVzZx68tpBNuu6Ou3rmiGR2LN3Gx55fBsi9xVa6iYyjVgXafLqdZnXW1dCj+4z0fUykJO0BGw4pLfKV3+oyZ8mC7PBspfozxbS2WeH0/UiFPq1IHykYKNiqVIzTsim0mLDaTTRpL1slLe9ELVPoW5rIrTJ9lMXY+V9NbgZ6uwy9bvtZUgzGyQm5150L6Id/15EiWZD9Eu3tU94nvpfjbQRN5HL5u0N4IjkOUrsO8h2l0FAQEDAVUE6xvQJldjhd6v43t++Tl5QwtTkvL2M5XVNFEUoLyxgeGQYpcE6Pv9rj+OBJ1JENdFxZr2vevIWPNKWpASTe4xHoxEjV7CFuSnwfpMkhvczuWTOyLzkjyndHvSNQ8B6gq8NqoFGT/U5Y5an+sdI+w/TTH8ZmyPMkLJqKinbdicb+utA56HgV4pAXtclTKtRlqnMS5VaYl28VCu4FmhvgUS1SimXgflZyoLOG7g8OYm5uTnMzM7jfLmGCqmmvG2S9NaqtYTwUmioGQv5nc/mUCqVMDY6irGBPCaKGYyMDmB4uETJIV/UN8CBwQIwPgDw31r3INuv6yp8xJdIV0BAQMCKIGogLUdd0iI5nY3wt998Hcc+mEOrOcABej8l2cKB+4bwxS8/gE1bEyNBDETWHc/oA91M+ydLEplRubYaaMUcsMfUobxsUgHPz1H3liuINVNAJaqtvErFEgaoDKlCSWIZnD1OTgXoT/vGIWA9QSXfLiZdVFnoc/Ouo63VEdfrqDdqyA0WkWVfGZdyiCY20aIqmeZmI7rvrXCh4FeKQF7XHVQcaU0q6YN+pUYzqknMVho4M1PF6Zk6Ts7GOEeyena2jqnpGAskrzU2qiYVaiYbaTKAwk4g+Yi3xomaHUjXCpFXNSkzogPFSDMZvqFFEc0k2SYGyVpHRgaxdbiB7SMt7N0yhF0jEXYPA5upsHP2IoQez4VGGhAQcC0QAaByk0Zqkaw2sjh+ZBbf+qs3MT+T44Cb7JBqJkMFpmUD2k5rYGAAn//N3XjoI4N2Pybf0K4FqyevXi/LrM5DncR1kFHK4N23pnD65AwunJvH9PS0PQEToihL3TiKzZs3Y9PmIu59ZBDjE4XOFl/pcIN6XPdQyVsxsfjjU+dx6ehJzJ84jfrFS6hcmkRtfoH9YgaZ4QLi4TyG927DxP492HrvvcDYGB2rD3UVLk3D/BfjApZHIK83G+nctzorAyk7aVM9h6fSpblMZRJzhF+UUqYBB3fQlxP1nux0FTh5voVj56Zx6OQUphbqmF6oYrYWo9bKsX1FbCA5KlgKi9xmVKnQVfryO8OGJDORV8HVCpJaHmUiN+aO5yaym9ixWQVzKX91j9JcQD5TxwhHnOMDBYyT1G6bGMW+naO4/w4S2RFAr5Op+eqFriw7noyetMVMu73ZK090kP9KqMzUywQEBAR4SAlJMzY5IC+IQ+Ibf3kIH7x/icSUg2Svjzgwb8ZTuOfBcfzW1x5HaVhvBkSmbrTkybwRpHP6wrNbU0pOdCmhaqpTCX946CI+PHweRw9fxtwM78cDvKedDRoUWnQK04i0Zly37RzGgw/vwQMPbUY230JpgPdtjVXiacC6g0pGJWSo86rSwMyv3sSJtw/i8rlziBfmEdVryLKs9baJ+q9mpolGtokapTQ6gJ1778Depz+KwoG7gOHNrmpJWORxRm+otEOwfjagPwJ5vZnozXmrpzIUeZVQGdNQ9VrQHYlxPIpI69ELwHNvn8ShM9O4NN/EfFzCZLXE+075GUmVH7Y2zMEXebpheHtpGGG1EB2Wqypyq/U8HXT8itg7RCLHVNpDhRbGWydw/94hPHLfLty1cxBb2MdYmhaAYjFpxYK80EytvSom4qoZ24CAgIAEUkmmaqQNbZESjh4E/vxPfkbyOsgraibTc9Sk+cv4wpf34omP3EfCKr3ioIH7lSG95HVTop/kBcNvkDC/+tJpvPDcm7YsK2qN8d4AWnGRZKTCAOqmf9Pa1Yb6cQYj4xnsv3sYH//UvZjYwgF8lrpO6yUzQdetN6iqSaz0VfYzFbzx3Z+g+dYx1C5McnBUZ9E1KawnmnRRfbFdeGRZgyUeMw2WcQPlzeO47wtfwLaPf8G9LKL5GVbDRqTXrFkPUrUlENj+COT1ZsPnfrt+JpWe0rCNphxtk6lEKnqyBvyCCvq1w+dw9ORpNKjoanGESo0NJCoik6MkHt488poCg86yg8jmcmg0K2hUL2JksMQGm8EE+5snHtqDTz7DESkTuqXB9NoEq1+1qzDlr+it3QgICAhwkHowtUWSqGc5UnNUF//2v34NZ0/RrJVDloPnFu9v25nF1/7h4xibKNDM60NqLvus7EogbSxkSYwzqJNnFskxX3ruHH72kzdQXqgjly1RqNRaetJFe4nO9ORVIhPp1QzjoDW7cVzGYx/Zj8984QGMbOa9VpVx0j61ATcb6R5P56oBeW3RMzmPF775fUwfPI7iZBkFfeGNRLXVqvWQV7lwRyOv6td43swXUaY8/tWvYeLxJ4BBDnayLTRZJwJ5XRmif0Mk5wE3A16jtaELKdOIVV4PnNyYbYonh84Av3xzAd/8yTH87K2zODkTI86PsMIPoGzvLeRRGhiytV0eaVKaPtp5Klx7ISttQHRs89e89C4X//m7/UFiS/9bbNTz5XlExRLjy6acHbQlDSfOXsbrB8/j1HkmMjuChnhqMcsc0N6LrjG7PFlpJxMQEHDbwNSOyGhku6iILzTqJRz98Axv5YycNuNZ3P/Qbjz46FZEejRvy5HktqO/rgzZkyIUUZF+Ak4cbZK4vobagvaIpeIiaTUyrIG/EVba1w4DEnPPX96Xus0wotoRoZAbxfkLFxmvHPbdPUa7dG/6OGA9oNObJtMnCzW8++yLOPfm+4imKxjI5NBs1BHlIlsO4iiuqycdEqu5dtXRxKwWk/BGOH7kKO7YswvRlmEr8qzqiepPqvwDee2PQF5vKpIK3hbBVVS9sRqjjrnqPN4608JP3ynj+6/P4fUjczg3E6EaaaSmt1upHhsx8qzgOUorbjgfkh9PXq0B+Dagoz8n3KX/69xum1ARd5s7SV+kSXJf2AxEE/k8qajiyg4kmxM1V8oLqFSGcPJCC68cmcTxSwuYpIIYGCphsJBD1NCbvJqpcOtyAwICAgymDjq6M2uP3KWPCjhy+CzqGtRz0JsvVvCpzz6CTVvdEgE5cxrLna0M3p7ISITKLPDD772F86crVG1DCoU29Aa5KGui0/lvGwq01/EnfkinZhok2xGJ9gDPczh79iz279+NkQm9l9CxGrA+YFMnLPqpQ8fx5o+eRXayjMEGS1svMbOwbC9XdtyagXWwgm8fO+SV/XUrh3wdGKjXMTl3CcU7t6E0NMJ6xPqpPYlThR/6vP6w8gi4fkiqbls68Caq0BqpuYpdr/GcxuVyC7880sB/+/Np/NEPD+Gnr5/AqUuzmOOIrcGRmRaE5+IYEUWjNT0ea2mm0r4UIwV9A4q2O0HLwOYfaD/LdptDNs4zzgU716M1zSy7Dx9kMFNp4Z0P5/Hjl6bw775zFH/1/CzemC9hKlu0HRJWssrFheVPAgICbn2k9B1Px8az2L1nixEJ7b85PJrHHXvyiJuilZ5cXC2cYnn/4DmcOTWFKKtXT70Op66jTrMXY/XRAx7TX+0yLmOQPc3j8R7jqGVV9WoGP//Jm/ZV746a84qsbRBwA6FcV6m2a9dMDadefQf1c5O8aGEeDXuhejlY6fX0W+oRtbdPjBrmTp5A45V33AtgBdaJwFVXhEBebxCsAlMcRXXSudJvRPWXRS0b4fhF4Lu/eAd//P338KPDwIdTA7hcK9m61livxkbuQXrEBuE2t5J7nWltlyeufl6hf0uQqRehv63l0evHsjCCTfKqx2pU2iKuOkp5q/HHWRJ3xr5OO/ONAZybHcYbJyN8/40Z/PffO4Ofvr2AyVoOZVq27RvTkjpNLjtYZBAQEHBrQRrI6TzX4JsYGAR27d6ETFYD3ib237kTUZ42qGdWpK+WhFMo9Qrw8ktvoVrJkBw7GuIIitdzXr9JuvWxlhA4e7wnu3Tb1CREtoBTx6dw7Ii23aKVgPUFlcnJs7j0wXGMZ4usZhwI6YMTy8yMWp3oIa6C1QDNxmrpSHmBI6GjwLkLaGkhdcCKoFYVcB2RrtYam+ulQj0s1yfj7EwVO86TtGVwngrxBxyA/Rdf/wB/9HIGpxc2Iaplkc+USPGKVJBUktJ5LLUWCWwciczmKDQw/cjGkChnjfBtnVVa+JfVrK2tuXJHL+mYmvuUpO15ceu20uf03aRzz4seqdjjvMRHZ67zbsgsKuQRlfLMEqr0fBFT1SyOna/jT358BP/Vt4/hrXPAfJJ1frJDqkGnEp2bzz7yi4MJCAi4ZaAWLxE659q7dWJTCaXBDHL5mOR1l5k7vSORzuvWe1eGDyeHqYvA5EVdJ+TUZld1pP41iSl6puRZqA/XhecILPWg/ZEEkbxq1wMecPTDE23dZgo/5S7gxsKVUgIW95kL5+3jPupfi3EGg80sIp5rr17r/+zYv38TkdU6aB31Ap99gbKZQb4R4/KZo6idPYFMsaTakLgIWA7tcgm4XhCZ5Kia2sj2fTMTiUbrOdQyBZyvAa9TX/3xt0/gT7/3Oo7PFLBQ2IlqXEJW05JiqykFpsotnWYzlrptohbkfHaShtx5SWEp60TaxVJi6ON2aXS5XATf8C1KtBbznONSSgkLmRG8cmwO//XX38Bf/WIaR+eAStIvyEd1HX6OY3VxCggIuBUxNJLDyGiBBDbClq2D1C/JjauGJ6JZnDxxGY26I5/ezMPIK5VQh7imQN3UrQFlp07DGglNlYSmiampGXvnwSnClLTRdRFwHaGyapdX3MLM7BzrEfsolnGOd3Isiu7yXClcoarL1proVqOGWlV7CfWpMwF9EcjrdYcqqSpkgwSriTzPlel6D7XO6n+OxPVbb7bw//u7g3jxyCQWWiXkCiWUyMRyXS3n+kGDxD4Dxb5wo0el6cZBZF251ioM4WRjAn/56nn8dz8+h5ePMl/dO1/MJs1iU7TTgqJ3Y6MYEBBwU5BWkp1zqSiR19GxIoZHChjRB43WhLw6xXLx0iXENlvarTjtuj2JkIYz69hO7GhrBO3tmilzwD7P8xrm9f1uBeWl16vFBgHXESozvW+hrSymp6egj0ysDVw5qsrU63UsLLDc9V3hgBUhkNfrDlV9zQlqK5UI2VgzsG6/1lfPAf/uR6fxNy9+iGOzWcxlR5ApjaEuAmYbHruRWUfhXT/oQwJ5ffJV5FTProwEKh7u2ouZeVmVEmUq9L+axFjiRfMVrkQ5KSob4eCpKfzJs4fxP7/ZwEXNUiiP9Wax4iiLDEdnAQEBtxuoqziYLZZaGB7NYdOmYdjXrK8J3brO3i6XrqRxM/n8awfJI2SJu0r+NFPrxP05U3lt+8DKMj00opRGd9AJ+hoGXCdooKLPsZXLZSvXFaHHnpW21Qu7sPveL5FXyaKyD1gSgbxed3QqcL2RRasZYYF656evXsQffecN/OrwNKYwhGp+FPXcECpxBg0RRWjLDY3UnXupKi/CWqouKWC9kdtoNBBTEbdJqoirFHST8UmkM7OZHFcCJsEr83R+9MK8bd+W/2ZCF6SrHO1GGa3/jZHjebmVx+G5Av7y9cv44x9exOl5Wi2SwGbUSzEd/A1qICDgdgR1RqaBKN/A0HAOm7cNu0/AXhO6ld3AgLa3EoHVbgbdw+SOnpP29n/JEgPpwZ4/W/SkNbN6mVU6Lp9HpPkOj7ZO9PD+B9woWJmybAqFgpV5Gkt1g32LLSk76w+9UQKVu/W9AStCIK9rCEe1+kCGrJN62/U0s/y/+95JfP2lszg13UKlDuRaVLSUrImrvM4vt3LKhLU8LWsNfdhAzalYKlojco2VFYREUddqtJIouj57rfq8c/nnU82/Fgk/w9P6V4lM9dUarTvK5XKYmpnDz94+h//3v38Xx6eZDtXo65A/AQEBGwfSHbkoa2teN20W0UxumHK4GgXh3TllPjY2arpQusjrRC9dCjq57BglGq59LVJb5MB8CK1miYP0QYyOjCAj8ipd1lefLTIIuM7IaeqeMj4+3jVYsT5L5esuF6GrXiwBWz/LPnZwcIiDFq2kDeW7EoTPw64R0pko4tWu1VQ+Op0lST0xB3zjF2fwxrFJzLUG0Wg6Yuas8U8nbBfuTVTn3HnjfHf1PyGzyVmkx032mKyVvLwlS9R8LFaNEDVLmTV3tBvXeKdOBUnzTBOlQgaFfAZ5tsuBfBGlHAlqseiIKhuTx0JZixwcZmZmUKlW7fFGnQHWmIZKs4VqM4NGK4+mvjZimldvzqrRxlTMLiEuXRYZQ8x0SSyd3pj2TF9bkp2h0uYMWkbuNSOtq4YGBDnGs1FGvjqJR3cW8DuffRj37eYolp5osiU9gREQEHCrwzRDcozw/nunUCyMY9+do2nVcxVw+sc/zznxQYw/+3c/Rr0yYp+D1cyqIDWVqCqD193eQFFwZ/w1PSYTbRfYIBGuoDRcw0eeuhOf+eKdzrKXgJsPFv3pX7yKF77+XWyusG9L+jP7CAX7YNc31XmuOiKCG7NMVRd5bXv5ypzXPObZb+a0xRrLvUEpjJZw///iDxA98RTtOF7gsRzxvZ0RyOsaIJ2BTlep4lKZqd5GJHas5D86BXzvhfM4cXYaldYA6pRWq8iKqeUBC6z4ImZy26moujRiZ4rOmWnnAe1UQK4olYdis84rva1aRz0igSRxbGFQBYtGrUJSmkOJMlgqYFupie2U8eEsRgdj7NxWwvZNRQwPABPFQa3KdUFYmB20iSWhPVYrlSZm5+YwuwBcnAHOTNdwdraBC5UcLtDs3FwdtWoO1aoe99c5oiwwLxjHhJjHbIxxxr2+pnRoj1e9cGWfK2C8NfL0BN7DZY2LldVY+SO7spatkiA3kWvG2D+RxVc/dQAfpe4foyvdDiPZgIDbBVIO0r86ZnDs6BkUi8PYsXNcN9cA1GPUU/VKCX/0338Xl8+O8bJE3aWhstM0Hd3FoxEWidNdhoTdul+R3hxjXKNKW0BUmMI/+idfwp67SuZcpMfBLtxpwM2BCuzcDH703/5PGDg1zf5WTwMzyLOIRFx7yat2joi1bURSB9LktdjMGXlt5Mqo5FvYevcB3PWP/imwbTftaEKrU9aBvPZHIK9rBGWiVTGdeO7K81mev3YU+LOfHSGpa0Ef0NLMZCvS17D0KUERLPcSlx+k+wKRDtR5N4/LmnLMWYNpkfg1eL9J0QysHkG1kCdhzjUr2DKcx13bxrF70yDu2DKILZuBkRGgSD1bZICalXRPpxo80q2mbl0quuJgR3doX+vAtoo6dTkHkSbksEZmz10Gjp+fM6J+5uIcyXsBVYZA9Wyq3z3+j5h+hm6Jjm3phEJx4SiNyhEhCVD3klP31IYp9VWXI1e9QJFp5VFqzuCurTn8o9+4Ew9sBWm8m4ENCAi4XSAFId2QwYXzl5HLFTAxca0zrx7SYJJBvPXyRXz3m29T0Q8zSH1lS7pc4sOXznLHLhiJ0dMygjoLrSJVXhW1eBIPPDqBr/3ek8hyvG/uuuK8JgkIuBZUmnj32z/GmWdfRaYak7gmfbGVp/rghk1IWfmyT2vPvKqPz6peOPJaaOYRsf+PszUsDOew/wufws7P/hpapRFkxA2Ssg7EdWkE8rqWEJsTw2KFjsmYZnn67CHgBy+dxIlL7rF6zErciEnjso6o2VhdJJbu/AyhzOVN+tiBHlNkMKRPybHoNGqLNTqnFJoxBrJ1PHzvdjywdwx3bgN2kb2N0Y8BMTgqxAoPbu7Wjfk9RTRYYJ042NFdduKQXCvsLFmkXWo9kEdiUR8SuLgAnLoEvH2sipcPncLlWhVlNsaabRiWZ5r1FRrGgflWiNXA2S3YGgfGqmdvW+exOgPmrXQAzX3VVYehPIxRRInKYKA1g30TFfzjLz+Mh0lgOwsgAgICbn1QT5huyNjb4Vq3XyzqKZfXJdeCDnmtzQF//edv4fiHs+QjJMciL9LFtkmrIzBas+W1VEeXNYzY6DLKDiBuFJHNV6jCpvEH/8HnsG0n+4O8SE+iB9ci2gHXBFeGBDufSweP4o1v/RCNk5cwXMsil3zyUZNIKne9LGhL25Yhr1GrwH4vZ313c+cEPvaf/lO0JjajlhtAIcu6Ggr9igjkdS2hSqzp1mIW07x87kPgT3/8Dk7PkXBmNrF+a6ZVFVt7OlEBirkZSSP54z1PJa0psO6mjx2oWrcwpMZSbyJfHELUnMOWoSY+ct8EPvnYBEbp1QAZm2ZYNYC35QgqZoVnCtwpVPltEwMykXFyLvjTfuRV5zL29LILRuBpQ8sCeFMp5QAVc0zukePz+PlL7+H1sw2S2DGq9hIb9ADzpoAi23STebIQyYWgdEpxe+WvX0deW4yUr7UufF2QvLZIXjNVDGbmUKwexTP3jeEPv/pkIK8BAbcZ3Bvh0hNOUazN3pzyyxGRVrOIRgU4cwr4m6//AnPT7iVXPfuy/V8T/dTR3zyxf/00aYcElhqwkKc/7DNiTOKLv/ERPPWJbWjEdeRs5lX9gnSgeRBwE+HeKrGSR67SwLvPvoDjP34Jg5erKNbdbLsmpKx/Vx3RIMZsu/riBjYJkWX519k/NrJ56xu/9If/HHjsHjSiAu3nWequHgUsj0BerwrpLOtUsvpcGfnhAaoh4IUjwDd/dZrEtYyZmmZLh5jZei1Lazu1TlWVXA3CPUJ3JNYpWPnulV5H+XWgRxSDjWmMkpVNjIziow/twVMPAXsGgHK5gU16W0kzmGKk5olzl4b8Fbn0/utLIW7NrYM/1X07ukP7Wgcn/gGHhxotG6ktCVBMtVhATVZpy9s2YS8dBZ5/+wyOnpzC7EKBPHccxWYB0+VZ1IZFUOknA3Jf22IIFoD8deTVQo0VsouDlIFZauUxgAUS+yk8ujfCH/z2w9jOPGLuBgQE3EZQt7a2j1ylbSTSQzpIv1HfzgAH35nCL3/+NmZnK8hli2jWqOuk/6R5nLoi6JZHOyWxUdSacQ31RhlDQwU8/PhuPPPJuzGymTab7Bv0zdFAXtcN9H6F7/t4gfp8Ge9+48eYev0woumyvW/hPs2uTwJTbJZVlFeEVeeakRWJdTOvc/kcakPDeOYLX8L4x55CPDZAu26nAQUTivzKCOR1lXDjL6NUpo9E0NpVrVHniCqP584Af/KTw3h/qo6SRtYcmTVI3PTtahHEHEfmkbJd/9RiTYrMVW0Tnx0XSx3T0I4BD2+p45G9Q/jowzuxbRQo2uMqHTPI22Mrgo71YlSibl0YFPmpLaX08EtjQzUxvS+r9TsePkzfYHuvHa1kg+34TpOIIv9EVZ25bLiVtfqimGxkbOnCLNvwex/W8MrbUzhxpoXpy3U08nlMFRgr6X7ayTLulh8WJv2z0axA3/WmZnKl9WJSGBHNRlpTePKuUfzeZ+/EHaMtFGi3k6qAgICA1UKaRiL9I20ikd4nZER567XLePnFd3D29Ay5CRWy1sBqLas97UrcGmnVOd3zPMrFGORg/f6HduGJj+7F2CbespF2oudM8cmuuwy4ebDBkK8GLPoFlt/gxQpO/ORFnH7pbdQnZ9j/JMSV5Scia71r6oUt3dP7GfZy9c7t2P/pT2H3p7/AaxZ65OqT+k9HXwOuhEBeVwlHzkTCVCFVyUTMCOqbOda/dy4Cf/rdg/jgYgPzmTEbYSuLW5FmElnvmdsaVGtgJtd6W7FBd1r0HXFEZy9hsZXIrKkfjuDzBVbuxjwG8zVsH8viwf2b8MmHNmEvlZ1eSHLUsIkG3Yqq6d1V5zsJHv1XczAwXJ1JJ6rQZUvp0bnNE3hmSsisjY6xmUs8zXZUW9CZI5TKIe+Dt6U805WaqB6MaPMtjUknyWTfO9LCK2++j6MX6zhTGyfJtZXBNovhRqJ0zTzx8bZZWc1IUOR3PVdFzPzZms/gkTty+MrH9+GuzXmXNwowICAg4KrhdJcTQUqFWklcxM54h+cnT1Rw5PB5HHz7NKYna9Tfed50ytNm5URiSHqy9lSsibvv2Yt9+zfjvgfHMNDeDME0XOoYsG4gqqRiYfmp949qvCg3cPmVt3H+g6M4e/Q4qpOTyDcatlxP+/5kWElqLOt6lsJOdmBiGLvv3oc9H3kMhbv202CY/sm2L2sFIISyvxICeV0lRMI0W5lX9WXOaUZVj9xV156/rM+9voULFyPMlUtokrzaVlCsvJlIW2i4eUg3A5rQMhrUqQsL9C5P8qrRW0xmW2NFz8QDHKjlUcyxMcSTuP+OAr70zJ24bxcwRDday6m5SWtUAv1KotIXnkgK+l3K3nKQ/y60JMxlfPE2hNjSTsVtojs6y5trfRzr+PwCXj28gB+/WMfZmTnEZJ1aC6t80hZacqG8EtmXmWZZ9cKX6HA5WkAhM4cndw/ja5/ah3u21jFkFDkgICBgLSAN1NF5TuU6M+lxG1lTQdU4GD97inJmBseOnMHFi5fty4Wacc1GLYyODmLX7p3YsWML7thbwvAINeGA/BI06A+j7Q0FVQHNwkzNYe70OZx8622Uz55HfXIWTfZpURwjNzaILGVs307c8dB9yO/bDfsaZKQeUb1UxFL3vVW6nvVCvaUkQAjkdZVQPZXofXkjjo0YC608zlWBP/7xcbxxYgbNeAi1JumtdhfgSFtij4tU75KDoIyXzpP6i2JWYD3L53mT7LZGRlxqRhhskh5XPsTv//oj+PiDIxig/WEO1AptHSeFtzKsLXldHdz8rpuRdeRVoYt8uvyco4jEnjgT41s//QDvn82iZiPSiMSeAwYS+nqkGVm5cWJriFl9C43LuGd7E//4t/bj7vEi9N5vQEBAwNrBaz6nNTu9ZqJR7TpRyjyPqdRq7BP0qXrZ9da1MUuxyKO9kEXohjwwp9KPunBhBGwwqCxrddj+kdWaO9eLgwUSVZFVPUHNiaS6p4j6ZrF7Fulf0LpSuYe6kUYgr6uEJ69uvOR0zjnW02+9WsN3n30HrdIWZLJ51tsGSax7KG97/dmWKZI0eMW6KLNMTG2mPf9kJ9skWathIl4gGcvh939tPx7ayfrvvDHobdr+LyR0h5CGU7MdN/1cXwnyfakQlvPPkVd3ZjMVCXQlla09BrzqPkOl/1ffO4+3j01hgYOAWIMAEvqGCKxeiCBxjdn6czwrtqq4c3Aef/i79+PAJuWR9oxlqST9SEBAQMDawOswzbymtWBCYAXqJd3T56tl2NKLPMl6xjZ4X/rb6XBnlDHFLumnuNq+B6wTqIxVA/QkVk8Eda2SUzGKiOrjBLHWlbCMsxyxZDNZVBtVlHKaZtdTRy08kA/uCWynhJMzY7c9MKM+5rcpAnldJdyyAVU7R0QrZLK/ONzAnz9/GpMzOTRi7SfYYMY2Tbxac4+8XZ10VdZD6zm1sHuQ9byAHG9oRehAoYLPHMjhqx/ZiTsm8sgyHOlD8bImya180N4Fi1WdfF+qSBVqJ+SrwVK+X63Pqn3KkxrzQXmrZqxU6WWy7/1yAT96/TROaO2vzbRmUI5KaFARNGtljEYVHNiSwz/+/H48voMDW0VMDFiwt3X9hdxfW7oDAgIClocIjXSO9LM0jnSQdI9EUx1p6J7Ek5i0jurVVboXsC6housqLvdOjF7P0i2RVN12NaBTvr0l3H3Nq37ktRcrsHIrI5DXVcKteG3wt4gqr986C/zFj97DocmIxHWEZEzktYosias28W+1SrSvL2lUbS2rz2xXtQUqOyOvJWTiPIpxBaPZWXz+qf34zMMD2DkIDORojdb1iNyUXUZuZKja21uDZcf73Yt+9q+MXt/6+b4qn9Me0JGae9PyVY1a63/cjUtM6rNvVfHD147i7GRM0jpK8lpgu24wn2bxyK4ivvLUPjy6F26pgKbE5XcyJa5uJKj9gICA64fF2tD2mKVecxRlOc0ot14Eb6/X/lLuA9Yl1E/bi9LqrdULuRL2lFXn6pfSpd3hA4IzMaSNBe8oIPTtq4V76ciNrEVe/+61czh0gcS05Uz1eFtUzI3AWdNIZkVM3SdRVRddtfUzsq520k+S3XyrhtHMPH7vcw/gS48MYFvJLZdROLWM1n2KnTEUkmKT3op9HeHi7sQ3rbSsGH3irNzQ6h9bycoRp6uUTUyQhD7zWBG/SYK6b4s286K9VgOlVgUHNkf4ykf32YzrsNknnJ6wCGnmVrkVEBAQcP2Q1oyCtCEVlz46o8dk/lFbX8iutJ0XXfeTgA0DqwosM80xUXLNjO3io6UE6vPda8tOHAe4QvmG4l8SYeb1alBv4QJHVt99fQrfev4CKs1BsVbUVWcp2khDs6SqtC17aSvL2/qiitCpxvawPKqhEdUxgSK253L4zY/txUfvy2KcpFXbPGl+VaM3jeYj+m2bQ9nILlGOy6577S1a2e1nvwPvIm1LZv3M01je1x6ko2UOlRd+VayUuDdxuSTy/vIx4Bs/O42z5y5j+3AG//RL9+OenRFG22/qEho9yD96caX4BgQEBFw7FimzDnQrKKDbG0kd0CFdU/y5qoerIp27ixYVpC0HtOGYQsDKITaVz+DEReAHv3zfiKs+S+o+76r6pSUAbnmArXHVbGmmTsLJA8mm1m2KdLZEPElNtcNAEQ1sKc7jq5/ej2ceyGKCjHWQt/VCqpYpiLBGRlJF5kiE/YcRlqzMS97oRqe9LIl+VlxMumVV6OtQF646ujBdE1auar/WB+8AfuOpXTgwWsM/+/JDeHJ/D3EVZDmp0Yu8DwgICFhzeE3TR9sEBRSQ1AEd1DWlxfV0btJGEzV+JnZRn+uMA3oQZl5XCT2Onq4C//bbx/D84TIqJX2jX9tcxWhmnChLrb6RcLrtnHglwqqKSRbrlhBEtsa1hDnsGJ7Hl56ewKcfGcdYq4FihrRVzJdwL2d5dGqwXxm6NFyT6IbFyp0Kup26FLyrtHHalx4f1gCdEF2udUzS0JhBywDmF4AhjhUGsvpOV54WyVjXPlIBATccvXV+KYSqHhCwsSHK6p819nZgy7Xv0PY7uBIDCkggQiqZIYv62aEpvHNyBs1oCE3Wv7ilN+Udwer0QI6M6VJiX9CSXZmR6EatJkpxFdsKNXzuoW14+p7NmCA9K2pWNfGjpf1heXTi/rToQHLNaMezP3y8r2BtjeBT2UEn3YJbEzvAPNyiF9g0wyqCr6nWxU4DAq6IdP1Oy41Gb9jp636yEdAv3tdLAgJuNfSr55KAbgTyukLU63WTk5PAL4/M4XJcQjWjPUhbFJDEaimAKpmvZo5VadJV0M5uOo0zEXK5HHKtGobjGXzyge341IOj2F7UPCJtNHP0hEdbbiC/nD+euPq/q4a89FFca3i/VyOWluXS44YARthlTdOv9iZWUnXNj4CA1aO3Knq5UbiZYV9v9EvbWkvARkS/klxOVoCrdHYzcQ09eECCQF6XQPe0Pq9FUuMYbx86j3dOZVAvlYBS3dVCvZjFrHSPvZWl3dmqL2zVczXUoiYa2QLyuQgjvP7IgTw++5ESto7ZMlr6U6B/DJPOq8iRo2mK8XaHMsZ9S9pWUihLKLaYQtcBAUtig/RkCXxsVyK3H5RqtXrJSnNgvebW1cbJpyftXud65ud2uPG91mrkatDPnyuJKzs/+9BftA3lYunn183HtcWlMw1lXb+ZrafUrX8E8toX3ZWo2YxRKBZxoVLAGx9ewkJjALPlKsmUezlLcLZZDW19a1Il/Tn/G/pqFsmrfS62fAnbByr42mf2YBeJa9HcEvKKJWJEzQzSVfxqIHdpWRl6XfXKklj25pXhnS8Oyy2/aBNWrStOFLbtR2Lnt1qjV3qSWsBTXTnx5r6G9EHHshMPnvfeWko6WGyqJwx62uD2PHadpi8R330u3YVeT/QLT9JdPzpnS6HX3ZVdrATuycy1+ejcpfO3F9fi+yrhg2oHpxO3KXun7aYttS1eJeSruiznu+qgpD+uNay1gE9zryyHpe4v587VBne2Olkt0u7S/iwli+Frx5XFP3Nb0r+lA9kwUEq7E3ILJOoGIbyw1RdSBuqGRRvdClNt1/SnL9fxt899gOnWGDK2HpWNy/o3P+sq9MlO22qghmYmQ4lwb+4S/vDXHsVH73KVV1541/7ozfz17Yh0M+7OH6esu/PmVssp1QDNRuilNLdlmI2JSA60o7BLrfuccF+I0+uW+no65vjLPrWta/mjr7Xpvlq/Tu3rbUlmNxsNRNkMctqbLW64Ndp5PRVwHYnFxWwuJFcFXmuXXvmk+Dk/FfzigZczXXsoRkkCDOlzxVEx0spph/SxOzZqyT6FTgMkOURZGunQui8I6gq5l3FD4y16ZU9aCN3x4dd54b6F73SLXvi0WLBgsjzP2oMY6iWWiT5DGemzk8nTGRdbwQ0f5Gvv9/e603mNUBCKvECPbfMUq5eqZCVdGPQ5F1lWTBUjQU71rkBDP4RtpJKKne+SZG5fWVU+0KzFimtmHavmKnWZgvzof0dY+s5aQeGn4+CvBZl1l41D+v5q4Uq90w+tDLJ9JRc+VkLn3J31hqdUqfikb+xTqTzXro4GmjXqKkee0Fx12grUCtW50zK8XI41Rdd0ovYgsKrbubrS3q/tttEdlQ6WMr9KKF7po7z354vh7vgodEel48o3JZk4nbM40v1Nb18E8toXUgSqTo6UNphDF2vA/+VPDuJsuYBy3J4rdSN/YxXLVCve0iPvXFzHaKGFrz46jK89vQnDbIRqt+aFsxYqZwrpinl75YvqnrS2yKvWQIvA8tQqiMx0IiKmv4TgJCLqMMef2WmgQm5Z5/lCGZivAJfmy1YP1UE0mySlIknsDbLsKYr5nJ3Ll9HhYZRKGQwOwGRiBBhllVcfpH2HRZkVWINxkQvdcQpXV+7DiOpfHFnpLTlLhDtdU7iYOKTP02EpZu7PwZ31j01vF5K22X1H0N10qN1wdz15E2ercTSs8ilTKiyfSrWOSqWC+fl5LCws2BIllYtg5VMsYoiFMTBYxOjoAFhEGBnVvUQH2QBZvbvyX+5UJs69sDjG1wiXJAd6LBXoamOd0hlUKa1VplXpVJqnJitMbw3lcgU1GqguanCkXshKxq5JdnMRBkoDGBwaxMBAifUxzyMwMERqzKOIvIKPrM6uLmWyvToXa4l0fNPnavMStbKbF7t+UCzT6L1Ow6qhTniszAOXL5ZRLVdZt2toUhfVqk3MsY43OJJ25JV9LA9ZlrfeBckXCiiWSlbmg6zvRY6DhljPB6mDWlR9rCqOvEoUkI/Mclm23L0VoF96V+Kl6rMrU8H5stidTLx4dHR6Gr22bncE8toXrtJpvkAdwzzl716cwl89fwJzGEIj25lZcI+tkiplJNaj+7yZyWO4OY8ndg7hH31+Avdva6Bcb6KQL7Zt6ph2dbvDV8zbK0+UahFXL9TSmtZqJS/y2Syem8po0FhUVrbOT9dx9nwZH16q4MJcC1OXapibyaBWLqJe5YCLlqczdTTpRoRHH7owesbeRqrSRJc8lkiU8iSz+XyeRLaCTaMxdo2XsGskwl1b8tjJzmSgQGLMaCg2Kh96SZE/Ik9eYTvTbsi25MZAkzxKl4FHt8zBDwB03bt3h64U5zR5VZloWODvuftpyIavrw7KA587Ki/lTYyLl8s4f7aCk8cWcPlCE+W5CHNzZRLWMhpG4mJ20N43xoGRNx/YyYvQRVEGo2MlEtc8xjcXsHPXALbtKGGztuHIVJHLy52GGMmAIomU/LAY288aIvHfkVcH5c4sB0pnT8/i/LkKLl6oYX6mhQXWy7lZvfjapJDMNLXsSvXOR0rplU6lT/zXzHIul7e6KPI6MpbH0EiMiS1Z7Nk3gfFNBUxMDHYnyUdimXTq1jK3Vw8fZj+sOCC1YtUx7aLS22b6wdetJADFYbl4LIWVZob8lr0kjHRQ5jzxY2G2hWOHJ3H+/CSJ6zTKLO/yPGWhgbhBS80ITdVz1nFreZqeVaHzKD+t12W5l8hahzhCGxhsYWCsYfV7x84JyqgR2kzENmzTunKl9sU8c9P/DjJO4tQ+XgXkjSQN053mPz3WsW9x+fYvCzr2wDx26bb4xylP5G0S53TYMkqMA4hAXvtCWeKqSY317tAk8N/8xes41xzHHElAHKlzcNCjrP5VqmOuDxM06dHewTn888/txlP3FlFifa3HFWTZUN1MRdrFMuhELeBWRlerZCcfkxSyrsi43IpQYx24tAAcPE45eRnHLlzGhZk5tCokAI0c6yXrVFxg3dNAK08fIizkRNucIlXH4TmDuo32o1gjte6oOxEJb9SqYYC6dYjVfoR96+bRQezZMYEnHsth8ya3Zlu7aQxQNNtXqVVQKqgTJlj3O+RE0Hn6OoFPb59b1wJmm5F1zdoYJ9J5EoaC1Ll1RAn8uR0p1tSTKCv3mCOJQTcS622oK7Kn4szuJsM+fbKJg+8ex9GjF0hUY1TKDRI45nycZ/7IdhKI0D64k84d/tJPm9HhICabbdoMud4d3bl7K+65bzsefHTA0mvLE+hC5zpx7tcYTFutzvpBUm1rIXh99hTw1puncPbsJCYvz6FcZq5xlNPyn0tVzVPmUkRg3OyU4ucjqR+aprolV31YL7PM/0wN+UKDpCZCoZjBnfsP4N77d2PXHtqj9/qctlAXt0kVVXIw6Dx9fVXoRM9BHjL9qmdpWDhXCMzqJe1kcgtMn1qTIn4lqB3LY4p4r49Pb7yuBHmhYvFIn6ehAVWiJFqNZMChS4bdrAInji7g/YNHcOHcHOamqKPKenrQQE52mEClMcM6ILHlH/yTDmp5fzx59eUuY3+PdSXKx1bXNfM+PlHCAw/fjX13TiCrL9gozsoOOm01qYPySSLkdg1g8UqO5jMHXeLNVsGU93o065WKVyCyradkrK/OpUdyLjcRdbS6/miA1969rp0t3zY8LCvWKlG3AAJ57QdlSV0zNDk02Qf/8c9m8Y1fHgaGd6IaZzhISmWZVVpXobypu9KvqjqJQSvGcC6LJ3c28S9/c7sRAEOkkbZsOPIqLFs10yW1rMWADQ2VsxdWIVUx9YmSCs3OzQK/eG0Kv3zxfdSjcUzWIlRZv5qUoWaEYqzOT3VPWlDnbreGGuutarU81nrIRMVbVWrzS9V9HzbZgPEM/ok2FyOtsIzRrNeM0EbNy3jg3jF84ul9uJfkYYROfE3OtjQD67CIvFpPnVx6KDyP3nvXiA/ea+BnP3kJ1UpM/kTGn60zmXnrOC2Zknb4Iu+8sK/m5TE4mMGjj+/Dw0/ssLV4/aLmnbaPzOwa+yw93vzw8ALefP0DHHzvFDvyUXboBTRtlkVzTLTLnw55dYfu/CJkx074y7zzA2ZbO0h2XihoNquGLMnPpq0ZfOazT+O++wscRAA5FkiO+saX9ZqBcVLwIug5EsbLl4Aff/9dnDxWxtysZlZFUh1p1RMspclibRGhQ7106euawJvpdLtuKRFzq6MGR6pXIgWq0bAyHRmPsP/ACJ56+n7ccUcBeaa5QkKlZdq+YNMl53LvGuGjR1w4V8cLv3oFZ05fRE5ERK0gmQW0JPnA2n1F4tBAe8yjT31+D/bfM8KBgAabjr04WwlRdKepiCv9zAmm89UXjuDQO+eYrXKnlGqQ5WAhJsEpeB+yP9+6K4enP3U3hkdHkc13JmWWhI+DlBGL8dDbk3j+F2/h4tl51CpZ5KNBhlfgoImDK5VXS32c0kAqpjVLlgc2dLZfeSejTEJeLX6y4s6s/jitoo+kV1nPFxhPndewY9connzqAdz7yE6zq1F0s8phumaG1hCKiZIryGd9+h21Bi6cOI3nfvATFGc5oBK7NbRTwfTVyCD0MR137eDuD6hRsoJ+5J/9A7LxLeQbbCesCmw29hl4ywJlcArKs3Q9vt0RyGs/KEdqVA5UvpepHP7vX/8Qb57Psi8bsSbUSn/1yhqjq1A2iqTbiFkqeqAvb+nFrlyrjJ0DC/hffflePL07sa56aVqF4jR6wG2EdKOz2iMDV41YN1g5rFnSgNqStATTvDpyHvjVK6fwxuE5XF4Y420SSZIXrYnMaBbAT7NR1M3bmkfrREV0FIQIgyqe6ITrQAT96kqQOtCTArOvDoXGFlcS31g9JcMrqZNjHGMyl6FiDrlmBfu25/HRh7fjofs5xmNUJgryxynfLjKWdOoG81tkkbB2lCB1ei1oaBaG4b33BvCNv36W2TXC4CsMih2qyCtTbR0nE9gOUveyZaaPJCQuMh/m8MnP3IdPfG4HCpoUWwJ+jbwyqzwPnD0NvPA8ydzxS1iYi1EslkjyIhLKuhWvIyguny1/KJbPOu2TAW2TxI2DZsxjkjWmo9VAQzNienkuM4t779+OT3/uXmzZzpBy+qh0Kt/XCNVaCzOTGbz64km88fpxI6xxk/GLOegXUdHgJ5NDrDJPEtee4Sc6BFXgjdRNrYN1iXY12U5tPa8jsHKnj7g0m3VbJ5nN5jA0lMU99+7iYGMbNjPdN4S8Us6dAX7w3Z/j9KkpBkfyqYFPkt+u6qfS2A6ZR1sKJDqUwW/+zj7c9/AgBxodt8uDeUBvaxyL/eLHB/HGS6c4aNKTFrXkhLzyfjrEJLpW5y1GPG7eVceXfvthbNu+rTNt3QtZ1ttS0i8so5j1+/gHZbz43Fs4e+oyGvUci6bI9lXkbeqjSOtZGQ9PVpMKq/LWmfSL4uT1gpmldY39ujNFUubuWvqugTx1Tq1Brcjo6MnIlp3DJOCPkIgPYEAj6BVw8NVAzdX3+Cotm7uKW7h0+Bh++OdfxyhJQtGzW9ZJ54LZGdcxQN3orunIjyJ4rlK6XK/hC/+n/wOwa6+x4wrjTc2DIQpbjdlMw7UDl2cBLIt/QyTnAW2wkrExNXMZPHeUyuG9M1jAANgkrSG5F1sSWMejo13YQeTVvQUcccyoL2nN4DMPDuFzj42iaPYYgjlLHCZmS0GhXcFKwAaEr0XtsvUnUvrUzDHr1mQtg0NngR++NIXvv3Acb5+aQznWmzqjtgNAltpbM3cm1ulJ2bujJOkfeCpi44hiWgQ7pg0IfcbYOg3VdQk1tuIrUpGJsqjVGygMDGOh2iQhy2B6vopDR8/g/eOzqDcHMTyQI2FjK7B4mUuK2kQC+u1NXbD8tfDs4qoh/zy0Y4I6uMsXgEPvnyX5HuB9xUbxELMReWD+JUcTnmfsBTnNvJLi0/3eO7di712DfceYim6Twwv50WAHdJ5l9cpLZ/HLZw/ams+YnXqLfukpjsi0mzV1usF5qGseraDcsa0X+ojr8Cl20HUW9VqDhFhrBUtoNuRvhPPnLuLDD06hvFDAQHHEXnrxea053xa1mStRmcl0ecimnhwrePGYmRngnTcu4zt/8xKOHplEsz5AYhGh3tCaXaYkypNYMD9FSiwYOXbilg2kOnQTXlo0eJ7Ey8MnuWMpJbwZs71kMwXUqg0SyPM4RUKVzQySzBZtttx2zUjBu14rzHFkeejgSVTLEQnkAJMjyVNUp1gedlSd8sdE9OJv7M4P3DeOzduUZ7xeEZR2fXo8i2MfTuL08TmWAQdkzRyFed5kX5VInIidx8l1ciwNNnH3/VsxPDquitE/c7R1gGZ1GxmcODyLX/3sPbzy/GHMXG6gWaO/qnNMZ44DCD1t0ISNGyx5z7zITLpKl/zpFdmxo5BcEwzBnbFaaDwsyXJQ1Kyzn2WelmfmcPTgYVSmZjHGuj6QZduWP2rOcuO9TNBzeUX42ih3lio7yWD+9AWcfPsQBuaoCzmQ1yfiTRhBHfNsKMVGHZHaJs0iDvy9ZJtVRIUMdn/qk8DomAWiBzIKSzVAae6F0wyrjf2ti0Be+0HKtFHFyUYe3363jCPnpjkwimybK9WddvtaBFe58laBVf3yGIga2Faq4Pc/uQO7R0Rl3RyN2ZQ/vX6lW0oPlgw2YEPCF7+qm/XwRlrdKL/K05PsFH/0QhU/fn4ebx5p4WJtFAskrFq/GlFZatZVa8S610w69dYRR9ckRlZSNx1BpZmmElLXTXY+7XsU1VPvLCKbk28ZHjULovi2SBAa2TzKGMSFuQI+ODaHi2c5+KtnsHlCAzin0B1h40FQeO3TJIA1gvdXR3l7/mwd7717jMSqwGx2LTBmj6Yst9kgif9jD6IZLLun6ZBMneR1E/bdPWTXfgbTRzemWRNV3ivgtVfOkLR+gIPvXkRlfoAekEywU9fjc0dY1Zs6stxeO2uZK9+kD7T+Xf4vJ8ot/fnBCo8kDZmMwtJt5bMIwgCJax5nTlVJ3gcwNFLE2Gats1fqa+x7RbhdTnVqiINPWy90X2Ec+bCGX/70BF576TJmpkWah2zbK5tP0lQYxZ5CJbAZVqtjHPgofppBtfWAzkzi65q75lFw2ZKcJmYy0ExukmfZrPJX+cBylXPmrWa+Txy/YDscjIwOYXBEgyhzbEh5uyaYnwU+OHwWk5eqTOYQKwXJk+LI+OhRuRPWK38uImnXHbMD941hy/YCB6SqFwlSSV4MZ6jsOnL4Ms6eWmDul1iueQoHXXZcLBm2U9UVE54PjjZxz/3bWD+GezKGHqvNMm9jDo5mJ5t45cXjePEXx3Ds0BxadRHvHMOUvwpP9VcRZk1S2nnHPPP1m+LqhM51W9e0nYizw6PBDEzs18rV3fR1X2c5/mXpOM+6F1VjzJ6+hMsnzyNbAzZt2eR2bHNJMKiGMlSK4H5XgnQxJF4ZamcmcYrkNb9AdqCRnek4zYi7vPNEVZFw2oV11HZo0faDZRvL7Pr0Z1lJSV4J+a166lLnQ+3ApX3l8b7VkS6LgDa0WiWPs5eBcxen0FRHZ6ZpFd8fqlpqbNqLsdmoIFufwlOP7seenRyNOytXDYXsJWBjw+qJxBemlDf7LV3OsFU+ewT4t9/6AL944wxOXqiQeGWRo04ssc/PJ8+wrrU+XTWMJS2N+WaE549P4a9evIA/+fk8jlUiNLQQ0SKs3qTGdIpEyp/rmQo3UHRE3OWtPy6Htl1/3r7W+k1/7mKuGdV6ZRjf+Ms38Ktnj+M4iXu9JnvqnCW0Y+EncUgL3V8NFvnjRfcSsXTbsYUTJ0/ge99+FR++z0EE46RH+S0UzU5sb7j3j0naP4n2CX7l5Un87Tdexjtvn8T8gl4wyrBu1i0cb89D5zJPF7G/n7bXF3LjpQvyr+Pa0xEbjPhz/lYqTbzx2gf4+U/ew4Wz3u4Kwr0qeF97IpwQc7c+1+W2iRF3CVlWlpnKcxE/LX3oimDf9KeQ2HWEJl3XmAMMs68YgUqJzQCTuHZljuLJCw4MyLFw6WwOP/jOW3jl+ROYmaqjSbK4JHjLedWpDx1R3CS95t2ShplZungiHZlkSKoKGLIkwxpYT126jFd++Tze+9UbVERMCbNY6kopcqTw6iB3/ciSLSHojbQM2hH09TJlTXWiDfps+rR9N2CFCOS1D1S1tKvAqYtzOHNpms2dnZE1nARL1DPVV22joQqpx42ZTBUD2Vl87OEC9FJkBx0PVlplZc9LwC0E6S5KkyIaMUf5xnMX8D/+zYt4/1wLl6sDqEdDbKl5m2XINUVi1V11akNbud8UKOBEXA+DmHGtlyZwhqTuh69P4v/1J2/ilwdjzKthaSbHYh+16ev1gve7k1MJVpJXiZ20O0eMnJmOoiRnT7fw13/xCg6+PYNL57No1EgKY5FD7zLJm6XgI5cO6CqRZH9b4pZmOjOo1mo4d7aCv/n6izj4zixvaHZPH5ZIZn9T8Gnz6WxHjT8/+/EH+OH3X8HkJVL2aNjWmuqe3/Iqjba75Nh9tz+8vV5pR9EIQdcdopNgT14lmSzjFg/i6Acz+MkPDqFMEua98S6vGT5oC1GHJAQGYLHwRxNX6710apBIrNata1BB97rlI5g+XwLOShKuXdFfI0cJUUxstK8TMx3NXNN/Wt+tS8GM2XlpuQMV0rmTMf7267/iwGcK9bJbB67tHZOEL0Liq/NOVnokfT8tvXbS6LJHpKy2oWUzNb0lSWLdWKji5Z8/h+//T98EFppujCBLRrp7Xa4M/VxZFi4CDXnDlXESHv87VtOO0r7STW8AAcsikFfCVzMPNf1GPovjF2cxxRF8nY3ZPWbkHXs8wH+dmo5QzXSitxAldkmllI+q+MhD27CVzJUqyoXB+77Sy3nA7QlVAZG3Ov+qqKFKxXrwEvDffHcW3//VJOvLPtSym1HPDVFI9LTmVEpRj6HZbKXo1NnpRYeVwr7S1Ef0l8ZS93hpP1oy0BZdk5BK9JKG3CiGuQZT14zRiAZxemYn/sdvn8TXX2jgKBvCPPL2xTqblbOWwZaQtIn1DJFB32Z1PPzBAr7/vZdx/FgZzfoY0z2KfG7A9ql0BIIZRt1hL9FQKajdp4WmSZ45Sd+7GlhpyR/vJ8tHxFLEqJgfwsVzVfztX7+OV1+cRLWqJRAiIcnb7W0k5IZ6SqpOfEDreP/9nx3By786TwIzZnuvxi2ts3UvC9qXvqwuKA4Unri64+Lk60XbXNJTd9w9nxfOnhf701Fi7hK3PHdwIUkcbdBMLNPUGkTcHMWHh2bwl3/2EqYmXUplcy1hIavc+hwVQ8Z2UZpMEsLaETlMZKV1gHZdfyMo5S7s5ZC2w1jQWVL+NGtoiwpW3eYC8MqvzuIv//R7mLpQQykaR6vOcq/RhdmXLw4+/u6c6fVEvAcy071+slJI3/nwnDD+MqPkc1pG0EKeZgUO8C98eAIvfvcnaF6c1xbITFTSJleJK7qghU6WuxpoBCFl2h/L+bz6eN5uuG3Jq6qVlw7clcbD5K04duYSz7VizzVWrxq7HamSeXE+6jeTjTE4kMHdd4xhk9qXmTvlwhan34DbCF1VhlANUKemPX5nagW8cryFr//sLF5+fxqV+jAaNdeh2BqpbJXktYEGCWyDHbZEL3O5mRT/wPYGwqo5UyBxNTp1lHFS19nJRc0iGo0SZsuD+PFLZ/G3P6vgyBwwQ90umsvUJP45t9cV7eim49wjOigy7fiYgaHe0LvAmkHTmso6fvXsezh+dBqNql66kVvNorGX1HrSDLWIrf3TOtdrgULrxGE1cKTAJaRBElsoDKA8H+HZn7yLDw+WUa3wrsWxAysKDcAlLCO9jPSrnx/F+++eRZPliJZedGPdlDsRcv65dafdcfSxNqGn/nwpdNmXyI0XXttvu871g7lypwa2D8ZR60o1y3z0g3k894uTmJ5xdwU3WyzxRENytVBOLI7FUjA7VwpO8bM4Lo3OXRf+StPQiSfrqdVbZ5ArFFBl3/fy8xfx/C/eYUkPmZfNuMIyTtZJL1kGPVBUFgndXkH421P2/SHv+kFVMUcCm6vHOPf2Ibz90+fQOj9FwxwHXNrpenUa0+LjTvsGutgoGUS4C3e/yxOh6yLgKtCtuW4TqDL1SvpMqmyK/dTZSzMkoZqdkLJmdbuCIlF99G1QvmzbMop9O4foWovpk09parQYKu5thb61hnXJK+f3jgN/9dwUXjhcw0y5AL0xrAfPORKhTEb7ki6gFdVIYJsQpxV5bVI5NzlA0rq1ta5OV1btUhsSBeylA7kW0c7EORQaReSaHP5Fg5gub8YLr8/gBz+v4cJlZ9c9iBcRcu6uFPK1wGZq9Kejicx6xGz6WLgrDy3b1VD25NkyfvyDl3Hk0BTy0Sa6o44QAdAWW7aPrE3zUKQ33CCkCyx7t2VZPyTE0XQNwzeSmMhVQWlQqmOSzBaibAkLsyU8//NzOHtK4Thb/VBlUn76w+M49N4FxI2EtFqcdEyV/3KF5q3QjkvTUpDFFHouHXyYQl8LfcA2wmAL0U68+eoFvPHalH2mVnDRkT8qi2slsCuNz/WAwr7K8KU/shzFJM41Pnvz1fN47YWTqC+UUC2zzmirtYh2svO0p8VNK4ePmRP+iZyuRBI3V6pbtNoF0UYrReqcEuvpwFwdp1/nIPP1d5k41ncO6FTSap1LtcDrgautVQFL42o14i0Dr65U6dlE7Vy67Z3TevFkEzsrEQnNECWPq3iPrcuaiBPNxDjRVZP3ajnNvMzg/i0Rdo4pi/O8o7+0u450od1qO/BGfW4FrHP40rVySy6k/ivUunPUnn/zKvDvf3IOJ04ukKyW2MnmkM3lONQhORVJ8NvqmELXshQ65nmc0TpsnYq8arZP6tjVNdnXNj0R3edIeiK5iVk/qdCtw2Y9FpFoNhsmevzrXjCsU1h3eZ3RRwZIsBzBTjoT+qVHhmoL7fZAxieRBbcvrDMzyhbV0ciVEZdaqGdFvqsok+O9efACvvvTSzg1Bw7r9FlT2aUk+WNJTMnqoW5Juaw2ST/ME++TAhOW8Fltm4MCSxdb/vz8vG1fJNuZ1hBOnc3h+995AyeOz9Jk0Pa4jJslhlFicEyLtjFrDtFuge71Vr2Lh0Rv2tsG+5Rmo2ovdEYMSy+Y51h09nSmSYkZxziiH9pFgDd8lFcNOaSI+NqXmwYYT/qZzePCxVk894sjmJ9yOeFFuyfkmHZtOP933/kQB987bV8C06NZLYVwLwPRrpU5Iy7R43teKu9kR7rQpZn1lWbZSHVT+9vWmTbdp2WmsalttWxgwzqqCWrlleVXQi3ol4nyknlrW5hZLqmeufguhkXEztxLScxPnms/2DqbyRsvn8bxI460Wz4bXMqX8rEvvNPk6ElXLywc/vSKambvn/5NBHllecy0ptz1QlZSSe6Klmu7KfRc677tcKI10FIdrJqvv3QJLz1/BDPT7kMeagMZbfXWLNCKdilgOtU+2mXs8s387YqeUhRTh2lvVnd0y25UfxSRLst07//cLZefMu+RlDOdetFdxU3LMeRWVa4YZzl45vlcDe8/9yom3/mAaoY6UXYtfouxlFl/c6YlGYT6lzMFF0fe5XVDZNkKyfujvJIO0FXiIOCqoCp7W6K32qgq+aZY58XBkw2q21EqTTYI1krRVv05uGqoBpCGGqW+vqUZsdGhDO7ZlrcNh11o6RCd2173y8H70OtTwPqHlVdS1K7mADW2vOcOzuE7z53AoTNS8CUSmaINk0QubVmAMTqRGK0ilVLmlSl1+uhn40xj+q5QHbtE9rPIkREU9PnhZhONShkl9v2FLGlxXGadrpAw1ZEnWYhaVfsMbCnXwkCe7hhQNpa4ML0ydhc89dI5SY4d0a/IQyOqUYGrLemNdIlI+RDePbaAr/9wEucrwCy9jVsLDEHpsJAWyeogFyJA3iWPXZ74OPfzmWZGmmQni/HxCdpWfjKeJHrf+dbrOHl8nndGaLVIUhSRlKkcWFb28kuR2aStksTG5L/i4cJz3aXavdaKStPoE7ELqElqC2iQzOpt8GzEEEkIXZ/n3CSFsCrYoMLCpiQDIct/Rkl7fB4/OoNf/nya52bdoI3NFmpNfP+7R/DuW+dpV+tbVacUC+WL4p3ExbzWj7SjxNU7161IZJN/6uDpzjiuuXd+GLFVuuzbvRQbgPWEQR9t6yWLf1L3rwjZoXsrR9cyRF5F0qYuNfH2myfA5sB4OdsuLC+rQCoqbnsoC+6KsJD4Y+Hr6K91Mw3LX3e6PGjJyiHxMEGvU/OOt9PmeQ7MivkBG+udPdHCi786jMqctFCegwvWVX1koikCmwjdWN8lf6ws1NYTH5O8du1Yok/6ONF1zPJwAwp/TrvOIzr2Ijh/vXgrZq0Hi6qD2VMtZH3kub4nVKQea03P47UfPQuc0+deTKvSqjyk+IJIft2Zg79um/W5UIv28Gf+2GS5iMS2nVgifP2WrY7bgNXBtbjbDL7KdMQ1NlUpjYnqPDl77ryr/BSz0659S8M32ohKcvPIEPbuGnAZbG7lS8DtBit1dd76ZqhOKTJ75UPg3z9/Budnm8jlc9CG7mZ3iWri6iJVMolSjvUrT9KUaxZY14r0VJvg66UudhPU1jHJoi0xiPUiWIVcuInBojZ1uoSh3CS2DJSxbaSGbcM1bOVxC4+jxQqKmENUn6c0E//z9F+kxM20qONpkvBq/W0zNau1GmQ0A1yvock0P//uUXzzJ5OYZcdZb7AzYafT7tTXGsxXmzVaJCKJaUkXQAa1Ksk3lYJeznztVe3lucAIFhxhVes2gqQZwxqlSiMdEzboCW1bNBhhGXJAUSoVMDhUQMk+5qBvtkcYGtE1ndtXwBhOhgzL/JVWkp9XkzFyI6H7hByKTOqDCXWO0t9+632cPyd7Dnor/7mfn8RrL3/AaisCLiR++I438cfMxB4sbaqHyeyznWvf2RwJEEM2EsQ6W8hhYDDHNGaY9gyGR3MYHGY9y8tvtRF6qTy1fPNCvxWePV0QwVU9bNMOQuW1RKMR5DVFdjXz1+Kg7INDZ/HhYQ7iFG3LV7lXeV7Br34w6/L9KtyuGRjuIha3Mmjf42qtgibL/Xvf+RVmJqs2e6m6p6cCVuRdUDjKK9Vl1Q8tcOoMblrUDTF1hKQVUY+USIMHWfYDEQqUPOt7gZIvkSBrIp12pK9MWM4itSJ7GrzHbI/yu1M23XBhEqlbOlWc9d0ELbHS51a1F3aJunPu2Fm8+cOfs5KrPfXz8TqCgS3KyoBrwu37eVifaqtUmhHS1j1Z1Gh+dAr4v/7ZaUyWpXStOVA0Suw487rCHuslaCSdTIlZ+rF9wH/8G7uxqZjn6K9uHVYqyBS8/wG3LOzRkitnbRf1/lngL356DK+frKCU28Rap0fMbibAmqP+1UEv7jk6Fc/8Y/3U41ydqWM262UUcqyDHHUN52KMF7PYNjaIYXYgW7cNY4iESfuRK0YiZILeKq+y6s6TRc7PNXD+/DzKCy0sLDQwWathusYOrpFHJjdI4prj4E6ESrMv7jFuJ5q98dU146WzRM3kG+wQ6Wc0XkCtOY+BVhVf/tgOfPmpcRJos85O06UuiZ6d+1RfCRaWERJ9Qcp6R7zzeg3f+uvnSaI28VpEiD5bdORrp/06qAwUsiNuuUINn/j0I9i+O48f//BVXDxfR42j23yeeaGeMYmZbQCWkDp7k1z5Qt2gD0lo4JJhJ60vf46O5jE8nMPoWIkEjjJYgvb31Cy57JerFczNzWFuvoz5+RpmZ6tYYKWplvWYnb5mmCbpJKsHLk+7YPqqA7ORUvGufjkx3UWS8sgTw/jyVx+GNkk4fLCC73/nNVy+UKPO4uBbhZGgix/ZTKPIpc8D1WANPkhhWjUbMOVYDwcGsyTlLr35Qgbbt22zKEq0S4GiUq/XsUDWPDl5GRXq3CqJlB5bV8pazsIBlLFMkhktZ9Fj2K50Kw06ps0EFx8Z610FERgFxlKhV/PYs38E/+gPHmH+y67KzUOkbHU4f7yJH3zrTZw8MY1cho3L6h3rEPsDV5cUN5dHgq46sVV8Inzldw/ggcdG3fKJTpYb0l101+BKSWLUf/x3R/HKc2eQ4wDQlhUl91I2u6By9Na27szis198BO+9cwZvv3ncvkLXaKjsFA0XEfNHDsyRrlQWmknnOa1YebPuZ6MYA8NZ+yhEaaDIsspi9+47aM+1Be9WaWgyjIW5BZbzLMqVKspzrOdzFRtQZWzJjJYs0A0j61z5GDtI52hWU2nJtyooxFUUWmUOuqsc3GvhX53HBkqsW7lY38aso8qBYLmUwRf/xT/A8KP3suoyLOddgu4roZ1swnJDxekihMlXD+IXf/FtFKZr9qEEtnYLR8sCdK56p/LQ+y562hK1ZK4PhFTR4oCuXhrCk//qPwd27aSHsmivr3rvCQXWgavRi+N4u+I2J6/8sQ6nyT99/SoLfYn4O8/P4K9emMS8OmyrK/px5NVDznXdS15V/UbYmL/82Bj+yafHUMjocYtZTGz1QuZL3Qu4lSDO9+E08Me/WsA7x6ZRrhdsTao61DaS1tifvLoO0R1Jltix6/OI2Zh1TJ0Ja/Dg0Cz27x7Efbs3Y99EDvvGgO0jdKL+1PGxNkRaBTeTpZrvXspR980+xfbz/HC2gffOLuDI0RjT80W2iRzKzcv0T2sT9SZyMmPcRlrhqn2JDHbSkaOS18cWynlSzEhb5QPb8hfwu5+5E599ZNDW56pPlJ9yJdF5dxhLw7lRmxZ5dV86eueNhiOv9Ql6pHvpOHbabwfeLEYu38D+u3YiKjbw/sEzqFf1uVf1MzkSKx8zdVyug1L56NF4xHQXCnnUGxygDET0Yzvu2DuBbTuKGBsXoRNxk1060deO6EMyDjEolnMcSFy8UMbU5QzOnKjiw0PnjNTlIj3Kj41AaCaxkzk8SXticDniykCiA9NncVdJN5ArncfXfvcz2LSliB997yAOvzerfpRESgPuDlXs6D+etEQwXD7ZV8sokT4PpJlRDkj27NmCvXduxg7Wxc3bSF7HRc7ZobMSuhnv7qjqtMGOfXaqyUFUBiePzeHUiRmcPjlN8q7ZwDwqJDnasjAbqZ4ybIUvh4k/bh2uu/BNR0eZKP1ab2trIhWPaAG/9bv34rEnSKbNpnJcjpQniYcrxM0krxqA/vh7R/GqkVfG3sp1eagcvY/jmzK47/4dePPVkxwsSee4WVTlo6Ih3ZTOS5+GBomhxhR6Lt9sLWD7jgmW9y7s3jeC0c01+2KXniZFuYKzJ2dy75uePOd5jQOVhfk66/gcpi4t4NzpKZb9eSxwIK1BfZQpst1qoNyhbToqLr3ktRiXqVsqFJJptq2IpLXYZP1ukFzyPEOdUMnH2PTYPfjI3/9NxFuHGUZ6sELPkrQakktvZMWi+FsEHHl91shr3X0elnXIyKuRVNY1lr1y05PZNnkF6zHLql4axpP/+l8F8nqVuD0/D+uVgW/FbAmqer5q/O2vjuDEtNYdOkVrJKK3zti1Zi/cURJR86iCDkez+Nzj+3HPRIH3WQEl5qDXE2Ep84BbA+oUXRlf4O9f//wiXv9wCvUayYpm0nrJRlId2jMNPFd/1LFFBZeNULVejkSTpGEws4CxwjSefmQCv/30dnzy/mE8uj+LneRqw2SH+tS319FWU/njaqwPjn/sQG1rqySsEt2NDGawaTOJ194SHrhnABPjTcb7PKoLc2iRxCKTkIguJPH26ETc3WHnaC+bicTwkilBpVzFpaky7tq9CZv01NnsdZzqmPJmBZAPanOOiFw4F+P9906RvOiZvO6l45j22YXk5mM4OMjqTesspqamcfnyDBr6dnxc4l36a154f5h/Mdu6HnOzrTebC+ywy8jkFvDwY7vx6c/fgwcf3Yq7DpQwThJXKGnFHa0yL7SvaaS8p4Erc9FFRxjzJI8jY0Vs21bAnn2D2LN/KwrFLAntLGrVpF7JozZ03WVAOD+dDtK57lOMeEoYd9bB+fkG5ucyeOet46wfepTvnhRJLzqS6Ow6NzLTS1Qsf9NvVVTrl5AvVbBzzyA+84X78cgTO3H/g0PYsSOPwcEoIY1MJ8lOlm5cPVNOS5LaznCLxTyGR3LYspXp3TeBfXeOI58v4uLFGWsrzSbLxco1iYfFi3AZ6I462G9i5E475xkObDIVluklPPTwfttFQtTZiaszq8H8NAd571/AzEyFafONLZ3nQjomadCMabjngU3YyoGNBg3LBd9FXgm15aMfTOHsyXkOYpkj6tNSsEsF4S4d2hct1iO2vQuTJFMaENEz7TygAWk8yLQoPKUjcaIfkxh1EtZsoY6JzSU8+fR9eOxJku9H2H53ljA4NsABEfvCPP3haNR1s/qzVmXXVlxMa0Q9UxqOMEY323eOYs/ebdi3fzfbXRNTM+fpkK2hqQJSwK7UfXds7wXQIMs+N0c9mBM5pOiTrKUGB8YklJqn909F1Be3mEnz1QoGt45jdM+2xEcPF0Yb/S6VCJ1QKmcv4fg7h+zTtBp0u7qsFFoqE5G5qwcuLhrAabDHds6Kt+vTn6ai1YBHHiimbe+dWQpqJ/oLcLg9yauBFcO3bFZoU9I8n+Lvt5/9AFP1IVZ0P2R06KpKSSeYVia5iAq9WcV4fhpffmYvNptzVUrdTcJahKXMAzY8rMI0oa+/VNkrffOFefz87fOYqw9SJ7Mjp7lttN63+J2yc/u5kkjQjjqXKJtHQ0qOPUuuVUUJs7hrWwa//+UD+PjDBewbBTaToxVY99wb7PSJP3IvutMLX/v8zIbndnocKYJRKDAMkrDNAxF27izgngNj2DKyBZPnp1CpN+ivXFlCDV5hG9onHRsirlqiow5ej9VaLXaWuQFMzjQQVy7g3gNbMCheTBvejc5TXq0AcqluwLXfC2c9edXOBmlCIaR9Vuzd0dnTi3QxGo2YnbziWuQdETazRKiT0iX/7DGn3NVI/KrYdccwvvLbn8Qjj2+xmceBYiccc8N8E3EVgXV+pKFZL5W7ylyXmm0ERsfBzn0Iu3dvx8y0lhdM2QysbFt9Ehvo9ojwaeXR7iWhGXl15zE7+VqlhaMfiizkbRAuV+Iymil1tUh+e88VOxIKLRshcc1kFzA82sAzn7wfn/rs/di1p4TRCWpUViAfupxK3EyU+Z6IoMf6TCtHaWoOeYomV0ssrolNOey+YxS7d+0mgb2EuXl9g05kxsVJPpgOTvy3k/avO/pzs8NDvVlmOC0ORthWtmzHdhLsTlyugbxOa4b4Ksgr03Ft5HUaZ0/ML+5qKArdX7bhL3hTgwG9y6a1yRo2ZfS5WhuYDDAubr21lZh5wh+SQG3bl8nP46PPPIBf+41Hse/uEYxwkOvGsgpRbtSnUvfZmX75ZxF0ogGTS4vsK1zaod9aCzu8hQNmDtQOHLgLDUbs4oUZ1m+nV7zoRT8N6qUfNWHURV55XqT+yku/SOvRX8VJBFZhNRo11HItbL17D8mznv3IR8EfE/S7VHR1QlkNedW5qGkXec31kldnM/HemaVgeia5E+A0wO0FXx+sNXro0a3DxTJwYVYvXngT58B+2WD849zuapWAFTLLzm4oH2NCa6lILjSbEFPZ6oWagNsI7QqSxQIHQa+eBH768iHMNwdQi4ZQLxRQo7K39376QjMFeklFZ1SwxRLm9ZiYRG+QBHaoModt+XP42ue24X/9T/fj0TuArfRLOwqkq5omA1XVHRFJhD9pMUPFg6IOgarV3JEPEXn+DYpqYoxX+1ivv/go8L/5X+7D4/tbGMpeJMG7THcL5EN6bKbHY1LQyoAkEzxJS0RTOi7cHG0Po94aQiM/jp9+WMWvTgNTJBfsXthunA/trFwVlCAFIvhEeumGhUHj3icsyjP3HfcciRg7c80cJrFynZGOSmsDebZ5zVplcxU8+Mgd+MpXn8LeO7PIFdVhdeUGr5aKja6ki+TCKCkK7BXzkdbY6rE8a8JgC7vvivEP/mA/nvn0NgwOlZmXjAOJdRYctajDVj2xx9WC89PtBCCCy2tNqVl5M0Y8aka0UlHnrmVSIquqNDyyEnRSSj+YSU5oQ/EqMNyogvFNEb769z6Jz3x2D7ZuYY0puM5aREFHxaAjioeIvhfNwGvGX7tjuKgp5rLrie7QEEjuwDQ/hqc/cSevI+aHbMh/l9b2Egql28SF66F0u7rHcNiG0BpAo5bHa68eRE0TroxHo6kXH5Ux1xcuHzpInxt8RdHRn/ciMVdZqBgtN/jTYPT1qWkv/WDV3Nww9zlKiKKie2qo8qd+shdDI3aE0SyrwLy1axWMtruqthbQjKbxld99Ap/8/J0Y0DJyr3MUnoUpg1T5Wr2SqP3TitlRAlJCop8loURkLJr6DhjfncPnvnw/Pv/lxzEwSt3CNhblWFvYHjIZ1nuRZNV3E1fflSYFUOfIvarBE+Pt2rbyR6XbxCa2l+qx4ygfolLW29kWoEXKHbysEdJlZJBBO+1J+G2zgJXi+rfU9QrXghykkHlQNZqaZ6NnY/bqN12l3LGfqZNYL6NQgW4ZG7bZg42OdCoDlkc7rxZlWoSzU8BPXjiNheow/FeKjAyII1BpucGQ++t4wApkWy7Jkl7YqaJIB9naHIYbl/CxvSX8i68+js9/ZEyUxboLX+WcGu/4JFinkZynkQ7R7MqSgk7iJQORCxEqURkNw4ZIXHZNAP/R7+/F7/zafdizKYOS1nKRQMgTow2LApOBxBGSJDQaaZZPAzwS2fwW/M2P3sbluSKqsdtb1Xctie0VojdwH/aVYaVg5UH7zDQjPOaWMdB64/bb/2zrMrK76txnMTJex8c/dT8+98W7sHW7CB4pkTrjVcDH0tUFQTkgguylbjO7etHoo8/ciSc+SgIxSPJcIAHUy1WLMsrFsFsEWZTfFKbTlUoi5gd/LOm6L3uC3Lpa1oznSI4uYvfeQfy9330G99w7aLPAemFQBMFBHnVHqDcmvdKB/LJSaGOAaX7yY/vx8GPbURzQEw2ft50wFvvj4M1NrM6RrDYyuHB+GmfPVFFnlEWe+7m9XkiHda3heveW47ww8ed2pxuy792YJV4ZuTSyyWsSvE6d0AwqB9L5Mu66dyv+xR/+DgcTu5HRBI0RW9URhpK0Gyu1xE/z192iSJe4PweLoTs1M4ksJv6pqlEFPvDEGH79tz+BrbtGqA5raMQ1mzHWgKXjvht+VlZHywMT53e9uoDapUlUjnGkXNXLXdcXSpWC7kTVXyg+EqWjNy3p84B+cJrotoOqUwr2CE2PN4DLMzyLSqzobIRdFd9sppBUOtcqTbThtpr/lokxe2MaHG0KdtvONhaUH+qGQjNaHsofL4bkRPlHqoN3D+k7+NqYfhNa9QHktA0Vb+o73PrTjIBTrCmfWnohaJRHvW3dwHBuACOsXeOZOXzmoU34gy9sxVN7gRH6UbA3XN1Mi5T19YZiqEdgBTTwmUey+Ie/djcObJtgmtRxkYSSZMtOPyh61r1Z21EO+TQDjXqEyckMnntl0mZM1GFq0/x4Sd+uDxxx1zGZ+7OySYirfY1IW2Mp7rIkF00UBhbw5NN78cnPjmNYxWa3KrThidy1wOWaE81SDliwwyMtkuU9eODhXdAXkFrMq6Uht1JKicr39c3KQddO5K9Lv8yVZr2YxzS00yuLJHqFKgnMKH7raw9hC4m63k7XF8aaTLN7YW6t4MJrMHiR6s2bgac+sRP33LfDXohzMV4BfHIlzAO9AKaPNZTLTRz5ILVX2EZFkg0utxIk5Sn44xXh+z2eapmMPr6h+lDgYOH+h3bi17/8ODbtYFEXWY9sg2DLUINVjXQEdCst+qMlP3vvIAeqk5q69SLIAgtdt4rA3vsK+NxvPI5d+7aYWb3OIdLSj61cZNR+jYjznwHqVOdNOitls7h08ENgfl6WzYk/3DB06T8vASvFMqV/GyCpzF4x63R6ah6xZruYNe5R01Iimsrss5buRJ2dsHPLOLtwIrmWvxsF6SakXJEELA837EnlFjNQeagx/ZGLwMsHL2KuOUhlW6BqzpK8Nu2tYH2tijXJLFsd8RlP2EbeWn9Gw0ifWa1WMNKcxOefGMGXnhnGLnbimr8tkVxE7NXNfaqipbxaNRSnK/2p9uv5hGZ9H9sH/NanxnFgcwWlxhw5nt64dX4thm50hE0pEZcfrdYgXnt/Bm8fEWXyT0CuZgiVyoxrgMXL/vTInYNTEjqVmtKvDjGO51Akcf21Lz2Gj35ss71Z7Zq9BhRG03neiftKY+Xz2YXuju5cNcj5oyHC0CDwuS/swT33T1BlpT7cvyz6xUJmlPat5MQTdXuULDJfRTY/h7vvm8CnP3sfJjbZihaC9dR0onJHqXYll/jalqWge0pXR5I8ph+C6pPfQm3TRBaf+ewd2LN3kGWgXR5S/rezmif8NzOBJ21VnRi4HSMKOH1yDmxeV1XLVgbFIh0BXQsKTSK94c8Jf3sVSHupvGpLYrxSL60t2pE5Tx1l25llF3Dgvu349BcexCj1jnVuWhSv0YQcXCfQd0qSNxynbOZg/ZnPPYRNu4eRKbFuaFH+krBUJOLhfFT71HOdmbNnUL90mUZKiy+Dq4HCoKftsk2H6yYo3CDRhd+2k1p33pGAlUK5F2AVilWHMj2t7zdrfc5SlSpt1l35pAyz2Qibx4apwhPjNlRxNxbUnK+lSd8OMMVkv8opKUG7NJ1e5uUr75PAni+jkSPLYP3IccRvK6Blx5YEqIPWuevoHdyZCKwIk15GGMjM4tc/fic+98QEdozRLq8BfelJ268knXyqviXRuG5QUKIpAyRpI0z7w3uAv//FO7ClWGZcRduVH/3h88zEEu8PSkUJ52ZzeP29C5jXuyNG0Zb2a2mkMuMaoDi5P5fLFk92OvryXq26QOLawNMfvwf3PTCMnL37obLR433FXfrBhrGG1cRIduXaherDdj50tI5eheEghuF+6rO7MGr1wpf60qGZW1bQvpL47EIR5J+uI6a3gijfwNbteXzy0w9g2/bIlkeJ0jZR46/saZ2jSDbNO8XblpXD23ZHLcFwXEWkuIZxkuZPfOoeEmelWbb4l4Tn65b3QXAmTpwtisqxVcDsdIvi3a41fFjJMS0WYRejdOxWi7RL+eyPJrzhzVYGxcu51ktVzVYV23aO4GOfeBDDIq62PomKzayszuergdOsybMX1oGJHSSwn3kcxdHIPmzQTnhXKl38u8WfJvWiwcFltYrJE1r3Kn+cR23vVgMrW8GH5UVQATiN1/E9fZ/HRYQ3YCXwGur2hCkOiioPD/ps4uTUAhut5rRWX5EiEtc8yckWNizBHuFu4Pp4LcQ1ydm+cjXo54+X5dDPvpeVQTalPNtzAD1QAftmxAqUQHYvzgC/eu2IfZignmPnHlWo7yu0rcUE8pH0T7OvNgIXEt81A4kC/dBWaw3Wqwt46skCvvhpYLe+N6wvZ2VIJtiT1GXP1vDd2Iqm8LROVeRMRG6UZw/uAv7xV+/BjvE5tGLNGi+GpZBR7eSjfEqEHYge81Xp54en5nHsjLMn6rYu0OKwo6mvSImlZpHLk7Q/uhdPf3I78jTOkrTa505VH/QmvonyaC3j73LO+cjBMn+11ZPezn/8ybuMyOpmS3WqPbNzldDgKlZ6tU5bLzRVMTDUxOd//TESGqXSx0V/etWcgesrW5buawy7L3z7KvIsxt4DwJ79ZLFa3qCwVkymlEGKH1PAuGpv2fPnyu7WBoZP/epynWVodVZgK2QeWmukWUxdNTSawW999dPYtIO+2k4ChOrFDYNqmfShxRTRIHXgnQXc9yhHyzk9FZCpUuxT7cq1c90NWffJ0MWpdw4mX9yifUu7Cydg/UOlfHuhq06zmmo6PznV4GthQRthq3H6auxlBWjV7OtGYyQYCkbktT0oW6kfNwWdNOpX6+D14q66CtEsbV+/EpH6T8tCH+m1I+nnl5e0veX8WE5W6s6Hp1VQ2pBH6dfm68oUyxeKoHMvgpS9+yP08kKi23/50nFcXMiiTmbhPqeqNYQ6+jqnmZ80eRXki8zlVRWDmMY9W5r4jWe2ocBC0T6FmtfT2lI3q8fAkkqm3xspXVeM7wCj8wgJxRefvgtjuSryjL+6nRzjHalCMQdtPaUsW6ejnHMwM15pG61GpoDz0zHePVK32decTfesFs5HifvtJ0JyrsafzL4oal487NTewNfAlodMGbv25PGRp/Ylj809fG1QarrlapHQiURUdzoRa1q+AkMjwN33bMLmrSXETbZaGzmzXtnA/GpD17Ah797kb1UxPFbDJz9zD/bu17MDDea0JZIvQ6aZ4bi/NIG42rCFxe5dqcp3HslCPvLk3fYil+OtVjL8d8f0X3/QEdtfeSHGlN7UXVP4eCsMnftri2HqyF+1iXRlS6Pj7MqQV8mpYQkvZexFcDmkHE2GI6ajVN4N/PbvfgKb7jBrRLruMSRlelsSY0Hn/aQL/SwsJQ5W4xoczLN/ffCxA9i+awJN9rnS0Zol1noAN2iTTvSO/AmROpV5phVj5uRZYJaaXzNXMrbfDtIx6L13daAvVtYS+tyuG+mQhPR5QD/cvl/YMjhi4ivQPBX+//l/Poh3Lw/YXppeLfevSD7bOvdybEjbS3P4L/6Th8G+xJq6zbtYPU0IyyK4sG8eLAPcKePhHng6iMC9e3SBCkNsLGFky8B8SZy7Rz3906z8aIeSPl8CKh6LpbeYuOnrLrm3yA3RFa7OUjdT1lDJquwX8IkDwxgACViT5DPSxixuY5+0XUHhiFjo6yqab9Rs6Nlp4L/8H17Esep+1HO8m2uhRO4aMUu0NZHf79Q9WmU9zLiXrlzEi4xrk8RkEg9ureEffuYu3Lc3B22VVMlFVhIF88eF7cKnyK80D75J0HZzf/TNi3j9yBQahXFk66RcjKB9VctYBumN4qqIW85RaGx5wz+99phrzOC+O4bwL748jr1jJMBMl1yaC/OjP1x+qCPSJ59JNOMs3n29jm99/Tk065ql0z3XUTkfe/3iNcumF0aAmuoUsxzY1TA4Motf+8078MSTexmf7pruaNvScVw5XGo6kob8V2dNc+aH4lctZ/HLn53H8788joW5Ikm1ZkOVqe7JQZLhKwet62lSrVZhvSrjgcey+J3ff4ZlOYeCfflCrUFQamk58b6zQ8P1g4KSLMwC3/j3h3H4oJbRKEyVBO/o1OLhGoSLUwIbNMqCi7B2ifnYpyfwhS/fgQKLeLUxd1/Yehsnj0+xnurRiAZb8ltv7PNowViEdGKX7oU493RCM4tf+T19YWsM+qpZbwTSXXRX3aexJhp+8t1jeOW5s8jaV55op2PdYCGnzEzFJOftZSaaLZdNEVeWda5Yw+d+4x489ASZa169mJDUcss72XWX1xOKncSFyHamtakxdSd16XM/OY6Xf/4eSrzOk9QWmlVKE3l9VUv7vaJGPVNG1KpQtAtG1UT9dER/pOWbhQE888/+CfDo3bZ4WylMUteFtnnKQvsLW1NNm1jIUmd3Pg9L/7XvLOuALe2ye7rW52HLnS9s/at/DezaRQ+ZSrY19TGd8JP8TqA7a6NXbg3c5uSVlUOp11uLrBMLPP83f/I+3rnMSmzkVehUpW74bOvc00zTzoF5/N/+44cxSmN1keoGnQ3Z927SWMr/G4V0vEQc3LyJMEn5L/+HH+FCfYJNUs8jl4fptASuu+yXXoZC43SKl+1TadFi6I/OqMu9DHv9a9tPbixyxxu9bjzyHMUPkrr/Z7//FPaMZYwoNkg+1RXpQW3aXS9E2vUBwD//0Vn83fNnsJDfgybJsNiaPt9onQvrllOdWRnTPwZgL55IWSnyeSrYKkZZl37743fi849mUWKg+jpRlQpOdUpx8vBptHz1hXcTUWXc3jwC/On3j+PDy0Xk2fnFmjHWRuSWbqXAxVdwjypFXh2psHyJFzCYK+M//do+PLbXzeo6WzzeBPIqaB9R7aHabM3gyY/twa//5j7bg9SVesevfr5ePZI6kaTdQec+FBFYmrBXjdmJH3y7jB9+7xDOnGxgUG9zJW4dWUr7cWWoa1B1ykZaY0qC9bUHsH9/iR0syQBbQmfOtdvrG0Ne9ZcBeTUOvtPCv/+LF2jIwaDammCRsh8TV2eSOPWQV50/8HgBv/aV/Rgd9oR85Vg78qrPw1pF78JKyOurnrx2rLZhIafMlXR/2VkjbdMs/Ge7yc5j34HN+MrvPIHimK9/Sbg6mBPmc2J0w8Hw9UDsyHsL+NHfPId4jnplroohRqlAVphv1qk/68zV/uTVFlzF2o+amiJfwgO/9nmMfPWLzAK3PV+/ZCkXBD1YMwuUtSGv/3nq87CBvK4GSUu/XdGpJoKewOmLOjYTlJitDM4f+6Nm0JVrBN2Vb/3DpVtdu2Ku7WkqrSLO1EZwih3/stLoY1bffO1S6zlSTvZI2+4SYvYavW76xVcygeOXC7gwVcKJM7U2zXF1wtUKX2vSIri7btDz2vsXUI3GjExG7HAi2/HfEVbf6XsXHq5fYodHZZvLLuC+PYN49H52tD4Qkmo1WLPmvSDU/6ySl1xXaJb03t3Ag3dtw2CpCE3cN9irmgLXjAc7je746kIES+dKo84j1DMFvPLWKbeEUrduClzcnIiMkFSPNPDRj3ni6pAqjhuA/qGpnmzaOkCiOYhCUfXN6x/ZX30M9SRWX8nSt+sffnQ/9ux1M1N5DmRVSqv3cS3haoR2d9ixK4PxsSGmv1ffOn2mduts94AJkLbWG/Xz8wsol6/nnp/XN7f6pm9FULx83Fi/SV4LJeD+B/ejOE4jTeIkg7Z2KDe34C18jS937BzExOYBNJskpRy06LmYi5wr9eVzRfqIeogk9tzpU1RacnuzknazM3Rj4jYnr0JScZI6r6+I2PqZK0J2JMxCG8pKUWYwOjZhCr5LjS7Xhm46FHeloVMVNNA34a2ZuTIVF0+uJMkmo7Jr9nmt0XGveGaspz8Sf72UeHsm8iN9vpx/Sxy9u7Y/3kx2TLKISmOoF0Zwca6GmsqOWcMUGanSsZ/Ivb20yvNnX72EyQV29NlR3sySBLgBjY4SQbVFo3MdHVwg2qszzszy9AJ+/RM7McaOxPYMTopHa0h1KleO7K0/aPZnkITzsXtL2DmmdOv1GsXa5YNezHIpcCZuFkw5IdLqNuJXNtWaEV4/fB5zzFsVzY2Hj6PKvWXLNhrNWXzs6QO4Yw+rFG9rBbJkCXrUH53krxAuf5wIvkIkeWr1i3Hk7a3b9MnTIUR5xUlfIOJgfFVhdaBHtNXqAiY2FXDPfRMWvIt6Oi43Hi45Cp9nNpMObN82ynai9pQ0dIOLp4tvGqpnKjHeU96xjc5Tz9Vr16GWWd125bRY1gZJ8zHYqbIlJUmG9Uc7fjpV/V7Avfftwb3aes1lLYkiiWGyppQ/FB6T8G4aGP4go7jrjgkOsGK2TQ3yIytLRTNDJaT2YG3DC9MgsUGZ7mlAzUROX7rAtFJ53zAt068+eLOAlUI5dtvC2nSqvujb8U2OxJZr691IHCcH7fPq6Yj3Y6NVx3aeJKK1mXqhKEsld0UhafUiQpK+FyVHm5lOztPXS4m310/SfnqzXvfpe4qX3Dh3ejSdiKXPX4s6NcGuDJfnp4yTKx9SWdIXMtcXK2ep/14/dBn1pvagHOAN0k1mqh79+XphnQrPXE1JFCbD18y/iFChUMNHHr0DezbBlgvY/pbWC7lwnLsEzqAj6wIx4kYZ9+4D7tuVhfuIgqPdjjAk1hK0U2MZI5pLsaUWBZTjIbzwpuphYoe2ZT+VA9cVndbMNLVq2LR5EA88vNuVGjt7rXZdFXG9aqQzrV9hu2t13ANDETt0PZJOE7nVQz4Wijncd/9ejGoWLoFL8Y1JdS98aXhCqm/x64Wt7dvHkNPnRZeMVSq/erKuSeJSrdauD3k1XP+cSoeg5HlZGVTL6QPb3tjEIA7cu4cDeBobO5DP9MmI6zoD+ea2HRMoDeQR5aRbPFiOtixD5SnTjnTas4PeLaho4XRlgcYd81Uh0c3pcNJh9MfqSymgG+uwRt449FYxIxg06O1cl4b3gZI8srKv8nS59yH448aAYqsUuZeKsrYecTkR8Ytkry0iiKxgKdHepv7ceErqeiUi93qpx6Tn3rL+9XHjrhMyK1KbEFuR3EamjGpmBpfmztCyZQchxbd0xRDXEsk8ego4MUn6FRfpX0RnrA/0UyP/NtqnjEhb8Un5UujH8GCMTzy1G4PZKorZBZpqzwdGOImBpdXiI7e9cvOh2Y98sQR97v+JA0UMZ5vINiMOBCRJ++jJA5sJs7xwIj+0FrCGQbz27ikzdWl28DavPxQKE8L23WrVceddO7Fpi+Zr5hkXv9K1nZiVoSv9awUNDhyVHh0rsENnAFpTaXpJchW5RS/GRodx4J5d9jnadJxvTN5fCWwxrDMljhHHJopsgyTr7Tq0MkjnN5p1EtcmaiSva56udnx8GaRl7eCrlAWXhr+xBMy6J22sK9t3bsHeOwfTD+LWL3LA1u0TjGsTzZZ2vmBS1E4llt/98lzSgXYcqC7MAQvzvCX7Vwu6Vea3y3txWAFri41QRa8bFlUvNnLrWLuQroi9InTOVfUXKvo8ooOjF8tojnUNnwrNgzURZ/Q4OyXZBpqJNHSM3Lm/LwXiCZYXnyM62h8b+iJJ/bk40A2Vaz+/+on8aH9ulddt+4uupeA0c6YOj0dKnBxt9rhVwuWZAvx2+44WJMrNebVY6NWHJxcwVdU6T30mVS/yONcKvl0TZNegCqdjYmCXTRy4Yxw7x5XzWuxZoHGynZZIcNv+cnLzoRlvrbrce0eRxEczr/M2iMhwkGPb2Wgq1aKqY0p4bQsjLK2U7ADOnp9LvuJI82QQoFx1Z4shMskStDMH5+/SLgR/P+XOCi0Rxqo0VMG9D40hbjVZMvq2mOxKlNJuv52LxbJ6+HilZWlomcDIaAmFolqQOvRkdtgG5h3pQlK33Eytlm2w7cYctLIdb95Wx7btnVzpiJtHb+cWf1Q0XYO06wqXhmazZfvcFkocZvOokncxWmmOs23SeqNBPVZXPq3c5RWR1Jt+YjqoHVcvKgceVoLEXrqKqknp06dt4XVf7xL7GsR3ophBvVHDA4/uQ6Sq7aO0biFlAgwOFWx9t762pXrutLTqflLX2yYqWwkTm6RXGWZLmJocuMxfw8yreRhwoyHdc1vDql3SUJeugrqzlHSgq0rNvUEqSEX5s42FTto0a+iUAkmpOkMRPLKQWMSMR71B3ox4R8fETOLohfPHKerO0RNVkcxe8ffaGjlx46XXjytJr/uOSPl1iGtaRBSj1gDK9WFb82p+0b5+fYn2wzyZ7pmLCyg3SV6zWeaH/HNu1NCsmiloQcqTYmbOBHHcQI5598R9d8DeBTJSoY8AOHLk7Tr76bSkZR1A0WD26otImrHbvWuY5/PMat5gh9FielSvOnmQ/CXXokRawqPONWb6y5UMzpxTeTrPl0uprHj/fE51ci1t1g/pez4UiepyE5u3Fuw7/npE6Uo0LR23aZf9ZHVIx9vLYrg7pOyZCMMjJVvzas9VNZtknfJyMXDxdzPJzr7aQJ7tescdWXuBR67SoftzH253ft846D0ihTowmEGx6F/Y8eiX1m6IuEasqLFeSrL651xd2eWV4H2htPWQ6lGSx4SLKXNObSAJuwve2RUgfySymrx60JZ+3tLICW/oNScb6LGejI0NYdceah7eZDXaENB7VkPDg2jEdabX6WjTEL7O29HluxPVbR2kZ5h2lnuelaBZqyV2rwVp99fqV8CVIK11W8LqbyJpqGK3CcaK0PHJ/Tp61QGvVufhjYc0WQIXe9fIrwVpAimx/PHX/jxtdoVrF5/+krbXJSlzs+uPJkvDFvcrJ7QI1aw6+6lsWgR1GmdmWjg3OWe2HRFIFCWhQ3LaBVdfXDPMxjXs2z6Ke/ZkbV4vDets3GkK/Xz1Zv3u3Vio41ScH39wOzSH3WpxAMQoaTmAX14jEawDd2e8r86Up0a8lJM5vH/iPBpmQS9IJbd1eV1An5N4OTDETB277tiO4eFhqx8K23X73XO8K4GP+1rHX3FQXEaGec6OvI12vV8K/n6SCtnP1EhaW7j7nn1mpJ1HOpC9tNw85CK3hd/AYAEl29f2GqDB4pojyVvL05QsWx5XgcS7rtLghQ9lqdC0tjybVX2u2NpmvQRlDxLWPZg4JZbkdXxiInlXxf0ptU638Lyd12lJQEv29ECkl+6vDn38t7ano64DrheuR2vdeEgauXvk5SuczpcSD9ntSCabQ9M6244vBrvo549kfcEIV3fsrwGdvOkSr1CSY1vppBSN/fVVPJRec173+1tkLyX2x+zvJ21wJK7BuFw4pG8mkBFF8+3n5oFLcyRpNHD56Hp8H+piyHHnkfNApoFH79yGYbdrS2KaoK8HNGynMY1+ZjcQSZ5IdDiwR/u01u3tfD2U7spjA/OLho7AuvsWe6WNorWyR8/P2dfP3KNAl7ZF7awLiwK5KkglaNY9l29hbHQEWXurWelYGgrZSy8UXy/XAwpTn4jVFledCFwpNH+fDqxweJ2tIV+MMTJSQqNBYkAjie46b9V13OzuI4NcNiJxAfJ5fa63d+b1SnB29ThZM7ixTVWa0RpDnvZ6nFy3G4OOq4l7N9reCElw1nycyTIggWMeZnNV7Ltra7tiu7bVG+d1CFbB0XEt5XG6tgtJpjit0psTutbQk3qaFTtOvrC1NvBhJcfeMrZrb+bzeAPk9TpDIK8erDt6fFQsltyMm69oi2QpUAlETpFqu0DflLpd9PrlZf3AEVcvtzCY7emULhKRJPZodT1NSsrJ5ti8hRR0qU/LHp9uYKpCsmXKyVm0oYBm6hYVs5oeiWuy3lAKdDTfxD1b9IEE3V1LZXqjwbTb0hGXcxPkFLu2jDAL84i1nEIv1hB6NO3EdS3+0anRU/a8/q9B8nq+nMFFDg7q1jZl6vrZPl1WgkUZflWwetBqYmLTKLZu24xsxqnMK/m+NqGvHsoXIZ/Lu8G4ImIDnGWgmSLZYVmIoMaaxcpWsHnbEAkstHc7000r8ov3jRSZl+a5Tm4SLBI2Qa8Iufap8vGRvTJsWRQ9ULpti78bBoZlSqFXCJesFUPW20540uVj6rof6vUGmiRuw2M57DtQMIvyi3SeR/fXE8I6QSc+gwPu+8xWhmYsferSnE3+VDe0pMbO1YYl1EWWN9rbXeR1hXWmG+ZDIknd8+Vqx8Ssy05nwsKlw+lKJwErhXLytoSrSq7T9NBkhWZXpLyXRtpFN9RwGmwEMzMuY/Wq03Ld63pBu8nwxOeLHt0aOWCD19fGnOg6JXLCo292du6F1xseTIQ6bUHKr7u2EEk6JXMcsHx4bgZVrefULVYGNxBw8ATYw3ULVJreONPEtq3jmBh1pKxGBafH5G1hheq69kK7vddynxazcwW5GjeSpdzp+1ZaJS0zYWJsANl8w/bi1K4PjvysDKqDs80cLs2xPLIkZTRb/smmbFwtfORcBBsNpaZlj6U1C6kB6rX4fr3hszWnz4yuuCH69CplInOsrZk6dt+xhcQ1Y4N67aaxXuGT6AYaTIGRkJWUkrMjN25G/0bDx3Elcb0y0qleqY/SaTHJ29ZtVDwJpxJxTbS7rKxTJHFTeYuELiKevb070Sc5ZktptsXTK821lWBxfALWFrcfeVUFTkTVyVcpHUVUxkaG2XdpvaI37RUhfd5B3NTjhxbJayUhr+q6vSJYn2hnRypJWdNiWg3EmNtMk7vhPuPpKJlkcRbQwDpM3ZC4XHB+dc7dvY49/9c298L7LjyJ88P8sdmVHr96xPm3GO24XxEKlfXAvPExVNh2sw1fslVynMvzLZK2xY8u5ZPM/NFAguRmFxMvSV63bN2EYfYh2hirTMMqrbaFZk4yFPeRwyryieSSa/sgYkoy5pek436xeDu90s9uWrRUor87xdHFSXZE/8bHRkiE3CcStU1ZkguLkb6hc4qR13qEy7MscdZH97eMH72FtGp03OuRua4HBvIkrwyTgSbRWhT+Ss2uJyw8/rgPrawkdF8DO2k28pptYucuklcR18S87VPbqmp/x936AWOaVmjrFGuec/RwValOLDcadWzdrq+JyFCx8rJRkI6rzwGXC74f6Jj0Q3JnTcnrctiIebz+4PXS7QNfi9P11K5dRRobKsG+rGh1ize8LHKwGPYJPZHXae3rI1vqttn5md/93awXdJpSJ676bTQaJORVtKjgUCMB46HFI+o817XOKZnk2JI5Ja6TuifSIPFoNHJ2bDacWdy2l+F1ShodaTTp1gvddYT+1HPmj/zT5FiD+V5nVscktrlcAZHWwlW1RVMXZXQnFJfWDtJFLYWnKpCLKu4DAc5K+2hILvTIUacMChcuqzMvmg7063Vd+D40EVYd9eOF97QrAYnAdKWJN48BLx8GXv0AeOkQ8OL7PB7ksY+8IOF9HZ/nUfLCex15PhGzl8jzKbuS53TUvV43y7iTG3PX48Yk5cbiTnmdaZkisc/FdWSb+t648iCBvcGlx7buS1VauybypN0GOkIyXI0wN5cMgehEqxKMBKf9akOGjnQ6eJLlpR9kLnsSwdm1l1kYJ828FkvtEjOkfUqXqEToZ7Z6uHg46U2HxEHDoLSJSL59bciENdqe+6syp2epuv2xmspTpVdfE9s0UWB+O7u+DtvV1SdmDZEuqw66Z+DWRUQXweVkB50SSOCjreNSSUjMe/0S1Ca8LAe7TX+kezZt0cyrngT5OraeofglcVSVVv1OSWcpFmutryYU1W2ZS+UwpaZbpI+93BgoEj6PU5L0FwErR4YdxW2bY6pCqrOmmJkNdSr2v3kH+JMfHMRCa5j3RWFS6Kpg6XOBjSWOMBjP4nc/UsLvfW4PBjBHc/khucY3Ya8TelNBKmjrdmvIYZI64F/9P3+CSn4LOfkALWojRacg0m46cLkpuLfKUxpB2qGdf73SD94v70f6nEj5p/1Zda4rzZQ1xWZ5O08Sa7O1iWYyJWVni+HvyWaGzksoY//YFP73//wp7GTxGWmSRVUawdZtkmRTlM4XSTr/H399HtWmHrGyy08C0lv15pLXsun2VnSz2prJlqLVm+HZTA15zDLXZ2zWS0tO3ON1PabW1lJFSm99lLcWY7uUnxHrse1daPc6aJ/3MbcYJo1hJW48/D6RSfa24e2qRPQWcNyqok5L1ay24dGKXreXguw5p+pE+oWQgPmTyTbwOx8bxT/5xICR1jbkgRVMGrJQZ03Os/PK4t3X6/jW15/jYGcT7avcJIIcpyOvBPFgZab4MF4ckGaieXziM/fhs1/Y5m4RlmfudEVwvnWjN/T+SCfW+5IO2Z0rr4188lxfuvyLP3sdHx4so9UU42Yokjb8uWzLfx1llrO1f3GrjPHN8/hP/rMvoqTioh3dbc/Beut2IumFs3090AlRZaivseXts8yXL8b49jfexslj2s7PtUn9e/tG5uXMoBu6YnsSu4k5OI8u4O/93jN49LHR9jZRKy3f88eb+MG3GPbxKeRUxxkny1ftd23sSTFQeC4GnTQIjCsD/MrvHsADDDvSg5uegNNdtJEzDxprvuQn3z2GV587S5Wktu9D6cBC7njRAwbGm7/3zx/E7nv1SWtpHlmW5lSe6c/Dn/WGcKOh+Kn8mVks+0MvXsQPv/EsSo0SCnENhWYZRZZpvlVDxMFyhAr1Ypmp0TMrPZNqmO6K2EmVsIDZIvDAf/QfYvzRJ5g0FcBiqBQFryclk68exLN/8W0UpusMU/klvV1ndtJ/1U2WvT0rtGv31MnCz5QRN8g32Lie/Nf/Gti5k/6p4HJmw3nvyiANVxY3O+/XD1baPm9JdFUDKgWpnK36DGJD35b31XXlsHVmVJJnJhdQ6ap3G6PCWSyp1DVrWWDNUOW4c+co9mzKYc/mDPZsaWEvZc/mGHv7Cu8n5/so+zd5aWE/79nRhGa6b5LcWyTJ/bYfPUI7+8hF9lL2b8pi/0QGd020cM/WCA/sGcGB3aMoaa9LafdVQjRAUH7YhFVy3g2tDHOajHoLk1M11OpSTDKhgTmQquG5CKWuuuoEc9fIqDrQHOJmAZXmEOYaE5ipTWCqthmTje24TLnU2IZLzQlcise6pTmGy81R2uGRMslrmV9sUXrtejE3HTE3lNW48aJ7crfIfiKX43HMZLagnNuDWk6fVNVbwRrE+RxeOdSBz83NMZ+Y53Ls5brAe6z1njkUCgUMDSWbnSa4bkGvAUSwNWOcXDGy/vxKsXblkmUnWioNuK9qGbz7BO1LnfTcu4lwvG59xelGY7UpFxnWFmNDQyzsNDHe8GBaekfVfeBna21QcCsl/zbAbTvzqkT7hDsGr6sM3q8A/8f/z08xn7uTYyX3FqMD7xv76BWPDAZzJWTrs9g3MY9/+Q8ewoGBMm04gmIPor31ddhIFDWLFkeLqhENNvxalMEHZxtoZXOd+6njcrhirVppHlzBH932cVNOi05qT/9ZHr/9s7N450SZ5ahhCe3RUse77gj4ezLNcFRcai3g/m0V/O/+4FFsppnqiLkwDxhKpsZfjdJzts7zW7+cw5/8UosyFZb5kojgz/3MiIiraK1maBVr3dF2RPKpznM9vqM960w0dnf+WND0oJMGQhbb4QgKoMvGTYPtHuBh6XbXOrq0OZPuFPGKhmbTG2dUJ+v4zN1N/Mvf3IEBbYmke84L34BTUC24lpnXjpnO8sUyvvRbj+KRxwbbM68ydyW3Mii6Psoe6fOlobR4eF/SCXbn/o4Jnfzln7+JQ+/Mo9UccAG1A0tfyLb815Fmrayt2dcs9947gf/gD59MQnc+u9LypZiG7qex2MZawcVEcOWYRSGZeW3iO998FyeOsh0pKbKSHCW38szrj793DK/+6iwizf7RLGXDoZ+ZB/NFH7X4+//iUYzu0iuWftpG5d27ttyfLenbDYJiqPJnPtvM6wX88Bu/QKkxgEKzhkKsmVcda4hYtlErmXnNaDW+n3llzxy3MJApt2dexx59nH5ezcxrw828tpKZV5s/9TOvOoaZ1+uBlbbPWwq+WqgedqqIqxRj5Kvjw6pAMk1qqYHHRUQhjRYadRIatqnJeg5npuV/lIh7TNxG18U6AOPTSRXTToWmjwiJuj+4I4eHtwGPUh7b1jJ5tK84O14e2y77fUTmXfecn4slue/tL+Uf5dHk3iNbm2bvQbLNB7bo4fQc0+WJSj/48qS0y5Yqm+lXDRgdHu5WZVZu9E/rCliqnlTqd35BSlGuJPyjf14cXKHrUmfOWBmvWkjhdYadmOb/Mxl9EpYhMx4trbk0oTWtSZP2TEvE+Og5elp67dwkaVlcREZdvN13x3mtHtblgv0tRmJuCt3dV/+tT4HadozKu7SsOTpxEnHQ7iMRCY2fnFlRsB0v2vBuVuR+TdEnMn3QjhPTnMu5AWva5dK++BTd+JR14GO3HuJy4+HVjKWaWdEl7tYS0GBF60DZVg0u3zSwXt9QeUsI0xESF3eJGQmmcBNzmrXN1xLe/y4JuN64LcmrarHvNPXbPosbtsfmHdvHWP18LVdF1LkatzfrD6211Mh1rpnDqUscXS2VveuybittFGt7VGg8inJr4yc396eXipaTRnIkQaHYL/3ot72We+CuF3TcZkr9xd/zf/39M92kmPNow3ApYZ7rbfjz0/rald1YFSIyFW1+Pj46xnB7kChKmSt28l18anZ2gXm2mrAUz4QIZymZurtWaqwYkj8mLGtCahxH5KY5io7ZRNLn/lp2ro/kUtLvfrdELt6JaK2v0XtXWAadrSjXmLduv1zaXrGjq4ErXyc6ML7s3LNGuDcSFN/VZ5TZZh5re6wO1nPana5S22u3v1T9up1gqe4pKmXF8tkh8koVZMtMbh064NNsa+k1aFYPwnP/Iu2awvtpExHefy8B1wu3KXntA5IefVteK/J2bxlhtRMRS6pgSyTDkaLlkB8YQJwvoFzPYnK6Th9ybDJ6BpVQILm/gh83G+kmpwdI7pUk91pSGu28WSR+YNArgo6+ga8UaT/S0gcif606yZEjlNqyrDvD25TQzjtw1zZLKmEUVWpbhkvJgoNu20qBo63ut8bAZub1yF9+8Lent1jyypQp65nN5CrGTsE6ZUjQHz9768QRwG7ptXP9RKQzwxFDlmLHvvFZSuiGSfK/XflwpXIl6Nzlu7fSz5su9N5Y1nI3eqzZG/t9nscuHdulscIYpODj7V2u3oflkfab0Cl1oQjNxgDjyjh3kVdD+nz9oSt2V1ORPFQtE5E31k5SciWvdd/yzsjrrQOXF46stsWZ2n31Z0qxl2tDx18rCH++JHyIPKrA+sai9zqgF7cpeVUX2ulGDdLWbMQiLY/ccyfqMcmn3cxaxRcxUnV31bJf5cxgttXAQi6LZjOHs6dnMTPnbXZcrktYOl1upH9d9bCbdlTupMVRvP5CasM//XqRb840y/ud43KStqO/Xv/SojLiCYlgvlFFdZrnNReeA+MvRZGI6ZgUlDr7M+0vb5q4a/MQRuyeLMt/qT9duTlpxUN3OFbBbJUEXyTNwnN+tWHh8V5C4pIo0K1cOyosv22ApEfucsq6qEflemztROe91zqS8HaJv3/1Ygyxj+jLc7pvW8zIHv8t2hKlcwk4YsG0GyPqtkmnJu0zembJNzMHu0+3tVoD1WrN8m75QL0Pvux9uF5WDqXTzUpRXEQNSWyXlN5gVh+yh3cpWZx/14a03xLmvZ0qzc4klaJ1B9ZCthzXXhwB8+W9vuHytQPLcnfq4LN7uaxPzL1bichqk1mgfkuyEvJqoD3HXaWLNjp8pql2uF/Xf7ujRFrbjBLrye0bB1NgPTrJKTVKwEqxMVr7dUKq6hgyWRIvEoAdE8Cm4TxytvhaCt2aAG24im813qQHssfOTp309FwNJy7Zg2y6ca467nplPUNVxEs6x5Sq3r9uG8uj1/ZScmXIlisfXbAMc3mcV963tG6v248lfU0VRZYkMooaGB/1djUr6m46/1xeePLqfpKmxPO+/i+BrholwqpreuDIrRf/lzJTXTNJn/dI2v5qRAnwshxS9ry7K0snfq7HSIT3lgtPbUo2Ndeto846KeyHZTxbJWzrM2N1i+FjkJaNDJdMT9jd+XqG6oCiaks7liij9Yq1jG1XaemC4s+vVIK2xj9RX7cGpF/4a3rG6Qn70zX/XI64XPH5du1I+ZvWa8ti7UK/HXFLVdnVQNUmLYI6SM0bDheArUOR7RMnxUhj/qRpRj/wvohrcpycq+LYZb3xrEyWr+kKnZb1DJ87jqyl4e8sJTceykuFzLxmgZ25XEEtk6fC6o2Rv06Lh7vWPqu5XAOjY24uwr1/K1EYbgWw2bPjtSBxrzjy39UIX8ukbHk0Sc5l7q+7/pJ73p3/8+5WIT5K3r/l0BWu3PeaLSmdP1P0SZhdSDsgrAuyfPIqy5VJcrsHqYSsAdzM8dr5t/6x1LKB9ZcH9gSAsKpxW5VRf/TmgG8f/dtJAsu75HzD4EoR9vqFZ6YHlQPuuo1lM2WlSPw1+PO0WcD1wm1JXtP1t3OuMyc51rvH79yBgbhMPd5oPznN8Fyfjl0K2iA+svsZzDWzeO98FRfphZt9vS2z+obABgx2pjzW51KB05MLqGcHWG4y65RtWmwdppfUH1pV7Nw5hlEOYmy9syki7677THu8CtVKpW3u+VhaVgJPkhaLe+Te/97Nk+uJ3vxTs8rniyjkOx/7YCzsb8NBdSapN1eHdM6sMZJOPun6ZZBISn9dc/zXCtcpDzYg2sXBE9M/El5aceroDrcIUuW+ZMK8nV4hfN70yNXV6X4+eemH5e4FrAa3LaPqX4WcSZ6Hu7aVUEINeulWdVriXlxamrxqxlX7x8lmtZXHofMLuDgPzNe1d6eHP1scesDVwuWpdnfQa1PT/Dl5aQ7R4Bjv+Cqu/O7kuQirvYBEp1580bRQx9ZtI0lJc8BiZ64zT6wkvpE2ezf6EpM7daB5299VwMdShNztDSjRXoG6Tpslkum5tlzw0ntvOXH2Oy/oOfPMIv+7xdnVvonaoXAlsoRbir5M05a0GzLXDEePWmWsfwefsUtlcFdprB+ssj70R6eWGNbEzx60K24qnHWF9RqvGw+VVLq0/DEttzaWagBMud1K5YRNVBA090dhtXq6PzphtM/7Yrl7ASvFbUtel4JmlJQpOye06wDJT1NbQPHPFlbJwtK1XLfdjjrsejMFnJlr4vjZBdbl9G6h9OuKlTtgdVCmS0R5gFMcNFyeqyLOlWjaP48t90VgZcN2kqB7il5yyERN7LpjwoiwiKzzWwTWkVjB+eoe8etnrUtShDlq1ZBrVZ2QHJt4M1RJ5iSV5JgWfRLRSdv9MqJwzH7it/yQ/+37XX4vLd7+ld35+PE8Za+Tph5p1VEQeSWB736crdz30ou1LpGAgPUNX+NDzQ+4HRDIax+Iam4fBPbuGEITZV6REpHgxCQ34p1dj0/tT6/u5Mh9KHGefak2+Y9sBvfVDy7hXDMhOQY3n6cZO//N/f6db8BqoHlPffFK5PXImTJqzQj1mt8hwuW/F/2Iq9ruRyJEtjSAgxQWR4tlOEGydN8IbNu0Vlykda1ZFlzZue7BfGIdcGf5wlLrL/tAFk1Uc7LIx02MZsrYWVrA7tIUdg1cws6BSWwbnKXMYdsAZeiSyVaabR2cx9YBCo/beDR7A7PYTjHzgYVEEjtmL/GHIntOZhJx7mTP/E5kC8Nuy5BEYUtmTLaYPYbT424r7ZswrK30W3HbloSl8Dvxk1svHfcuvvPYXprHjtIsdg5ext6JS9g+TnKt5mXZl25Tvh2lspYtt4OOqZOVo9eVQlqJrCtY5JMnB/zROtGOuNu6a38y45/dSGH9pUvx6wwmNxJ8jNPHrlT4jF5tptMTs+497PL0VsNSGeMzzd/n0frZfnIzoEJJT4TcFoV1XXDbfh72imCu/O2bc/ijFy5gmiRIDzojNgJ9zjNLgiO0m4DWVYq46spyk3QnalBqiPJ1/JOvHsBv7RApVodaZ7+QfCfdHJN22bHtW8Aq4T5oYHOVuMQs/tO/O4+fvTuN+cwoIhuedaq4clik1S0Z4FVGWy810KC9GCSqrUF8cuQ0/re/+wDGJpwb+e+Xi8SO0vJaO1G4+cMp3vr//skbeOfsLt7p+iaXwe8i0AuZaFOxwcwCHr1rBE89MogC4xYrLrzZSKJtLu1HtKJDxGXUlsSuqUWz2zFPLg1d1zzRddpNGuZlylynJklYaXqYdq5slRVv5t3o2Bs/WdTRh+XtqYz0gS6zk2VbKjWwZbSAnSPu9ceIoeuee05itswP88d+9fneq/k8LEVeJh1eM25hZLyBL/+9h3DfvQP2AqfQ63IRXESWx7Ie9IM8lVil7oBGPs9NmG9/+edv4NA7Zfd5WOV6cr9/oN6lQNrfWsAjjw3j9//h42bqam/izlsTVh3/a0cnplqK5QanEdvt1GXgO998Hx+8XzEzV3yOiMv+rfx52J989xhefe4sq7ZbJOXbp4eF3GPmoWzYtHUUv//PH0Rps/SoFhC5+Mkv84/i4M9ScbgpUOwkjEczg0MvnsMPv/5LlBpD7c/D5v3Tn57Pw+rpUiGmPmEic8zXEsqYZXf8wB/+hxh+7HF6uVh/C8oTQTsZugxNfx627j4Py/pon4fVMijlJMvelnrZte7pGD4Pu1ZYafu8/cA6su+OYewYy7Eh1I1kSMksmWV69OxO7DdmpxdTs1QrDbz08kXM0UwzeCaqp7LkamlPFQ1YDZR3Teap1IRK59wkcHSqgWpD87AiKYtzVybuDdQ4ObIYeJ5lZ5Mlkdy3bwfy/usEBt+juLJNio3EhoMahiOCnO92sEK0kI/qaJSnMBS18OgB4CN3A0/eBTx1J/A0j23R9Z2Z5OjkYxTZM5GbxO4zvG6LN0vkaYbxMS+81lFm/n6vLBdWX/s60o5EbtpC837x+7iuE7FweJS9jzJOH7nHyZMHcnh0dwnbSVzVi7j8dxTWl0k3fAkFBNw+sFp/FZ1JmL4K2IgI5HUJaLw+MgjsmSigaF9t0hyPvjufS2ZK0zA61CUacccxx0mZPA4eOo5DpwB970mzg372xuy1/wKuFm7W1Y1VT12s4Xw5g8GRMRLDLPPaExknblbGzaO6PQAdbEmzRuaZOezYPo4iR+PlBaCmJa8GR5Z80enYbJK8Nt2gJa/n2RYEfezbg8jMiwdH3/Uyf2uYm5lGQ9skJM4185in15IcB0J5juxNdC5hj6OZAy9upwue857Wh0rMXuIut4REybHtvxfvPhVGv7C8vXYck/O2fSbI218qfmZfkrhxnyRmiWrWSmbMFs13Rw26o8bStSvNbnSbpe9253lAP/jc6ze7k7ruvXXTsG4ictOhGp2u1a4UO7IcdD+mHtMM7vJYqY83AiuNR489ZtL1iX0qnGXUiy+nZawErAKBvPaBqKQU+AQJzP27hzFaJAlS50oiGvlnSougKqm1sZLksWQri1as7nsQP3rhBC5o5y1ludV12ddjL9vBUpblIuAqoEpcaTUxRwV85OwUJssxKnXlpzLabzPVEXvrh2w1ZlG2NG2ajWxXCb0ctHmshc2bOFDhPe3KpAlV+e+6dPdIx/3yiiR4uEgqxaDGxvQtLl+OlC4CmzJPQVd1kbRCATU9RmK1UTy0Vjqn+NCCE4aVSMQBUY7HPI8FHiU696J7suPFu1u1JO5zlNWEZW4Se95+gXJFNxRvx0mWJFXCwUaSbQVmispiObiScdKGlYVEPbQ/D+iAucVyaG8bR/E56HMrLesHindyejujU1zuwDxRlU/LktBAnszV2phvaG3IN7U4pwHXF9LxWZzAdF12Iq1NN6m6vWbwftoxnV9uQkXGdsuf6+guA64BV+oLblvEtkYFuGfnEHZuHkOrQaJZZ+fXd4TqqqNm8oy46kjHNsvHE62T/ODkDD48Sbrqa61Ibvuxtq/sAf3hm7vPvAS8lGK2h8ccVBw+V8XhE+dpJntUyl5jpJEoEvfynYYNKigqtpbmxKvYuW2QRFRLAlgq9LjXh841iVQ2Z9VBs7bDw468uliq3BU53XVXHXfOhgkNa/RjvhVhoVXATE3Dn2anislRPxGSo22+nRah124vet30s5d2z6PSs6KwFh173KTtp+12nSd2LSco7XWqLn+vhLR3HSRhC4tvbjAoF7wQ1yU93Z6mQlsn2PCFuKZolw1P0jmzknKLqfsW8dZbAunU9ySQmWQmSWb16ypWDNNV6XC6w/Im1xRGwCIE8roE9M1szbbeMQ7cu/8Oe1TZrDcQk9WkG7qdqlJah8t7XvSXSXbmzORRjgfx6tvHMTMvB0LSMRsCeV0a7aafSOo0kWasTa2At49P4uzkvHKcV27gYHTHk6FEybh1rlZCvFTeU1jW2VYdu7cPYVTvXLA4Oss7+iGDiOxWPqpujI0M0sQqAr1y31zXr1UWBW13PJJ48M/Ia6aAubiAqarteaD5e1cz7M0ynploUJQIz1s8xlnWRw6CmjxKdN2itO0ldrsk4n3ZWSQ99lLu9UKb/O0Ny9z1htV2szh+EvnV1w2lxXPZlx13TMK2XOG5ifJ1pXAl0sbKHa5zuPpz9QnytTEtafRe9wmn10rA1WMN6mW/UjRv+91IwW6tQfjrD27SIH00SfS+/THxqTvL5tPy6Pjt+5j29bJIIhBwVQjktS9UqSKU4gyG2a9+8kAGo80TiAayqPqK2f51x45pglTD0JzeVK2F145exs8Pz8Lx1zzvlWjNfTFIjSng6lAm8Tu3ALz2wQwq2c2oY8hyM0PiY3u4GhXsiGZZnZ5xxLXVKqAeD2PX2FY8Nj6IQd3rUWxeOrD5XmtAg5Qt/CnmqCZJVuskwrIbsw4hLlF0JOnSDIfioDhZvOimlUeBdqZm67hwpm50WzXC9KhpV4Zg8dQ0sETnJGWMoB6EaeN+E9sFQ2tyeV+R98sj0iI23nvP0rHEPbuvsLShVxKOJAnL3PV1w5gtip9zt1z8RDW1FMO507ETqu7RVVtWgl57K3W3UvTWDS+GdGTTsmqkfVadaYdwbbC6lUgXkoguMg9YS6Rzd1FO+yJerqiTe54vSdhdcYDYEe1aspwXV8ZGrANKcSfVjrjqjQgnuucmLxKbOiZy46DA0qKC8uce6fOAfmCuBfTCVSN1nEQD2DkEfOFjB3i9wH6XbDYF31Rcc0mP8XhOj+zlIEozKqCcG8dzh+fx4aS8FRHWhj7yTw0roD9caXSkc9DRuF0O+PHzl3HyUowKiWCs7U5YThnmbqfD7yqZxAunNLQmSluX7Bgbw8M7ihhI/CcH7XG5GLKqmdfRAWBoQIQuNneaI7RJV615pv+2pMTi0omP4pEnoctnC5hdqGNquoxmI0K1Weft7nrWgUJUvJNzV8k65nbsIyKMPPrUuxygfU8ezc4S7lcblsTba7uR/Su46ZHOn+isF91bOdSpe3if1wKuBJeWtUOvr+lrb3a1WCI32mUccD3gczadw0vm9gqK2JeWrIrAtkVmPF5rLdl4SGu5xeKfuvm88XLtSHwxpbOcjwy4SwR/DFgp1JsELAfWqQGyk08/vRdbSlXkmtr0qj9clfVNxF+7R8iZPDAf5/HemQyefXcaZ8hNdF9zr5qVEoEK6I90nooW6jUnZKpU0DWjpx+cA158/QTmy7IhilMjV+PQgPfTZLFbHMTpIg4lxksN3Lt3M4oFupCTFcKX2tAgMMJBTtYeg3fK386ozPwa2954GKkV581lcWZqFlN1Dpoi7VxAw17rXWDTbdcZHfudd8Pno8uRTp46r/u7aftnlnTuCaiQ3OsLuaHY7bS99HkvaG5pkniym5bl3N5O8KXWKb3Oca0hf30bShCKYP0hKZ6uouHF9a4d6xdK8WJxfzxL8saOiVwduv1f3N8EXC+oRwjogVU5Veakz9TpjiLwzP3bMJbThldLQTbTkiCTJSHKotKIUSGxee6d83jpkFbyyU4oguXQrQaUX52OtIYcLvHyRy+ewkyjiKg4jCjS7JzWSIow0pI9ou+4bgt/tDY1y3uFbB3bB+q4fy9QJGckj7T7kjR6LrtQJN/cMsawm2WWqEgpyzyrGXcOXZLwF0P2dD+2XQ9OXV7A6Vmb7O8OSxe9gctPE53zp58dD5orBiuRxeGkhTbSshzadnRMXff6n4YPZ1GsVJodsn1lOFvtKLYJcSJX31OtA6Tjfv3SYR26O7Nfd/Tn6wUbuRzXFukq3W5qksTs9oNS7lOfPk/OfN4kVbpzd7VI++3Pl/PtSvcDVorAnJaA6rTWDNmsGKF1iM/csxl3bhskV1iq8slcjvpJHlG+gEa2inMLg/jhS1M4cpoETFws1OdlkegXBz2LN5McFpivr3x4Ae+dnkEtP0oCmLc1p9mWHtrrwwXapsxKUi4NPqtl2jB7JLr1WTy6fxx3TMhXvea1egyWgF1bOcJpzruvepG8Nkle6zm9uNQJPw1LiZHXFpqsU+fn6jg5rW2/3P02fKTbYi4pfbDIbhKOidbcuhxZTrrcd0z//+29WZQk13nf+c+91t43oNFs7DsaIEFAIgkCBGkKkCiaBC2KomTLFu15GOtpZs48zPHLnHmY5WFmzpzjscfnyLYsarcMbjIoggtIAiAgLgCIHejG1ugNvVfXlnvO///duJmRWZnVVdWF7sru75f1Vdy4cePuyxc3bkQkpFzG0XGBpNyYKP2p/b7nUPq5bUvatFySAEwjs4CWBwNdGx8iTNJhRHN6/1KiN/2XLl3tIjG0c4f7l2wuWVtPS1h2FPNEeWVHtE3ybeWkwrFwbRCg9CO6dc6FlYzTFzWqw5JYtVQPG615+2TilVuAD950FYrF8JDV0tGcUR05KkslraTPjeDgdB1fe+xd7D9tN8FT6pXTj1guVmWbedRaORw6Djz17HGcqmZQzWegj/iGstNXzPSpV2qUrQJlYTW3ubwCFcxWDSPFJu66ZbOtdW2ynO2hqmWid7Nu2lDE5FjePo4gtEwgPDU/wD+Fp1lXupOyPcd0vPLW0c5y1/AdW0vTuchy6efHcqWjhAaCqbNMoZ8spNv9hUKK69pQXh1nMBqzojjOxY4rr2dBQ5aG0LFMCeNUMq7fmceujSX7ZKx0C3sBshwOUlAMOWzSvb4kRDW20USdCuybJzP4/s9P2Je3ogLbGSJl6uxduqTywYz2zSacZqb99JVTeOtEC5XsCOqJEmiOTFmVaNpcV9uSbjJZ2mUzVDrLuPPmXbhmB103qKQ0pTmGB+h6ZTEU2vbJDLZtGkv8EIxLtjZYedVh1Z/kqbNiaSPeePsEpmaAiq1O6dwq75a0Xb/jQRYS6mpvetLm/uf1o9eXNPIlqc3cqLxUBt1qeIeQSuaZPWWitb4S5WgII6Zx6fRzvVw/AqFKqV7QMCi5JObGIk4CZ3XQS78Tlu3JAPrnSGdtdoclpe28sjCOw0Y69quSEnqytsroQpHkAjfqOyKdPLb519SR841iEsVZKRohnLOQRYn/w+t7rtkIfOqqAjZny8jq+/nNMLPXtHdbqjKqSaQlQUsNqCy1qDQVqMzUK3M4zfOefuMIHvnZYZziqe0ZWJo7t3i17ZWLtNJbuntFOaJZa2afFoOyxp6invPjV4FHXzyA93I5VJm3diHBwxEpQ5rtVpGYmF0HKSMq0Z0TDTxw5yQK9DPXqjK8Ao/RZQjcJJ6bPr8XzcVfPdnCjg0jqNRZN6jwZFu6YNHKZpVZVMI6IoWuVM9hpFZAlvUoUx9FY34CT75QwaxeYcCkm96reCxATTcqeGnkWCeFE9NHY5cdz+znQzRrGyT+ojleDES7/tKOdEYXGyE2nTLRNrrlEeY7GpXwLJ7KuMEjdustpCCmQpOfJraXQhY60E63JMzCB7chJHvv8sAlP/2JM656zZnO7PjZIfoYQunsD2RJjiJy2FtSy/KgP+2GkaSG3inLQ7aHVMZQemVtoDiynGP8h4iQux0WpCBm8mIZntgnzaSL3qK9tAiZFvoN5W00R/uk71L+yCa1PT8ooNhHRbMiEfedpaIe0ekhVPNAMMcZPGCMOfbRm0Zw47YiJhpneLBia2MbVF80w9Q5O4oI5tigoqnOwfRktYjvPPMenvjlDOZ4zKownYeqHNTUXkmbLiZiimLqwn6iJvFP+TJNy9ePAj967jCmqyVaF9nxsGzshJDP8exOjgef0mSbVYxn5vGhG6/AxlHu04MMNWDNxtqFRv/TBqKGtJ6VY8fGMWyaKCBPBS1vyiuVHvoTYxOeAoui/1Lk9DW3FhrU4crlHP7++Xdw4BQvZuipJiB1SvdZyyd9/mIi4rbDQpvFULbZZ5AlPFWmKi1PUkE/MlvEmVreLtRC9vK/vLfP9HIraQcXXNhuMC4LnRIG97aHK4MKrM28puiNzjmGcJ6xnOmRSOh11n560nEeclYhs+WFyapmy3DncYx97HvbtdoOBPPq59lS6MQsRKNfBM57pIYODRVOCqvMfSSiCTEpO79+11XYXpzh4DiNOpWeRmuMY5xudwZ3C4kjcze13Docqu/EYz8/hqefi299pULMUIdhCFlVepIbckuWWdQaDcxRo3/zOPC1H7yBd0/WkMtMYLRetFeNdZdUqhDUM6X8bSXvwSoyjy+fbODmqydRYKHKC5OeOCwHfU72yivGsb5QR6FZs7qiGePwudqFFUMl3NSygmyFZiqw2TzrUQlHT2Xw+C9OYp5uajYVWeVxicwL/TkbMWfSYqSiteDYOaB6qw9zSMz/etPW8b56DPjGT/bjiZfKOEjlfJ5FoRTN0900S6SZo/aeq1C41SvHzKdzY1XSI+U1mYF1HMdxLjwLtSlnIekRkIOYHry6ZicV2Ht3Yz2H3kKljJYWKTY1yNFJmDal6MSoWA2AbnKtPA7OFPG1nx3Bt1+ew9GmlimE2xuXOs0mFaFmFvVcDvvngP/yvTfx+sF5qnIFNJo5tOpB42wrGIOUDCsPutGXriiT+Rruu3krrtoG6NsCKrJGJjSHdLEttQTkfZ2+XM16sXtjwdZEFzN5KrBhGUKMm8XTfvqYgZYTaLY+RwWXZh5r8JxacT2efeM4XjxEhZ0+VLWMwS5rajwr3A4fjNwuFuvkeFpLX9zDhMX87CXMJUsxrfG0MvP1RA343k+P4McvnMB/eeId/NGjB/DwL+awdyaHMtOYZcqqrQLPUd3XIgwpv7I9G1awDHJhIizGZq30anZeW9lGWRqh6Bb6f+FYfhrOipKXSNrXlHVb1garnP4hxqp1YhYxZ9o5dJZCa1/fJ9uuc4cWxT6OvSlhZtlPae1J78ort84O41BX/2Jm5/0ijNbO0sk0oc+OjhRm8eFbt+H2KzdivDmLEdZTqSGx4uqrSu0K3K7U/ZByxgE+O4ED5RE8/ON9+MEvTmCOukpYGdifi3NWVr1HmHuOqdM7VyV6/+lffHcf3jrKSluixpmlYiNlj86Vf1ElXICsKPZpVjrM5/LWaV25fR0+fPUkxhnQKJ1ISQqz3R3ad/iXTBPr8sCtV25FvlFDlkqnLkziBygshhaXRGRHhU2iOEmZbVLRK+dGcLxaxPd+8hameE2kdbghIg2GIFmo0sWohpDC/8Gc7Xg/Or6fDaVLMQzqNjDPhvGTl07jlbemMJ/ZiqPlSbx0CHjk6UP4N3/5Iv72iffw3hkq6cxwza7P8ER9fc5SaZnEkLUmTJnUj0H2JB3jMGwF0/Cz9PJYKtHHfr4mxbCGSGK5tiJ1wYjDi5Uf86RLwqHFSeWj+RGMFwFnSUmS7nNKb9fYfnHl3lrGldcBDK6CHESzVCAyBZQKGXzmIztx/RZ9317fbu/0AKrPNmFG4pDZD50hd82c1s5WcXKmhO///WF84+lpHDfFJdWrJEQbbYPKpmG+Vxaed6EJ8V0oAZk6cU+n+/DhWTz8ndfx0pER1Kj81KnZ5FvzVGgqtmQjPCjXH+W8CZVCvZ83n89j/YYNuPO2Xdgx3kC+KWVQbuSHmkO4BFk+mkWt21KB26/PYN1oEbWKHkLS402Dmple6TVKGaE5uGllm6jmm5jLjOC1d1r4+bNS/4RmJFXS+gCD1MKFDK5lfUg7XtaJHUIphZLqLYGQn4ot8Nop4JtPvIBKhcp8pohSfpRtpYh6fQLHZzfhmz+t4P98eArf/GENJ6eYKyyCGk+MzSmsC9alBUtqQFn3xiGYo008GttFtB9WYlokjhOwfq6namsc6tKtLhliO+8RZpD9lC+yiVuKZeBKsEwPfocHr5J+ZkBf5awOrrwuG2VZnvU8Z4rKVVsLuP9D1+HywiwVKmqbHHizGSoXLSpFrfCKID15HgbzfpVZFZ2Dc4uDMw+3sqM4VRvDY88fwdcfP4K9x3L2Mv4aJXyTS36Fh8ciiynHa420qqP/FnPbVSqozOk2uymQGVvz+dyhJv7sJ3vx83dOY75ZwHStgkZOa0V5WufkNolXicf8p1drJa/XKhR1E38GH96dw4euBkbox0g2hwq1YYUeFmqozOzkZWPnMwKbJoE7b9mOIvRAHw9IcY6/ttfJLC/ril6lZe96tY6vQcVOiloBc9kNePrlY3j+TaDCxLboY46h6CZ7O9U0WJ8pC225CXUkkFgvECM4XiHBp+ifYm7LBBKzcrzOeB6m/v7wo/uQKe1CtjmCVl0BMhXZEprNIso1XpBgIw6czOG/PvEW/t+/3Ie/+MEMXjwEHOO51HeTuh9DSoer/6KTiHRLiwOT/Vf+2i/ZT0xrnxjXtJwryphEFlSCfnbOatOVuysp0ngOt7H9y0ov6rDJkESis0HEePRuA917w0NIdegHu0XHQr8QtxRtzympwd+lo8AS6WqDkkja7PTDldflYHWUihUHXak4upmrDLz75hL+wa0bMVHUt/apjFCJlRqmJ+Gz1LI6yutCZK9v64cHezjk5/N22/hIbRw/eGkef/b9o/jp6xXMUiNo0l/NusknKQihui9W8ZfToM4H3Z1IYhVECUpZ6TWnT+8r40+ffA3fPTmOqYnLmdlMO/O4OdJAPctLB1tTGnIgTfTSvpVlHyqg0sSyaDRruGJrDp//0Ag2N1VOOTQbLZRyJbqUP5ojjYrm8tAZeZZkjgqoljnc/5EStkyWpbcybMbGXhkgX9M+y54aWnY+vGpNX+LiKDTCOOl9wDP5Mbw9k8Mjf38CbxxlnjRLDCPEVR9kUJaZF50EG7Gupa37ycrp9kEmKa5VClPDmGlmHDg5C3zrh7N458goZufWo5CZYFvIW57XOco21JbUkppNtpMG5ktXYO/cFnyLF27/8Tuv4+EfH8cv35zhRYvNuTKcEG4M3QYgbpXiTpmFGtbGjHIVLhBCZg0TIaXdshokdbHfqH2uTy46ixJzNr3tyu1YxEso7niuRIqrvoHTFu4vdnq734gkZvk1vIREWS9AY7hj0xl3JO2+QC6TPAp75wvlcI94e1s2rOLOkon1izW9xQ4+Vvoix+A771iPW3ZmMVk9hFqjbkpolspmlkN61obz5TcPm3k8cAR//thr+NpTp7B/bh2VuqJFwwouRsC8jrYSmaOsHTqdh24Da16O+RIVimzdZgqUU4dqwF//7Az+5If78PIB5uUcu6Cy1KN+WOL7YiHJT70Elj5vK8zhoY/sxo7JDBVWxoQXFdksVVa66c255aOzqFDrwSCaNk0Ad33wA8jXKzYLuRg6arOvYdfIUJkraH1EpoS9h6r4xg9O4PA0eBET6l1RbzNosm7pMf40iwfVhYWbyHJIDwVhr8E0NqhWN239sPx7p5zF3z59Bs/sPYYKL/bC+xVDSBZmaolNgC6oyGs9ebM1gRNn1uHpZ2v41qMn8M1vv40aLxVNWQ9nJxJI23RLoty2R+m0DDP90rKSNK2spjtrD5Vk39KkZbqWXFIsaPfqY/mLeZLe9s28pZIOg2LhpmZjBnJOgV7ymA7kLJ1YRVU1rXpyp9FsYfMG4LMfvxpXr9MrnKrIZDmgZ8qsnpqPCsPu0pFCRYUtn0NjZBxHqpN49Nmj+NNHD+PlI7D3wXY1i1QbOFtzuWBYximiIbLhK1RavymlVY8h5W22de9x4M++8wa+/exBvH2miFp+E9WWcLs8zrN1ME8TWYiurht65VJGr62aw4N3X4+bt8I+AwteYCiP7bWu3E3LikmiIl1Zc4q33bgel28sopChsi6PTWGL0h2W2TK+MQ6FXI4KagvVShPl7CReebeFP/vGSRw4Iddstg3dAVC90o36QYr9YLpjsnw6CqwI76m1eVRazDM6330OePzFoyzTdSzfsKY3pE70DznDtEgRbrZKqLc2Yqa6Be++l+N2HW3DGSHETsjRp25b0Zu7cdtxMbzEdFwMaTkX0mV8aRNrguVIqmpcujUklQld5gRmlNkkVajn6DJInxnDWblvztJx5XUZqEpqdrAuvSGp9FJ+Stk61atZ3LwZ+G+/+CvYVppFqXEa2eYc6vV51Js16i286ktkscqtB4tsJpCKTo5Oc60clZosfS/imXdn8G8efgV//J1TOEQFQV/lmuU5mqHVcoUa/9epLjRpCg9xrSEsv/RPVa6AWiOLcrPCmOYxxTTqq1mPvwz873/6In75JlNQKWG8VEKOedvQhGaeiknq4azwAFZHsonooawOzIPMHPLN47jvjh346E0ZbNJbmJg7uULBbumvKgo6Cb7Iktg8CXx4zyaU8vPIZkNgTVM4u4mnaW5SCrXSoA8v5JMHuWpUvqdZ4X759hS+/qPT2HdMKdPaYB5XenncHhQ4T31mjK9EM6rhUSrNL2cxVaHi+sQMHv3J25hvrEe1qsaitFMtzaguJzPdMZ1dQld2jJLjxUVhFoWxk7j3k5t4vuABXgDpl+yl0F60UXhRSPuiKdp1nzk8pNMY05PeXz1sNioxr12U5tVN99DDQou5YpIU4qWXS1250JZ23xHzSdtEVka3/919jKSX6KbfMWc5KBedZSDVQ/NccSYoVFW9jl2zRk3sXA/84W/fhSsmGyjkOaQXtaI13KpYDvK7wVG8TqVHDxyhOYJma5LKwTiefPE9/F9/8ip+8HwN+6m9SoGtMgZVhl9r6F2giuGKW+P7RzoPCkVUs+vwXiVjDyT9f3/+Jv7T15/Dmexmqt/jlma9vSFP0aumrNNRJ5OcvhS0NKGQK+Pum7fjwQ8WsTk8sG9HVr/zkMdSlsOeVuNOUlG+7UZg185JNBoN5PI5FItFU7Ijg2Jh74HNVu3DB1ktRWB+jW65DM++W8ZX/+4wXjgE5hVQ04NP0visRgbOR8nHHAwhZ+0C6o0pULk+icd++i5azXFefOVRYJaEB9CYIqY7zL7azTvbdqALHtLrwuSWlzeYLFTxqY/fgHVjYSZbyn0cfiSD6XWxuOvh4mJKy7ng+RCJLSld66M5bXfJ0R50u3Oiraimup/VyaPEF/N3dXx0BuPK6zJQddRt7hqH6jh/poYg5SI0FA7jjSZu3gR89mM3Yfv2zcgU80EBTVfmdqOR3cJKrsOa2a3mMpinwoNWEYV6CSM1al+tMcxl11NpHcM3nnobf/6dA/jhc1PYd/gMFdc8SrlRFqqG+bWH8q5BFVvLHo5Q4/75y8DX/m4Wf/W3R/HC/jxm81tRMYU9KDe6419oZFBsZJGjdPJ5aeitDx/YMYkHfmUjbpkML5tSxih/l+HNEpGvHQVS6N2/m9e3cMN1mzE2NmazrlJi9X7axTAlLltHPT/N+NaQrxd4bh3HZqZxIjuBV08V8NXvHsYPX6pCqwhqUu0082pLMcLa2cVDWB3iIEC1HPtO1PH1x9/C3/3iOE5UN7PcshipNzBar6LIuOszuXKueh0enFILkshWhcFLP6WbomUXWit8w+WbcOf1JWznRUCRbrUkwXGcAahZcSNxnIsdV16XidZejtgqzGQ2yHoKKQ+jHF7D+wfGmat3XJnFr902gS2lWRTzNTTyFeqgdR7WQzjhIa64Qi+u1esdm3PNLIr6gpTWhOYaqOWo0GRpZphljvLTVGpePjiLrz+5H3/y2BH81c+q+MmRPI5QyZ1mnLSGtC5PpdOYXqO1pYwLlUjNzmovzoG1iRHplYSOlX56Xb5+evJdz79HP6NSEtCeVmYer+Wx93QRX39mFl/90XH85eN78ZM3DuF4s4ZKSV/R4jn6o/ZWZ/zr+toUtzGnuufdOiKFp5EJt6W1hKBI5XCkOocb1+fxW7dvxW3r6EzEKOk00onhuRJ9Uo3ooFeprWO87r4W+NVr61RmT6NFpSwsBwluDGmrURg5zTRnmzkq7CXbSotXDhSZthFeHOmLW29O1fCtx3nx8rcH8fy7BZyi27Ldd5eSL9dhnrITTOfySXa9ElXJKNE+knbTPkAPj7I6P/UK8I3vncSz+zKYGWE8RlVXw1fR6rk8y0fxYn3JsP5LWLoq4YzWAtMzfT5XcW1mSmg089TXm7hiSxMf/3De7mTEthaXF1jAiaT3OsQURHRUXV23qyWTCiAaF/cp5l6Uc6FfiIuHvjQUr1Q+0ct2jO3CItSXfrI2iLXxXPP3/BNjnN52pSJm8kozPPGwPcM4gKS76ZCYz3LaGickysZUGm3bI+oLwt28kEfhjPOFcjfW3Vh/FYnhzvULgSuvy0TKa9FuCicDqiztNnCRShbtpGu05rGBSuqv7C7ioU/cjC3jDRRLuqU/x4NV5PRKJFbcqDhaI+vTgnJUUvTKJFVuPXhUpwLb4LmagGzq/aQMcz4ziWO19XjxvRK+8fPT+ONHD+Or396Hp16r4xCDq/J0PdtjJZ2VQlOgKPaS8PnNGI9BhE6gn+h/UFZlUo5ISZ1t1DFXa1HJCutxT3L71Bt1/NV39+I/fvOX+JvHD+Dx1+bwzmwRZ7KjmM22UKPe3yooIPrGADWbp0+l6pOt4ZUv+kexTOoWHZOCpNvSSmqxVcVVG4v4rXt34b6rM/YE/CBCvFcDxSVpTjIS7Wm2d/cE8ODd67BtrIySLlxs5jV0ngvSxH1TXltUXpslmumLlDyeopLTLKaWzZYLYzhZXY9nXq/i4e+9hYe//y4OlrOY4THlhYLQi/7jBGf8ylc/FJte0WnRHP5xw22NlVwvfijTwaungL/57hH8528fxKvvFFnu21ErFlEvtVhXNYNO5ZVi8ZEnTIfqi30tiyGwxBLhMXpuj3zRuHkshz3XbsCt1wATKlCdtiD+yr/464ciHY+kt/1dD0K+RFkeKztrITHO6binzSuB8bJRO5EYT/M29AZWJinONcTVJ4n32orUkunK3ZWkITknNou2F0mWLNXLGI/ebaB7b3gIqVfso8IaRces2tsvyavg8DyS6l3bgUeJpM1OP5LR1llVmjkqGgVsK2apwAJf/sT12E7zxtIYlRkqZc2ghNosKqVpFXjl5KgxS3Q7+r2pBp56M49/98he/C9/8gr+9aOn8Mg+4KUqcJCa5SylzOD0DoTwbLfeHKvZ2KAjSFdeIMmxjsS3zbaoZGm9rzQMre3NUKHOYTZXxCEqkj88APw/jxzC//RHz+Hffvsl/GDvPF48kccUNeo680APMWU0dW2zaeZd8o/Dp5QZe7gtBZ31yykpenp/qHryfKaC7esa+PKDH8AHP6BYkeBlm9B5deTcWdwnxWHXeuBfPHQLtpamWeZ1U8j17f7QoXbT9i0dZymAtNSFghS+XIN1p5llWU7g3alxPPZCHf/bv38Nj/y8hnfOhHXZTRayll4k10q92XBWzK3+8VzpnZoxVpEcmgK+8cQx/B//7kk8/eIpTNUYo5xUzxpGeBVSqhVDn5yEpv8hnclyFlrYtu05hdsCt+PZeeycPIlPfGgU69k72TytMjCc4DjOANREvJk4lwquvK4SGoalioS5TI62VC70gPlmyn1XZfGPPnoVrlrfQInKVT6nbC+YUpFpBiXNxJ5EDwP+Ugl6H68iachREWxlqULkJzCXmcDp+hiefPEQ/vp7r+Nf/8Vb+ONvHsZ/fWoOT+8FfvY28DqVkLcrWRxoFHGCQU9RpunbTCJ6ECxtjvtTDO8EFaejlTwOT5fwxsksXj0B/GhvE3/zk9P4t197E/8rFdY/+tov8fM3pnC8OoEzWM9z12G+NcY4Fqhs55k/4TZ/SHKizpjSasYFDMoZ+VGgmrOudRq7xubwhfuuxS2XhdvNawHpXnpvwE3bgAc+eh0mivO0q4TXhUkbVIIT0fxAMNupHZJRSU/ryxgabgY17p9pZDGX34CTrc34i0d/if/7q8/gz793Ar88zPI9BRyfDxcsWkKiGrYcqfKcM7zgOUiF+PmDwF//6Bj+wzdfxvefPYKZzOWo5LegxouVWvLqsxwv3GypQxeKMcWmifR5D8Ve+zqmULSEoALMHceO0Qq+8OlrsKnENCp77KhI/GhLfxYcsTBEcp7FIcqw8j6lIcmrfr7qUDsr1wTDXH6rS7io7RBrRpQlkXK49sp6paRzINla+w+k54zMdsWJTsKxjEvM4uLIxDVL7n8midlZIbrNpp+G5KBU8L9plRyYM1VTrK7YlMHmTZM4Vc3g1HQLtcaovRAzT8Ur1Z5itTdMTQnaqdmnj3V2QguR0tds1bnVfGrFliZo7WgmM4J6fQTz5REcPZPD64dreOaN0/jFvhN44d05PL9/Fi8fLOPAoRr2H6zgnaPA/uPAuycyeIdbkxMtbpt4+3gLbx6t4bV3Z/DCvuP4xeunqByfwmPPHcUPXziJJ189hRePNLF/egzzVIi1BrhhkmfcqNRkcshn81TeqbhqfaoS0W7gSQqlnIVNF+m86CVXyGM0M4c9m6v47F1X4K7dJZSoP8lrPfzTl/5evU+Eecccy2Pz1jymKiWcODGNWjVR3lOkb++H9Z2BTvpVt5L6xcQ1Mg00cjWWeANV2mcLY5jhRcurR1v46d5pPP9OFUdPUsHlhcrs9CzKc3XUWTbKlgaVwzo1w16Z5RXKyVM1HD5yBnsPZPGzvS088uwZ/N1zU3iGCuyx+RLmmmOoZDeixksErXoOGc2tXotlSx2Urk78gzmsww22VNNZZ8P6SgbaqmDneAP/5DPX2Yy5VpDIO+rl2tgil5A3KT9TxjThBiHPYp1TQo+/l8HrrxxEqzEmT4K06fGkHUQwNHlxWSg1cM31W7Bjx2iva6N9Sl8WP7oyYt4m/io56SC4//JL7+HkMeWr1uErzeHQwLgkTsLRGrbtKOLmW7bTOuZVPBrL70KjWsG48S+byaPMC7R9r53AqRNMs2IYo5tg66UTc+eg8lF+sCFk53DDTVdg+45SqLokdfqizE6xX3z9GNtYmXGJK7SVoUkcjRhmL7RjgNfdtAlbGbYmPBYLON0nCF3nvv3GFA4fnLHJEDtdQWubkkHIvzw7y1s+dBmKExwzGBfFWBLa6lop7wGwTzh5aAZvvXoAeX35kmWZ4zioN5xoIkkfcdHzJVm7QJadFqTpjmEoJY3NVXYuWz/0QRR37GCik8LvQfkhrOtIMrV85AT2v7wXuXLLnmEI1mEZVBDth76os9U6f9ZRllUzX8Dl994LTE4mJ4fXDibeL2AISuO8kuEAEsvFWRV6s7NT2eZ5aP8p4AfPHseTLxxGtbgZp+drHJk1NAeXev9lxCpqsh8bhBRS27OOUciO//kvNA51YDzToiEf2Bjbg35S+anw6Ml/KQ0Z9ng6r9CosfMLU13ZPJWgnBQrnSMFI6RJA5leZRRpUlGp1egmywGS0shIUdUaR93GVyPVbJz8UPxsQ+hHsOrWIYiiKavkcBfpvEijMMZzJ3HTzlH8xt3X4tbLAKoo6huMBU+o9/P8PKBoSCqUQ9PAt5+YxS9em8V0VcswwkxlGGA7EVwwUHHX/NHWRBcrWg/LEtRXrFqj9ElfddPKY9UDvX21jkKrimKmgg0TGYyN5lEqlTA6MoJcUu/StKislctlVKpV207NtDBXy6OWKckniuKqQU6Kc/gIcqibjJBFV/9U6xJ7y/84ItPO6iktkzrYZNwK1FTXjRfw0Ae34VN7gBHTVCl0Vmc9V73j5Y7OpmWwN5JdYfkSjESlL7+ZJzS+8nwT3/r602jU9L5Y1nt7aCyS8kQ+KMKKrjKYx+r1JsYmK/j0Z27AHbdv7HIdCS7TpGOz8OjKif6m/QvmeMSEaf6bv34ee1+ep16mFd+0oDMdGxgXHow+NVtzuOWOCfzWb+/hmWHgDUdVAu1SuCDENIbFS6r/bOOsm6dPsk1983W88bo+oa3+kU5YluHHIqVi0Ik3TeZAFzfMm2aF1znH8A+/8KvYc/s6sFob/dWYhRzd38D3vvUSDuw/zYvzcdrogkF5rvhxazGwCFHSaRCKaw6/8dA1uIlh87p+QcDpIbqrT6C1btY99p138MzTR1CoUykLRd0mnpm2S6NlW6MTRXzpn38QE9tq1nfHGCvHUq1uDcJYNjLY+7Mj+P7Xn8JIfRzFht5uMk+pIs8L4hzLNqfPtbfmWQdkln3dXsGYY183kpnHdAm46b/5Cib33MEMWdgnCuWJUP5ahlBOPfsanvjPj6A4VWe4UoilJGvyKHw9UkvqrA+M+7bVw9pslyyr+sgY7vxX/wq4jIOW+h2GLRfBe5VALL3AhW99a4ultk/nbLTrmqqd1oSaakhRNxsY5fEbOH5+6Z4t+MI9V3P/OIrZslXcUCWTVpHshY2OqcVoEKdPtNPVcdtNGx2gfYtKp2ZbTPI8KzzwFNfY1iTsAGs8Vq4XMV8dwXxtnIr0ZZijnM5sxonGhrYcb2xMZANONjZhCttMTjW34ExrE+ZyGzDTHLGX02umVd2d3s+qqqV9e3m9xYnNLmmLcavxQ7fB2yJL2Vna5F7CxkyxX3KeUJ6ocyq1pnH/nm344v3X4nr2AcoZOVMYbffBuyAXAEVDolJU17ibF9q/ec84rr98FEVTNqXoB1dSCsOrpCS06gtdh8yzPMo1chy4wuvUso0SMs0C086SYL7ra1WzmMRxlte+mc14/ugkfvpODo/vbeDHr9Uo9WSbyN46fnaggBePT2Lf7A4cbe7ATHYz688EO/8C81xRUy6rk2VHndHqacWZ6WMZ6lO8eriwpUWyidhFFeuEysMupiRWrjRxkNmyroAH7t2Gj0lxjSMnRWvBw0xJuChrMyBfOtbygLTzMOWp7KJ56IhxPtc0KFN6JdK777zvrEJVtGptBnrXI5dmcdolTLINEzTWD1ifoBE69FnmItmuPJ9CONHvxLcl+LdYwCuOzCWDRhJnNeipaxrapahI7EJelTTJ7QlaPnjnOP7Hz12L27fOoF6bRaVcQZHKQY5KZVC6gtprNxJ4xSiRUmPXclRKrGlamFRguJXYPSdeSTcyehBMD4U1qABQkaDCGpQibYNi0eKxXJGKD0UTp9X6HGq8Ss3kqDBQwqyYvgxGBYVXqrq11tKyhAbtGtpnR2BXlkxfLrx8v8H9KOooYqdhT5ebzkLXFkfmjhRwE0U+y/iEY7LX7IKU1Rxzr0AlvNgsodTIo1jnxUCNwfJ4MVvHjrEp/P6nrsAXP7Yd161jvjIIPd0fg7I8ocTupFe6kU3SwXXJQpfLJYmG1YMol1OB/ZdfnMQtuwsYzc/RQZnXHcw7Kyfms80ODg5b/tmW+WV36vNVXq9Mc1tGM8dyp51uuUuUIbkc6yPzV0s2CoUS93mhkQnLFmyrvLf8V4ZRAa2z/tSrrAMsd/7qLFPN5zboxsqJqdBK4xzLR3v2Y3Q1m6GLlzhYaKvbeAX6U+CxPB3lCizfbI5llcHlYzk8sGcbPnM9QB02LFRmEAoz5BvjZiWqvEjlR8yAhHZ+JNvusovn9vgxFCi+6bq4SvGPmk3oRLoZZO+sCsrZdO4uyOlYxIsVd2KvNhcuCtk2+Y9dZJisSOTcOGcPLgCdTFPspcB2lNjQL6lvsSou2ySJ57e6qz8LsWubbULgvEZi6FGOOatFu+5pKO8hZVGk9jLG/ZsvH8FXPnsnfvOuK3H1JioD1WkWiBTLUJf16ie96zS8LopKChULKW7RrwVhhGZJNz2S/HQ8iil27UGRQncZCXtCBhV1TBO5Nd2SYre2o5n/wn6QtP8WRiKR2GG0zSZKk9nQQ8WFShuV66Yp3kGZs46YR7K5LCbzGUw0prDncuD3f+1WfPKmCWygmxKV7AIlK0U7na6ETqyCiLQ5bVpIdLmYm8VREiXMTttKR5ug4Z8+dBluv2YMkyPz9H6WeaGUUumz2etBKF/lT8xhLcXQRQkVWNuGpRkSy1tJO+7RIi39oHtTQsN5ndIMovMyNqOeqK50pleA2UOLdlGjvJfbsIxESwwkKtMa63lj7ig2lGbwwMd245476NQeVrRTwkZ1qv0LuaaYxFT0ozsl2ktcK3JmVhiL+bAW6Y1vTEuUQSx2LDKo7EP5XiwsSM1SsmbZ0FOrZ0snHafVyG2F3ulXU/t2dOkoLpLhJfZb3dtobo+JMY8SF+ee6sS3dn8j6SWGsxrhXdpoVHBWGQ23Z0NfWpJctR74Z3eX8Dv37satV29EoRgUtiYVw2q2iHJ2BJXMmK05DGsM1SB0K5ao9bVJN5R+jWbt0N1pxNhK4aHima1Rca8w/RVU8zWUC3XMFxuolKjW5lrYMZHFr928FX9w73Z8ZGcL61BGvhnWePajO4wOafveY90s3eVyUePbSS329359G+66bSvWj1O5ovKpmRTd9l88uHhQdSBdD843IXwNDFJc45pWGyio2GrpSC0zavV4Lp/HfKOKXGYON+zK47OfuBIfpeJa4MVcLTtLt7rw6CX4H30VSysFuaVLO0VKa1RcZbc0H9YuSTpMEqXfzL1EN5c2VoOYDVHeH9ZgPjPhMVZLjZ3lVUqGF6V4obRNMW+01QTKilMcfUz1L20ZxErDctK48nqB0KdChQpgAxWYj94AfPm+jfitj12OazbWkG+UUWzOYYTKWbGl5/WzyOpeMAmzbGwcqZ44zogGkfn9EjW71G/B8SCLYtGWm7RogQU11NYIE1hCITNCPbaBUqtO2wo2ZU7jI1cW8Luf3IrPfmQjdk6WqAQxP6jQM8AevxbS33ZtsInl/7lf2YB/eNd2XD1xGtnGSSDXQL1RR62udaWMfd8EhPTa4UESXWlnCQRX6XJcwnkcCaKroGSaGsufXpvFmlunQl6b4UXGCYzlDuGOG7J46Nd341dvy9gdCC31KGCS/1UHFmfQkCD7eKwTG5pTJ8TUWNNJm6Mk++lA2u4SufCkY5GOVYh0tAkSVf4wNBs96TOs/LJMeyLtX8f3tcng2NkRptPK8/0iyUvLYQa0cDaP0rufiIjbpZN4NgCl2YRuopwNOYly8RBSY3lAc1e+9KRUe2YjB4sQ/ehP2s92aLa3gHZgg8RZKq68XiDy+byJLtg00zbB7Q2bgftupBL76d342K27sT4zjVL1GArVWRSpyOhVS2p8WvkauspIv0bwPkqXZpTeT8mi6HhapOzk0WzkUStT5dG7QvVd/FYNk5kKrqBe89mPXoMvfnwj7roS2D5aR0E1l+HUMwVuEwXWlFn5NyzoETw9w1/DLqbpU7eN44ufuBY37B5DsVBhzjRtLbE9bZzuH9skaWWa+/3suOWLJDg9K9FtPG8JmKt2p6yCscUDtMuyLLO8CKtjIltmWR7Hx+/Ygs9/8ipcvw3Qc9k5e/o2qK3anivpGMu8YJ/xbG+jOXVMpPft7R+yT45dWGLMRNos2iVuBDMHbs2Ex3RxG92Y2YTnJaIj5kt7fy3TTont9aN95P0ouy4/Q6+sAGVtInPcT5tTsjwSD/rQ5V9ioOu2LIq8HeBoSedfUELKu+NplxKJaFd12Q70IZVzA9106MqL5NRgJ0PKA8vQKL3QLl0h2u4kznJYjfHCWSHpAULrOrWnWbjbObD/4f1F/A+fvwV7tjSxsziP9Rzk81QC1EjqKjW5T7WX4aeFQi6DSSprI81pTDQOY+f4SdxzUxF/+MWd+MTtwAeS79xn9D6Z5MV6oQLr//BVZZV3mOcSVNYLTey5roB//vkrcc8tTGyzgka9zpzhTwrsEKC0aNhoZvKsn1kUmkxXdQpbWifwlQdvxRc+shO7xkJplam0a7GIvs1WTNbLJj36KhBydTXQDLTyf22XQCq97YjSsHrZsEZZvN0r+W1RdrxfWWKdcfKGjRWh8yXnQuwHkxRHJYnm2Mv0Yt2KLnB0OMmb4Hqt96cxvxh3xZvpDG9YYdxt3xyRkKKQD2nkKC65Eb3HUyR+2SZmbzS2w1kO6bBUX1ZaZy5t1noNvYjpVOCkfyGsxI0q1tG0ge3qth3Af/d7e/CF+27ELVcUsHVkFuOYstdDZajMNjN1Dv56l2BYAytFKE9VoKhXJ1HyTb1eKngeHoyK16MUa+FJZ6sn223LQGPLT5yZ9ME6OOssgnM17fCgUBPhtVwwsSfe6YdeexSHf+saaZT+qafTC80mSlTSRhszmMwcxo7RKdx/++X47//gbvzu/buwawR2U7krKhZocnW9gBjxcDS6SdumJdDvSD9ZTSwXrdxUekWWj9J5JdP725/ciH/55Q/g1t0FbCyeQSkzw/yqJjOB6nTV4WkbclUPZ9mDbZbn4YEt8z/eCrbbwXTZLue0yIeFyFrn2BsvFJaVLyUp1/YDYUk8NAiqRDTbl2vVmJ4pbBg9iTtuKOEP/8ke3HNzFpePAut4ji5CiqytIQeE0tM/HhG5i7IYwU3HleqpcjnV0LiJ5pQdt2FPA6LyLM/8TvJNUVs8ej2k/T0Xoj9p//r524lcOBojLFHaKe3zaGeFG8pfD2rqmNIrd5bettuYJx2btUNMFzes16yZNCm+Kj8JY6zjJrIPvw6qrUrr2eveQOw0+an+T20rrNsPSmzI3+CIYnmeFh3n1s5N7EQ6igPN8jecorZpL783L+goCm3tl3irjS1vSIniqBtWdBb/pbYJyflrhxDvQCeuSk5Mdei19JBzFNpZ36mlTPp8tRIdxk1z3+4PknxKJBKOdEIVNv5xa9ln9SvaBfsQH7sHxfGOW+7rWAiPtTWnuqKxl74mAcZYBOn+Od0oX50LgLWVpOar89Drk/TyoZGchnXC46PsADdRMb331jz+4HNX4HcfuA4fu3EC12xsYLRUpQJRw3xtDrV6la1KjYMKaz2PsVrRvjFfrOsTtGFACo1ZT3vnrTFbW1GHn61SajTr9UxaS6slCe22lLgLjTt8faVzSzhL0W1hNUqhV3TVck1UJAy2ksuY1Jg4PWxlChX9sVc2MYF59u/FRsNecbWVfu/ZMYIH7i7iK5+7FZ//+E7soB86tp4K+jhqjL3eKZrutPo16WA/6Hj30Y70t+0nq0vo5phQk47/GyifuBL4p59eh09/cAJXb2deZeYS5ZWDLsvLPgJBRZZFb4866TU5dRaGJCiwTL8660aR5aQc14AaXsPVVd4ayHgkDOWqkHqFFs+j6EVV9kUa64nV4aosM5QcGhS94syUH7uA4jar+tbEhnwVN+0GPvfgNvz+l3bgqst0kaI3KoSH64LymkEh1AT6rfQrL/rnsWyj9KP3mJmVKEOKqF6+xrBYz2w9r+yi2SS1r/xtFigjbeXVkk+fBoXfTXS59DMG0+tXWjr02ii+lgGmxCiPQ5mGtPI4HdgHSlj+MuvFdJnWGLfsM5L8SBP9T4dxYWEcGdum9W1Mpr0vW0qcYqg+QgqByk7pSIT7ZtdWNFSoUjjZr2hrebVEYmZE0etXmJ/I6YHTMr3Smz/YxhiPoChqG81xX+1PohQozooLN5HE3Cmzjl07jcRefs/w4hs+YpotnUqiuZJB7Tz50WwXooxHaYQXaTrFylySQlFLb9cEMb9kjJkS0hfySS02jwb7Pr2lp87E6RV/9sYe1e/GWGjf2Uao66z7UYPvTabtt/M8XOYYSTiqYVrOZy2M4WkMl5g9nVnPTk9sa3bhnJaeaWAfqWcbrJA0ODJJOifERLLw53ToqanOhaSrcobaS2nZQL+eJXXnlRl8+VO78HufuAUP3bkT93ygiGsnKthcLKOYraDeKqPKK7k5XtFVqRnW2DDUScnfHBuHzXRSsdBVoNpL6NzocewAks49VIuUmD2bVc8x64CzVEjYcerLIqYeWxhhxteaqYVB1wqPx+0LJI1plJqnMNk6iuvWz+L+6/JM0zb8zn3b8Jt3XYdbqMSuZ2tXuvPsPhSaxc+atqBnFx1KX0Qds26pl7F9E/AP7tmML/3GLnz+vu1U8E9i28gp9nnMcz25T6VRZRq+GKMLAl7ANPJhq86Qx3Rb3r54xrLQBU54xVUi1EYzvAAJM40qq1AnzE7HNPvIjj5nQn9pl28wHPodHiDkAEGFNVvgcJGdxtbSMdy5u4IvfHwDfvfBnbj7hhLGWF7hwkPuQzqTGteV6tUj+GyDvaEBQiIVn3XH6vEgVFGpYPOiDvZ+5aDY6KMQ0nUuPINyrDdy2mchsY0G4n6SD5YXyVbptXRWki33md6hgNEMKVd8lVZ9BjT0eZYC1Wf9LD0dsf7P+qdQh8NHXZKJg6WigEPgAXlqFjEc+Z0W2im8KNafyZ3KhJvwb+nIubyUkmzvAVc5hovSUM5ROV5MVOZznbaifJHQuMzYXACUh4qylikxF/UBHg40NV5ca2ySKmrpaPdpVB/Zn6k3snPZ/zXtbkMBRd22SoilKIn07gvTNxPpPWaYfbhACBcKiTBo9b35huqc0kDRxY/QTERfz5xeQuk7axNdDVI0tzDCXc3GbaXs2QZ8/o5x/ON7duErD9yOX7vzSlx3+RjWjdSQy8+hkZ9FPTfPRiKFQa9e0m1cKbBSWtWgY6NW551SZKw6UNTRtyWxC2e0j1tjNuU1GewYjilKWgbAfjPPFh1eWM9rXSpOhWYNxWaFMoMd65q468bN+PKDt+IPPnMtvnTvJnxyD3DdFs2yhq8sSTnSFStjSBt1NlG0349B9oHFj64llLNS8pmP3JYwjwkqFNdsBh788Ch+55Pb8LmPX4Vbr96O9UUO1NXTzN8y80qfPaxZvmnJSIE9pCmYzH+bcbXOPJR3Vg/E6S0A2rJ8g0ix7UgY1FXW6tyLPD1RXhtax6oZc5ZrU+WtGdcaJkfq2HPtOjx0/5X44v07cf9tRVwz0WCdZZlT5Gf4bKbK8Hyg8Ci2UR3lRVZ2loN0mVsO2Jqp04VXX5mlTDOqZ5DJ8Ry5N8VordCvNnfsTBExBVyKidI5Z+nKSKSoRLOJ9pne3AxlytJs7qXUsir2C2ktobRaHFW/pIhlmQ4ra6W7HNJo+yk77qseZFgvVXdNebR2t3KC4qh6FkX7QcIsrKTHbHdBwkxtWLqh9hb8W5yUIyU+S3+YvlZujsItzU1Jrmx+B3Owt+PRbKJzkvJO+WvRWVJcLgRKdJSgtDZyNSqtyesV8w1U8prAqQdlltlay2YpeUoOFXZB1VwW1WwB5VyRZim1dMQmvpwka+lUlX7pLmOZEu82lk2ymM9nMF+QZDEnyUty9srACsOtZzSqJ30i/bLk2BXyms34NQV1mbUxn+AMgsVjJZRUaisu1vKMPpoZut0Kd2fYXx54r4r9753BK2+fxjsHT+EM++tmjupgYQOqrRLKzTLqVDb1lgMpMqGdUJHVrd+2/1RI1Yh1BZigmx0WJBVpudQOr9n5o/KUo3LMjsFubdGm0aij2dBHBrLIsQGPsKMebc5j21gWN+7eget2bcZ1V1JBZWPVN+z1miQpqWzv5rOhaCTBh4E4mM+OTlqy4zWI4p/c1uMvJD2mJ/Zu7Cjp7AzHmsOngNf2z+HJ517HibkmquwMm/UNLLsxXsjn0GAZKh+bKmP5oOlvKpwtKpwqM30ZLRK7AW2bUkh5PMuOttkssTy1cECv7Krz4ojHMizf2hyV6hou25DDHmrWN121Djs28uIjeahOinMXITHnEaYjCbBGnWbqNG0UJ7MK+dwdobSZx6TA05Tj2JKnlEbZjLgNSkbabdjrtjkfhPJaELKiTpmjPlKmrsaibLeleEYbntp1Nh2wyNk/MK1smKNjslQPI2Iqe8I7zygN6XTIrBjpvR0zZzKoltVOOkS37ZlF0jYmdZRV3b4yOKIyTk2+ajLsrKllAPrq3zz1/3pdCiB7QV0Mqj+kv2c9nyhuyu9CSe0yaZPtE9l205FvEyLf4kVqmWWtOq7neVssLr2FMZa5RTCKzcK3D1jAOSp0pVIGY5oZ0fpLXazasbBpO19KQs4bilSnXraojU6f5EVYjelRvvM41Xnr95Qa3Z3K6w6V9QhqEMqH5OJCfaAa9uYNaBRGeJ5u+zMr5DXpTbbObPfENfaKx0+hUeGYqsJWFtsx9bfcsX3FNZgDsqQUmNcjDGnzDjQz+pw3D5mnSlc7BGcRXHlds6SKxYxxn1ubxUokGhOm2bp0pTnHtrHvHeClvcdw4OgszlDDrbE3LrOHo27J9suTWlRKuG009OlPDfbyiv8ZhLqA2GlqrZzZaJdhV2t1zFfK9hnZdZMj7CjZCTSrKLDzK1JryeeaGBsZwWVbt+KWa7fhqh3AZROJUkO/rUOxjiSJODfBHJQsEW7zpejZvTjplLFM3UmOx2hi3tQ5QOr2E8dMUG81RXbvO9N4be8pTE1nMFduYJ5ablW3/rN63Za60ZYN1Org5Z+U1KYuVtQF6E9m/nRYHX+DHX6JHboG1GZjnudVMD4CbNuyDld/YAdu2pXHNduBrSxYdbf0gGfrtq3M/GeztjpAZBflPGHXX6nwrKezfQ0Q6YhFkgj21r2EoLiaKdkGkrPWBr1pTrbLgvWgk9boYVouHIpNOk1WX81GZRrjF+McFMG4F4muRFT0rMhZvzN69Z7ddWCdpl36vP4wBvSgyX5UD86qDemsHNuMLgCtzkn60olZSIdI/ocGFcxJP9yh46GZGHlzMTAc0vYiOqKF7LQr0Xpdab5aPiF7U3RpiG0h2awNFGHFTyJzGJ+SXsjgiMSeKIw1GnPa1Vlox9KanM9TqyqrxB/9D3f8OvQmf0XZEeNgJ6uvrTOe4WpJMQ+iWMf0OIvhyuuaREWSLhZ1z2E5vmxjtY7baK/m17RGoX17BANz3NFynmkqMsdP1XHidAunT1OZPVNGrQqU56mIlus4xU6qlitYZ6svf9VrbNw8T91ieHhDWzZsutGMnWbuipkG1pVa2LAuh/XjwJb1WWykeeP6PLZQeR1n769v6i9ohs3kNiz9U4ehB8hiapRKC1NNOa1ELPDkYkYlGEs1EuuAVhaznBssYbvVxYuFvGa+zYg6+71j1GjfPlDGsZN1TM3mqczWcXpWt9CyKLPQq9WyfQAhPSYGc6g5pVLJ3i9bGilgoljFpskMdmyZxJYNJWzdkMHmsTBjLuVwJPFDg4WMKkmgQl/KlDHa6aHBpPhieHH7PhNS0yFcnglFIB5Ju0iTPlt1ka1pQLxlfZ6StGTUju1SRIZ25PrFUmlUAWn5R2h7Ye4pmYGzPIvnXfiUdkqlY+ogBVbxVS2UKB2B3lgHhZcppnMbAWPSUlpOvM+0XOKIqvpi5o6X/WGYurhsu+N+d9tMxyJ6GOyk9Abz2eI6KBIKO5S/lHYtDzKPNAu7hpWokJpwsa046r9KPFzKhEdTZWc1WYZwQgdrIBRdofBgUw8U2wEbeWzbm/ZoE73q5+3Cszp0KdAJ9pAttwpbfWpOnzdPJoucxXHldc2SLpbQOPsV1MIqHhq0fmEQ0kdXtRf8sO6dBs2+qk+sUI+sUok9Q5ECIuo8JsU2et4Og4YCxzTdZaFugxLNJQZR0j5bfBwuolhoCpQjhIZFKbzmmTpL6zAVJ6rc3Iau1xwnZvnGbUy0rC4ZlOiY8IgyoKcesCBtDXOOecgCU3m28kUrYyvnZFtlwVYosyzTeZb3/DzLtxa66rDkw4qiLeO8EOG1h91GHWVBSo1ReSYlYlvZySzScQp2WlSi2qRZBa3ZJnIQTzhPdOWV0S8S3S46xLPlPkqk+5xwtNffYSKmtTe90S4S7S8sIUYxXkF9CfFSndaeSiPW1sCgWMu1RsDom7WBzt7A85ZMyu/ByFEnVO0rHpGFyqsIdiH1ob+POdF10S9Ma4rnqc9YmCqbaad9pj3zqp4j5KHOXHjGhSWmRqaYbsVR45zQKCL038ai3kRoP3qiiwcea+cfHXbO7ibapE9fCr0+RUVWN0BjrbU+VTPCqckcZzCuvDrnhUHVbGHHrE5TdhJTe4K1t+WBpPN24S3GQL/8H+T2YkEpXpjq1SAo/pFQW8P/i4veHFx7aexWXTosNaYxhdGXlc62itjGVtKuOs2zbWhzdv9CCuJdt0C/c4K7zpsX0q50TGmnqmeWquNSXDvKa8ft2iKUnWKaTk3HvNR4h7oU8+Hs9UAue+ln1w/5bf7HE7RjZua7lffZQndceXXOC4Oq2ULlNe0uUV6dRUnn7cWukC6H3tp07kQfo68hrztDTTrvL4Zy6M3BTkrXCr0xjCw1pquVwnNtg+H0filZqn9Uu+hJfx+66fWt63a2Zv3MgfxKzwZ398ZdpyTbC0eMTYyJ9jtxX2r8guoazl2K8pomnR9p8yDkd3//Q/jO2XHtwFnDLKUbcJy1guqr19nzTVQE0rJUzuXc1eVc602I/VJ+6dT27nfomPvFLNb0KGuLEPfeFC2NZZ6VJH5lYfVjdXy5FPCZV2cN0dsVrl6X4Fx69Namc6e/jwtr6cVSb3vTe7Gky+mit0onRZwu/d6STy+c8VrhXAh85tVxHMdxHMcZGnzm1VlDpK/1hV/TOytn9Tu23vrZobuWXiz11tvjJUFvlU6KOF36vSU/4BTHOW+48uqsMdLV0btE59xY/c5NPkZfQ/1cWEsvlnrbm3veHi81BvXGg+wd53zhyqvjOM6y6FZeHedixmu7sxbxNa+O4ziO4zjO0ODKq+M4juM4A/FZV2et4cqr4zjOstBQ7sO5c2ngNd1Zi7jy6jiO4ziO4wwNrrw6juM4juM4Q4Mrr47jOI7jOM7Q4Mqr4ziO4ziOMzS48uo4juM4juMMDa68Oo7jOI7jOEODK6+O4ziO4zjO0ODKq+M4juM4jjM0uPLqOI7jOI7jDA2uvDqO4ziO4zhDgyuvjuM4juM4ztDgyqvjOI7jOI4zNLjy6jiO4ziO4wwNrrw6juM4juM4Q4Mrr47jOI7jOM7Q4Mqr4ziO4ziOMzS48uo4juM4juMMDa68Oo7jOI7jOEODK6+O4ziO4zjO0ODKq+M4juM4jjM0uPLqOI7jOI7jDA2uvDqO4ziO4zhDgyuvjuM4juM4ztDgyqvjOI7jOI4zNLjy6jiO4ziO4wwNrrw6juM4juM4Q4Mrr47jOI7jOM7Q4Mqr4ziO4ziOMzS48uo4juM4juMMDa68Oo7jOI7jOEODK6+O4ziO4zjO0ODKq+M4juM4jjM0uPLqOI7jOI7jDA2uvDqO4ziO4zhDgyuvjuM4juM4ztDgyqvjOI7jOI4zNLjy6jiO4ziO4wwNrrw6juM4juM4Q4Mrr47jOI7jOM7Q4Mqr4ziO4ziOMzS48uo4juM4juMMDa68Oo7jOI7jOEODK6+O4ziO4zjO0ODKq+M4juM4jjM0uPLqOI7jOI7jDA2uvDqO4ziO4zhDgyuvjuM4juM4ztDgyqvjOI7jOI4zJAD/P2XjQCm3nVaoAAAAAElFTkSuQmCC;" vertex="1" parent="1">
          <mxGeometry x="1029" y="327.76999999999987" width="127" height="58.23" as="geometry" />
        </mxCell>
        <mxCell id="EbK2CHf3StFBIsQLwMvG-36" value="" style="shape=image;verticalLabelPosition=bottom;labelBackgroundColor=default;verticalAlign=top;aspect=fixed;imageAspect=0;image=data:image/png,iVBORw0KGgoAAAANSUhEUgAAArAAAAD7CAYAAACSRKcwAAAAAXNSR0IArs4c6QAAAARnQU1BAACxjwv8YQUAAAAJcEhZcwAADsMAAA7DAcdvqGQAAMoSSURBVHhe7H0FYB3HtfbRJTHZlkm2zEyxHQftMBfSNsWkzPgK7+Vv+4qvzExpm7ZpU07SJmmaNEwO2bGdmJktyZbFePH/vjM7966uJFsG2VY8n3Tu7s4OnDlzZubM7OxsTgoQBwcHBwcHBwcHh0GCgHd0cHBwcHBwcHBwGBRwBqyDg4ODg4ODg8OggjNgHRwcHBwcHBwcBhWcAevg4ODg4ODg4DCo4AxYBwcHBwcHBweHQQVnwDo4ODg4ODg4OAwqOAPWwcHBwcHBwcFhUMEZsA4ODg4ODg4ODoMKzoB1cHBwcHBwcHAYVHAGrIODg4ODg4ODw6CCM2AdHBwcHBwcHBwGFZwB6+Dg4ODg4ODgMKjgDFgHBwcHBwcHB4dBBWfAOjg4ODg4ODg4DCo4A9bBwcHBwcHBwWFQwRmwDg4ODg4ODg4OgwrOgHVwcHBwcHBwcBhUcAasg4ODg4ODg4PDoIIzYB0cHBwcHBwcHAYVnAHr4ODg4ODg4OAwqOAMWAcHBwcHBwcHh0EFZ8A6ODg4ODg4ODgMKjgD1sHBwcHBwcHBYVDBGbAODg4ODg4ODg6DCs6AdXBwcHBwcHBwGFRwBqyDg4ODg4ODg8OggjNgHRwcHBwcHBwcBhWcAevg4ODg4ODg4DCo4AxYBwcHBwcHBweHQQVnwDo4ODg4ODg4OAwqOAPWwcHBwcHBwcFhUMEZsA4ODg4ODg4ODoMKzoB1cHBwcHBwcHAYVHAGrIODg4ODg4ODw6CCM2AdHBwcHBwcHBwGFZwB6+Dg4ODg4ODgMKjgDFgHBwcHBwcHB4dBBWfAOjg4ODg4ODg4DCo4A9bBwcHBwcHBwWFQwRmwDg4ODg4ODg4OgwrOgHVwcHBwcHBwcBhUcAasg4ODg4ODg4PDoIIzYB0cHBwcHBwcHAYVnAHr4ODg4ODg4OAwqOAMWAcHBwcHBwcHh0EFZ8A6ODg4ODg4ODgMKjgD1sHBwcHBwcHBYVDBGbAODg4ODg4ODg6DCs6AdXBwcHBwcHBwGFRwBqyDg4ODg4ODg8OggjNgHRwcHBwcHBwcBhWcAevg4ODg4ODg4DCo4AxYBwcHBwcHBweHQQVnwDo4ODg4ODg4OAwqOAPWwcHBwcHBwcFhUMEZsA4ODg4ODg4ODoMKzoB1cHBwcHBwcHAYVHAGrIODg4ODg4ODw6CCM2AdHBwcHBwcHBwGFZwB6+Dg4ODg4ODgMKjgDFgHBwcHBwcHB4dBBWfAOjg4ODg4ODg4DCo4A9bBwcHBwcHBwWFQwRmwDg4ODg4ODg4OgwrOgHVwcHBwcHBwcBhUcAasg4ODg4ODg4PDoIIzYB0cHBwcHBwcHAYVnAHr4ODg4ODg4OAwqOAMWAcHBwcHBwcHh0EFZ8A6ODg4ODg4ODgMKjgD1sHBwcHBwcHBYVDBGbAODg4ODg4ODg6DCs6AdXBwcHBwcHBwGFRwBqyDg4ODg4ODg8OggjNgHRwcHBwcHBwcBhWcAevg4ODg4ODg4DCo4AxYBwcHBwcHBweHQQVnwDo4ODg4ODg4OAwqOAPWwcHBwcHBwcFhUMEZsA4ODg4ODg4ODoMKzoB1cHBwcHBwcHAYVHAGrIODg4ODg4ODw6CCM2AdHBwcHBwcHBwGFXJSgHfucBzghJlBjnd0cHBwcHBwcDiecAbscQaF6QRqjFdnwDo4ODg4ODgMBNwSAgcHBwcHBwcHh0EFZ8A6ODg4ODg4ODgMKjgD1sHBwcHBwcHBYVDBGbDHC76Fr27tp4ODQ3/g1sw7ODg4HB2cAXsU6NHp2Asc/cbraW/Iup7ZweGQ6NGW9APuvVsHBwcH2FhuF4Ijg7/DSb9pbx1J1mpN38wC/KRSSdzCTXvfRjgYQHVJggIY+wSzMsh8JM2pwsogy5uDg4OpLgkQZxECvND6k5QU6lVOjqk0dLLVJ4GreDwuwWBQAt59U71cBXNwcDj94AzYI4DtY6zA2G3oFHb2DYI3eI0OKZlEN4UOJxAK6tHCij7HH+5UB/n39ZeWdXXS/HpHOvjJwcGhG1hNaMCyegQ5KIyb0V8iEpQ47gZwx1YdNXLNqVfFTM1j20Fj11UxBweH0w3OgD0CUFAkO8nIToOdinYevIETa78l8Zug4UrngOmK4nCNw43udAtwFhPILoDs61MJyRQM8kRSO81QICiRnKCEIAUrB8s7zy05ODh0h2kjDHiOoa0eO+NRaY91SSAcklAwCHcMfHEjCQM3HovBLSSRSBiufuPWnLm65uDgcDrBGbBHCNvxZAuN1ySarFH4aOlokfqGBjl48KDU1NbK/roDsrd6n7S0tEhLexuMWNt9IZyv59F4BkFPVFRQKCVFxTJx4kQZM2q0TKwaJ8PKhkhpfqFEtNsVCRuvrmN1cMiCbS+IOKgzGZP1WzfJk888I2s2rpdYPC6JRNzMsNITBozl5eVy7jnnyHnzFkrV0OFquHJAzIGkq2MODg6nG5wBexSg6WmJj/potKbQhXRKTLbu2SnrN22UDZs3ybZt2+XAgf3S0NRkjFJQCh1RtpGqBeBd6z1zeuoDPCcCZnZo8pgqmT9lpiycNlMWzT5DhpeWS2EoxBUUulzWwcGhO2w97wA9+eJy+cXvfyubdm2XJOqVEppmthM8N+1CSgoKCuQVZy6Wj7zyDVJZWZk2YB0cHBxONzgD9ijAGRMarWa2NSVN0TZZt3mjPP7MU7Jh62bZuWe3tHa0S04OLDd0PgQNV2PAZjqu3uB5P+VhOlQa8SY3ARiqIRiyFWVDZNaUaXLZuUvkledfLLnMt4ODQw+w5rAN2d/RIp/9ztfl2TWrpIvL5HGD7QRf2tJ65lUhLttJYkQ4NidfPvbqG+RlL3+ZFOTlm5sODg4OpxmcAdsX/FLxiyiQI104WCN23Z6tcsc9d8tzq1ZIa7RTuuJRaevs0E4n4M2MpI1We/Tg9UvqmD4HBsVLXb68xGIxfSEtiPyGQ0EJwnAfmlck54yfLu9989t1eUEYcvPn0cHBAXUH9WbZhrXy0a99XpqTUenKSZodCQBrwBI8MzUoJWWdItcuOF8+/P4PyIihw9SPq1sODg6nG9zD3d6QbUDiOp5IShzHjnhcYnCqT3bIn/9zp/y/L35e7nrgP7L34AGpb22RtijMW760BSOORp2OD5LofPiWsXe0pNtRZZ2TbLhTmsgr/mlsh/liSSgMAzZgXjZJJGR/a5M8vG2N/L8ff1OeXLNCopQj11wQsPwZhxG0XYxhiW4ODqcHuI61vr5eOhIYBPJa6wZqAiiAkW8waUkkCLcg3KLhgGzrapK2FE1cBwcHh9MTzoA9FGzvEMyRZCggCRzjoaCs2LJO/u+bX5ebfv8bOQhDLR7IkQTXtnJW8hBTIfpCRi80aOEZs9mgC9fGNkXbZVP1bvnWL38qdz9yv7TGoxLvSkgSBq6DgwPqv3e0tSgHDQiGtDzTc/vHfT5se5HAbS41SKLdIXrWQAcHB4eXPpwBeyhQOugjuFwgCQO1HgbZfUsfkS99+xuy7MWV0tzZLl2JeDejdVAbpMcROTBsc2IJ3ft228Ea+eVtf5ZHVz4nsZxkWl52NtfB4XSFWyLu4ODgcHRwBmxf8DqW9nhMlwwciHXIHQ/+R372x9/LjroaaU/COAuH4Y8zI9yrEZTMzJqYCE5jSgVgqAakPRaVTknKjgM18tPf/1ae2bBakmGuDe4lTJocHE4neHqvIzvfsU8yBw79LDk4ODicbnAGbDa0R8AP/rkiM56TI03JqPz93rvl1jtvl63790k0GJAueIjpelUI0Rqw1ng9bAf00ifuusBZ6wTOEzTy83Jlc/Vu+e7Nv5AN+3Z5M089wzk4nH7orR54xLak1/bEwcHB4fSGM2B7A6yreDyhBmo8mCP/+M898ps/36ovJnXmJCUWSKX3atS+xaEbKBeugeVaPfa1fPkkEYtJLJWUrQ218rd775KuLs5re9BBg0cODg4ODg4ODoeBM2D98BlQNFKbU1F5fPkz8rs//1Ha41GJJhMSjIQlEAymJ0b4woUaswjjjNmeoEjspzAFcovCiF21YZ2s2b5F4rjJvS27GbAkBwcHBwcHB4dDwBmwFlmGU1cwIEs3vCi/+P1vpLmjTVK4pidue6NrXvVzqTBkdQcCGGi47WwvAxqsuu0PJER5BWik4p8vdKXiSdlVvU/+/dwTcqCt2ciM1r8lJ0QHBwcHBweHw8AZsBYwsEicReWM6s6aPXL3ff+WfXX79dE3dxfgHow0zGig0buFmYk14dT+8t88TUERqJxUIACMWJ1tBaLxuKxY/YLUHqzrKS8nOwcHBwcHB4fDwBmwnoHFA7fLInF15oo1q2Xtxg24Tgk/l8ptoezMIo8kggeSXQ9rjVkHY4v2Zo9SPrur98n6zZuktYvfNQP68uzg4ODg4ODgkIXT24D1WZp8es3t9WnArtixSf710P3S0t4uXfGE5OQEddmAfhEHR+42QDh76+gQTyWlCbJ9dsXzkgqFdC0sRcoXvzzROjg4ODg4ODj0idPXgLXGq3e0yy8PJGBYrV4l2/bulo5YTN1Fv+Ovq1/VkLVfxHE4OugWW8GAbN+9W2oOHtBvvuuLcDRkPT8ODg4ODg4ODn3BLSHwoRWm1O4DNXL/4w/rV7ZoWPElLTVis+AmCo8BNFSDOVJbd0CaWluc8erg4ODg4OBwRDh9DdheLFDuMfDkc89KNQwr4a4DlI5Ot+JeICVJu/jVTsGCcnyk/jQeR6S+wBlYDgxiyYRU19RAbqYweikSBweH44Te6uhAkYODg8NAw83A+tAmnfLoU09IR6xLkjRI1YAFqfGKhhnnOlPoufMWbS8/GUdHh0IKf5RjHAZsQ1NjOogVt4ODw8Ag29AcCHJwcHA4EXAGLIFWl4bTxs2bZO26dRKNxuDGnQfMbYKn/kfdestZW0cNDgbsC1s8kJwB6+Dg4ODg4NAfOAMWhqpnjspDDz0kufl5EgqHJBjgNvw+g8pe+MnhqGCkTeQY8fMMx9NBpMxvMpmUZKK3ldUZ0F/KCsehB3zV1uEYkd2s9Uauo3A4WeBXHA/XXjqcnji92yW2zOgJU6gg7Z3tsmLlSjVc1S3lKsyAw5OzdpL8OU2Q4tRzTqbqwZ7tBhpnsVhc4rFEj3unNazBimMCHZqTzfGB1r/DEEXPI0H9JJ2WONXzTf4svQTAblh1zddeWtA9kYBxe6q2A+BPeefR5iMLdIvHk0q93Xc4NNzA2vtE7I6dO6WtrQ1nKe0c3ezXwIFf5FLp4lhSUqpuCjoOArFbNo+GVRrqwWCOBHw1LwA3qpuS1xiHwyH4CaJxhi4eQwPt59XSYIKVCzupBAaa2mHhOoh6S1mqO90S5ryvjsKhb/QlLrqTqH6UOak/srWG7smE5d3SMcEfwQBmjsmorL3zY+YbOF7xHCssH0fKC+3W7PaSkVAPWRQ97gFHk86AAAzqxAyP4FHPswFG7RM5zjS7tuvIkAND7bQXWSKR0A8XfPm3P5fGZNRUACgc35bPIKuWOBwaEGJv9ZXgFloxeBgSD8l3//cLctHcBRLWG3q774CnAFQ3zKmy2Ueb1APslAgNj59YPC7Rri7pAjU2Nup1PBZDQxeQSDgMAzYspaWlUlRchIYvBw11sJsG9pa2/zpdrRE2m5+++D5V4OfXGk5JWKZqzCNfPB44cECikFcsGtVr+5nivLw8GTJkiBQXF2Nsyp2be4fKwJcQT3vtYAYYTPeepU/KJ3/6ba0TaqQrc2hxeNPyqMyaiyBo3owZ8vUP/z+ZNGS4utLtcLCGkYU9h/0vrW2t0trSKm3tbSpPgipUkJ8vxSXFUlRUpG4h6KEFz3oTmfLdG06QfJl8NgueSPsFftCGMAY7jQoTW2trG6hFuqhz6DMCqKtW78rLy6WgoEDyItqSKRjKpulP255bHnnNc9tGEHSzdESwkeLE9l9+Pk4U0ul5ifNgWdN2TB3ww9G7hc8voV5ALAfbXrLOt7VCT9valNheFhYWan0fMqRc8nNzNW1LJwp+nv1gXqPIQHNLC3SnVdrBs+YReWfrFEI7zzaLechHXQuFQoLu8ZDWRna+rH5aXTyd4AxYoFXi8qPf3yx/vOdO6fSaEWfAHiOgVX1VJ74IF00lpCqvTH73nR/JlKHDJejXwlO0HloW7bE3NmPJOAyCFDr6TEfWiRAHku2yeed22bRpk2zdsk32VVdL/cGDaJyNQabVUKsimjVEbI1WdoplZeVSjsZ51qxZUlVVJeMqx8qI3GIppl8NYUDNZaqqwWkm+UzBO/V+/WFOCCwDFr1de0wp7x5z/MjwwY5WWb1xg7ywbo1s3g651VTr7hVxdGiUl85aMAIcNRjc8iK5MgQGRWlxiUycMEEmT5wsUydPlsphI+lDa3I+KKJXgLUc+hJKX+7HAcz6gBmwNl9e08WvDDbHuqShrQWy3C5rNq6XdRs3SltXh9Q11EtHF1o/bzBgKZAT0E6WnWtRUaHMQLqkWVOny7SCISpDJkOjj0fykgdKW4FeXgZShtnISCoDm7yfDTUiWNmIGEKEObAWqUdOdtftlXXr1suGDRtl7759crD+oE50cGlPAvrHehtgWMoJYVKJpBTBCKHecQBVVTVWZkybLhPHjZMRRUMlBD8k1k/yFo3HNHwoGOrBK8E4WWx+fg8Lf0Tgj1sV0ol6xbLhWx2cniHHrEOZgUpvHPQfDM985KK9Sush3MKUD6PGue7ig1Omrepok+wlgx242YkBa11LE+r+enlhzWrZyY/eoO6zDAxhQMtBLcMHAxIAzYFOvuv6t8jcUeOUD0/tjw19icbjO4nRX4IDZVxT5eu72qURg8Hlq1bIxq1b5AD05mBDgzQ1N6kRTt61bOCXUWg9gxGeizarvLxMRo8eLWPRTi2cPEMmT5ok5aWlxh+IeaIO8ZwlRx1kCVOmdPMjrdcvcTgDFmhA0/6Vm34g/3rkIbRjpiN0BuwxAlrVVxVi9aWRd9kZZ8u3P/k5Kc8Jdp+1OUXrnm10smFZZ6MSxW80FdeOohYG6noYrI89s1Qef3G5xGCEcOaG/QbXXWt8h2hotIOBnALoGNhEdcLA4ExYcWGRnD11tiw58yyZO2u2lMDILY0UqDHRGY1KfsiYZow54J9mJNhgeqcnDH4W7LnPjaesbzTcmjrbZXdtjTz29FJZ8eILsmHbVmlob5Fgfq6k0EnZXUDSgHz0mgasRmTqL2cK9dt5cFNDAYZY1dixcs7Z58gF5y+WcUNHSGUolyElhj5FZz36Ekxf7scBZPm4GrC88PilcR8joWvtgsGybttmueeB/8jjzz4tzR0d+jU86iSNqSQyzwFTjk8I7BrwLwHvHo2GOPxylqggnCvnTZkjr7z0CtXB0uIiGCwB6DUMOb5HcBINWMInhh7w1yvW2S7kqaMrKlsxQLrvqcfl2W3rZefe3So/GgmUAYaY6bA6aELk1CvWX8qJxcP0Qsi7vj8BCkIeYVwvOmO+nL/obDnrjAUyekgF9DKF8sI9EHsVE3N3Mdlze31Y2Eh49AVkMTCNJuRg854dcvs/7pBt27ZLe3uH3ieO3QSgHDAgjIRl7pw58oZrXy2TR1Sap2oE4qdOMxXzPctMvlJx6B/arBzW10hIapsb5LnVL8hDaDOXr3kRdb9Vgog3loir7LPbS8bLNoFUiH5kwZTp8usvfAviT0gBZN/d91GgN9H4Iu0ENcNo3bhjmzz21JOyEgPtLTt3os5BB0LQBdQd7nfOunMoZuwtFkU4lpT8aEqGlJXLLNTzRWculDMXLsQAfBRiTUgQnvg5ex45SKBM2VaoLvrSOB2MWGfAAvUwYP/ft78kjy9/Tr/L79U0Z8AeC1ihvNNs0J0N+39d/w5545UvlyEhNHXsSWyAvgKebNia4q8x5BVE9mmAHOxolpUb1sqzL66S59AA76zep/sK00LibBY7NQ2AOPzRZIONj53hUUOChg0awhgM4Dga8/zcPDUiRg4dJmfOmiNnz5knC2bMlvL8IskPomsEQyYlXyrKK+M0lyccZMUSeWAdw6E+3qWfbt6+b488/OTjsnr9WmmFgRWHEZAKBCROo4E+ue7VC54GZaMHz1UPRl6UYZD5hRs7P85+cGlGAWQ3Z9oMDABgVMybL8NLymR4AQwwBvXrocUAyovsHqsBS5bppmzSi8dvczwq2/dXy4q1q+XBJx+TtZs2SCd0R78uCILtoDNXGoDyo6wQgeqblSdAgy2hBgQMLxgauj4bx65ETHVw9vgpctV5S2TR9Fkys2qimdm2wT1eTjhs+jyabGV44RF5acVgaf2OrfLM+tXy+KrnZTmONJa07kAWrGfxBPTIt1QgLRtc001d8cMzGu9MJgT/XL5Cf9Q7LnMpyi+QsqISGLHzZQHq6plz5spwGCiFOblaTy1ZFo8Y2fkFsXw5MGtF+v969nG5+fa/yN69e7QcTWoG/rI+GnA9ulmvj/oFo23a6Cr5/MdvlMmjx6BOsQ4G0gasGYobUG/JRTMG5rtqquX51avk/icek027tkscOtYG/Y0m4xrCytqGJRifNV5J4WhCSgIh+cwHPiqvuPByfRLg93/U8IsHEXJQUN3SIPvq6+SJ556RZ1Yslx1ou+qbGiWch0Ex+rME2q44Z1v7CR0AkVnNFAxTyDMIPUrE49LR0S4jhw+X+WecIUvOOU+mT5gkYytGSQGkl8s6CatV2wpGgH9rxFqdfSnjtDZgbcbr0XV87CuflWcw8qMBy2JXJeimAJkK79APsEJ6p9kIQ7jjho+Uz37wY3Le9NkSYkFoBfToVIXyiR/bQvARFjqqBFSj5mCdPLl2pSx94XmdOeRjpDjucb2cPuKCLtGAVaNUWxkTXZ/ATT4i41HX2rFDRGOVSGE0j06RcUTQyHMBIx8rlRcVy4LZc+Sis8+ThZOmy+hhZllGmJ0VR/8Ij57Gk68x+k5kA8dmhumxk6dBQOO0FYb9xj075ZkXV8ozq1bI5t07pIWPseHX5JEdI+erNILe+YU772szpv/G4LDrE/lol3JkuowzLz9fDQp2qnkw9Cegk10Aw+vy85fI9HETpTQvLzNzBPARYYBWwACBvB+rAWvBFoo+uFTgQFuTPPTUk3LfE4/Ki5s3SHsiKkmUP1XXNPk0CgI6m0rTgLOG6owYeN/fLdAIi+uSDfbNIW+mNiBdMC7CQYSH4VAGQ3bq2HFy+eIL5colF8nIghIJDaDcDguTRTAPomBQjknww8umaLusXP0iDKYX5PFlz8i2mn3SCT8xHQWgXnnGA1+s0Rd6TXUzcfIHfnipv+ks4gp1jIY9q5qVI3WPT5uobzmQYwjlWwhZTZ80Wc5feJacu+BMmVg5FoZsODMIORrY4rL5BjpjMV2Tu2bzZvnyzT+V5bs2m3Lr6pLciC70UPjL+piAdMNo64qSAVk8d4H8342flghklwujkgamZY1mPg1btIxyoLVJ7n3oAXnsmadk084dMFo7JSc3Ip2QFWfGOdhS2TFsL2z6DdhQNC6FqYBcu+RS+dx//bcuE2K4YwUNfj6FYP1sbG+VDdu3yv0YaD/9wgrZtb9GciLIH+6z7aG+sF5RN9iOeZXqkCCPbK8IGr0sD9Yx6plZLsFyjKgxW1E2RCaNGQfdWSSLFyySiSNGSX4AugMeYcwhCPjIyvSJbOdPNIJfBLzz0xYdqFL3Pf6w7NlfqxVBwWO3gn/pKsFAoS+JFaJBu3jBWXLV+RdKYTCC/gU+6dnU4VMXbItse8TOGY1Wc7RLlmIE/sc7/i5/e/Q/snLnFmlob4Pxij6Txg8aJv5pZ2fDsoVR3ToEefdtJ8lOlA0br3Uml8YI4kvCXww3m6IdsrV6j6xev0727tipM43FJSVgE/6RsDaQfn3WJHzXAwjtyNEhkQfyy3mJXQ375bZ775Y/3/1Peez5Z2XXwf3SDCOrE71UDHKlscEnIPRPsbFTMFIkz34icFTZ4i7zxDC4NgaEhsY/QkNmOpuL+GkkUm4Hmxpl/eZNsmHzRtm9b6+UDhkiRRgMROA3ETc8M8qBxObdu+TBZU+pcaV8Mz2yrHc9+C5YTUZWVMilZ50v5fmF5jExwpHPNsTywo7N8otbb5E7H75fNu/bJR2BpERDORKHTLlejx4DXLYDmUBAJlEmoAfv6F3rKc7pN4ePZBkGoD7q0wR4oMw5INlXt1/Wbtsie2urZWhpmQypGK7yTsvP8zvgMEybqTKyC167wEcM+X9x22b5/T9uk78/eK88uXql7G2ulyhZoiGvRgN0lEEQB/sCza+S0UecpK95j27qTgMGR4alwQozRHXXDHCpx2DL8xcDL7V1B2TDJugdiDOXY6rGaBGb4QTTwMXRwoZFehzMLF/xvNy99FGpT0VV54M0hqDX5EsJ/tPnR0lcjsJ1rnHkmyJvb2mRq6+4UvJhKOuDfC9LJLZiLJo1O7fKzX/+vfzr0Qdl097d3iCChi0GTJAhy8Magza0/5zxWPmTgtRJ1Nmq4aPlysUXHNuAwIcY4qSOrN+1Q/501z/knw/+R55evUoOwJiNhgISJd8glr3yCyOafJrfDN99/Zm8GLXlEyc0Ouk2KonzFOou5UV9au/slOraGtm0abNs27pNX2QbM2asFERyVcdUuvCXjRPV1p9oOAMWsAbs3gMwYD03o1f+Qn9pKsBAoi+JjRlaITdcc61Mrqwyb+2y5qq89fbJh+0AiSyedAaRj13hXtveLD/63a/lT3feLi9u2Wg6Bxo8aHxpsLEx0hkvNEacPUAoBMMf9aofDYo2btneGB9IR/y8B2JDzVntMFq5RFcUA7FqWbHmRWlqbZEZM2foi2CcYQuEfE26hmXDyT/j4N05/mA6bJATMCJSCblv1dPy41t/Iw88+ZgcaG6UJPhqj3Vpp6+dPIi8cJ1XAK0yubbdWJ9MemXG4Nav9WrPbRnQr97zwiRh/dU1N8hu1P/lG1broGrqmHE6+xEKY6BgvKXjO944GgN2BAzYy84+X4bAgLW3aMTev+pZ+fJNP5IXNq6X9niXWXftxccfyob+QtQXyhbn5jZ+rT/rpvrhgWVC4ZpT9c8/1Wn6h35xnXGss0t2bdsuNfv2yYhRI2X48OHwo1I3fnnixTNgsNEjwWg0LslwQJpTMbnjofvk57f+VpavfVHqWptgbKGOMl8wlLTd9/PlndNIUqTvwb9PPuqKH+o3y80YU7YMPfmpfFBP9WjC8H4XBr8cQL24fq089/xymTF9uu48gsbDxJ1O8wjhBeOMcCfK48UXX5DHVy3HQCYlYW/G3fwZr+n8HAPZOmdKOqU7Blx63hIZXjpEnxDxpsoC6IK0l4KfH998kyxb84K0oO6rntJ403zjAM9a/w/Bm8LnEEwgfxh5TB5dJVcsOToD1vLII8NCrVWGd91/r/zwr7fIM2tfkL0YbPMdhwQYpdFOj7ZeBbVOmXqlTxYt+sOI9YMjT0mMPoBGQeOmC9rQvFwze75rz27ZuGWzbMRAoKKqUipKyoTrqsm9LV/qGYn8vRRx2huwLFY+GnjgkYdlz4H95vEdwWO3BuSlqQADCVY6is076DUr9ZnTZ8m7r3uTFIW9h7XWw6kgYvJijz6e+DiRHQob2pZAQpZtXCtf++H35JHnnpYWGApxjJJpKMSjMX1UrR2fbZAR3jREbJxx5ZFNivd7A+9bP/SUZo3nGgcqMI4kdkshL84oeGzr7NDGbfO2rVI1aaIUl5VLNBbVx6O6HMGLx8I2eAOFBGJvinfKn+66Q779m1/InoY66eLLbpAVZ6w60Jnry2ocAMC/lZftGOhI2SnfIAubBzXD9TyTE3/+CF56Xjwfxg/Xq3GtXXs8CsOmWVY9t0zamltk2uyZEonkptMjT93h58TGeOQ4UgOWgygasJees0TK8wp1yUMX7j+09HH59u9ukr2t9fr4VWevPZkxAkqTeaBxoOvm1E1vGQMMp0xb/ePIe2Z4Y8y4NCFOAkF4BTIDtlgMuh+P6zrSvQdqZO2G9TIeujd8WIV2vuyImT//i2IDBdZF5qUxJ6Zvhn/vlz+TP/7zdjnQ0qQGVFtXpwTCIf1sOGfZ1ZBlXsw/M8mfjDz8oJvexg+PhCcT66YS8+IgVI+VCBMv24cUrCzW1f31dfLUM8/IkJEVoBGSG+SSAhOWyJz1AevB7xHnXJKyc+dOeQqGVxfaKMOe/TPee+TPB+qK9UdS/emFrC4xftanzrZ2ueTcxTJ+RKUasCwPziLS8Fu6Ypn88Fe/0DXvNF67MKjV5U1BxGLlmJWu8uHd6gafpwAGnBEIdsLISrnqgovSvPYXlAOJ9ZDE2etdGNTe9Lub5U//+qdsqq+RKNjki97MC9sqJsCcG2PbGK7aznv82zi1vA9HHnrcYlwg6oO+nOrpK+tsK3RnV+0+eeb5ZTJm5CipHDVan4ywNpM/PhnRpyeI56WI09qAtYXKGbPlTz8rW6p3w0DxlI3u3WrMS1UFBgaUFiszEUel51rECK7nT54un/3IJ2RkodlXUms3wQCniojJk48vswYwhvY1JA2JLrl9+ePyo9/8StZs36yGK9dNm8dnppHWhk0btwAaHRAUKuQ18drMa+NjGnUeLfzZVxboh4YFO3yGoQccqZc6IgexYSPoV2c5GadeG7621+yRJ1YukyETx8iIESOlIEfnQ9Sg7N7JIpQXF9Fd948NlMnaPdvlB3/6nfzxoXvUgKAbDSzKiI9rmTYbXmPosBMwXOUgg/qHixTPSbjJY1LvMR7vXP0wkOeP0ds8gkyevCOIMuI5KRiEXJA+4+Oj9he3bZK127fIsNEj9W1gPhpkUWWKiz79YNxHh34ZsHpliEsjhg0ZKpfCQCjNL5SGznb5z7NPyPf/8lvZW38ABi4igf4x7zSZzB/PM3Ea3UJHDNItjjyZmt7S+jN55LmngoY8N3NC2dsywDWMwq5AUtpDSWnmjhJ79sjkCROlpKBIckNhjdGvW5mz4wduhUUjoy4nKcurt8h3YLw+8sxTqA+oE8grZ/qDoRAnOpG+KX/t4jX7OKKszUwpzw3pgJFy4jmEQdL8elC9xZHiU6nRHw4ka9xo3AQOrHu81KcOMNy4Xp4D4WXrVktrMCnjRldKWaRAupIxCedwLrEfYPQ+0vW7OFm3fp08uWaldJiqD5A3ejJQPnGZTQoeQd4BN/gDMKMmJNxBnh+CA1LW3/PmLpBZ4ydJBDeo2/xM0OObV8mPb/m17NiLvpbypOHKJ0PUV0bSC9QVPzZpC+WTJzyCcuJJyUM8VRUj5ZoLLzHlwftHALZLjLMdZ8s2rZNv//oX8tCq56Q1BP0OmeUlrAzaxiN2xm9mXG19MymSH74bofrCfHWrQH2TbY/sDhcqE0RmlrLwiEvIly/zJlgGkB/bfL6QuPSZp6WgqEjGjRmjSwoUDAeY35ceXqr56jeorFS9YeXlOlLJriQORwfK0VRgyBcXeajg0yrHycfe8R4ZXTbUeLKAn1MK5MfylEAHA4MgkBuW5niH/PPB++TWv/3FrJdGI6ZGKAleVXfYEHszCSR1x33TyRvSNWfeOe9nx6HnHhHWD+Vpw9uwJIJH8wjehLP+oxiB72+ol5/84ufyyFNPSl1Hq7SnEujkk+pHjSaNYWDQnojpy20/+f1v5Mnlz8JwMEaMgZEPoS8TUWY4TxNveh787tQnEg14biWja98s4ZrhLPUAI8iCdhI86i8HIinle8W6NfKTX98kTyx/RlpjnTpA0Q7sJIJlq+ufcU7942ZIjz/3tPz2T3+Qmvo6CKZ7XvzIlkdGx4zMrFwtqRvukqw8e8ThHSFEyWEHD8/sWEmdML7WbNkov/3jH6S2kburwhv4YxhLxxOMj9sacd9lzvY/ueoZ+cFPfiwr17zIt4vSdQZcKLHYs2en/PUn498LgQs9+ojwH+15X3mjuxqP1iOgbpBbHAnUNTbIbf/4h9x2z12yp+WgdGpdPTrQgA3BOOSHUfQJDQqA1K2+kMBAb/d60webR/+5H+oGwYYiETlQV6d5o1HIPZ3X7dosv7zlt7Kzeq8xBuFPjTtfLPSvBHnYMsgmtmu2LfSXFXWfL0EFIyFN80hg02U0bajprFM//+2vdeu5BHSHAx/e1T8kav5MGNV5S3C0R1O3PJmY08MiW/8sUR4k5susr4a7d866xqfIB9C2//yPv5M/3nW77Krfb5a0wQ+CvWTxUs7bYUHl44bO0AUZMmSoTs1z5MMRjsPRgtI0lZCVnkeuzZxVNVE+dMPb5cwpM3T7D+PJHNI4FcRO9i2pHnB2Dg0Yjn+490655Y6/yb49e7XzU8MHXkxT5gGnbFhMw8yjacxsA6czQJ5c6NdmmUe6KRkn34lxt/Fo44XGWhtJ756FXntEcKaJnc2Bmv3y57/9VZc8xMAbO0vlk57wY/0fLVhnLFmwcV0K4/Vnf75FZ4A64zFdo2vkauBjvQf8Bi07UH/nys6WemU73m4dMP2C0h2vFwcLDZeG+kiYsuIjerYFfCTOjyf8AQOWZ1Y9D8MokZFZJtYTBy85pk/ZJEI5snrbRrkZBuK+2tr0AFz5w4/VS8NvT6gR4pGVlZWvvVbyYtKyBdF/X+CcH29zxpH+uZThyeeelT/d/ndpScW1Az5E8GMCy4bxt6M7f3jZ0/K7W/8gu3bs0B0UzLIeA1ty6RlRD7y0hoE1HAiVC8gvnzR57ioTEuCP1X9uQJeeripaDpRRrl3t7XL3/ffKH/7xd2nnUhDeN96OCBEYckxp9KjRUlE+NF1Hwj7y1x1Ltv50q0NK3uAQcfbMQQbUTb5Euv/AAS0PRCm7G2rVeN28ZYt+MMOsP/by5cVvoe6Iw5YB2zke0+WTRQyqwYOQHeQVyc3VdI8EDE8+OQD690MPyu/++ifZtGO7RBNxiUJ/9GVQ8ITkPFngBCBPfNLFHSzYtmv7Tp5AaVnhaOV4OKJf/HfLHw1U884DyBe/hfpnn5IbkrrOVvnLv++SP995h1QfqNX7Pq8vOZz2Swj0cRsUIwpD9p6lj6TXMnJfOy143DMEDTHqeBg63ZGjn8bjJ/NCOUHJQ81aNHWW/Nfb3i3nzJwruushGwOVFWXPcx9UhCdfjmzM2Omx4WpHy/KLv/xebrnzNmnsaId+oCGDPuhaJLYovObMl+qIuTZ5MKRtH/64FQuzy46BW8t0Nrfpnq0RxKHboMQxYsaRL2Rxb4YQWmF7j4v3dRstrjGEQW23luEvU+0NmrrywjmfHGltaZHtaJTHTRgvFcMq9NGkicPEY7g1MOH6Dy6z0K/MaDDUJ4RfumaVfP83v5T1e3boi5JcG2c6AqaYTslLC4SjP1XKivf0hTiEY53kLAuv6ZOmktlmxphNGg8Hod5LdtwgnTMyfNxH4071zcKfEMCwJCtP3b1B007JwcYG2QK5VY0bp48nOauRCc6zrMiOEP1bQmDALKaQJ8qDL+fdcuvvZU9tNQY2MGhtFpkXRKLy46XVG+QsNxhS/cuBzAJwT8UhPxp4ODJxlRDCc+BDOVLHGUccfpQ5D8afnio0Hf0zR3owssQvMrZv3z4pHzZUJo2fiDYgE9AXxdHBsuRFxJm+p19cIT/77c26BzNnpuiFVShH9d3j0stAWvdArCUK8g5iHQ10xbUNC8dTUlFUKmOGDpdJo6tkWtV4mTh6jIwsGybDikqkq6kF9TYgEbYLpvFQ+TItrVssD43fS4NIn+JE+cEZDRUcoxjo7dixU7o6umT2rFmqj/qYmjcZzh4PAd5m9gqLimTnwf26ZZ2tE7pTAviz9VbrJvXBC8RBHGPQTwcjLeqbTc6wSrmas2xwtwquxx9RWCpXLLlIZ5B/+ddb5dFlz6hBaNRIE+KJgZeunuLIU6ZJvePyM9bFIOK1n4e260zV0IYL+eWWXUPyi+RD73i3jBwyDOVndPdQICuaNIhPWO587EEdOHB9Lg3TBDz4dUT/yB+vcWRfQNnxnHzwJcYQAkVgROSBgvwoAfSuNLdAqoaPkmnjJuqRVDm0wuzbjfvJzija/4S+XEm9YdvMZWcJDKLZ1qsOeRyYc9M+KW8eqYELv53xqOzatQvtQ6FMmTxF6zzDvhRxWu8DS2glgfFa01Qvr/vEB6UujjFYmE09lDfGyuZX8cPjdBYnKxMbQ61UqMQFobAsnrtQlw1MGj5acjksVnHihwLWC577Zdt/WQ8U2KhrS84RPa7//sC/5Ie/+7U0paLaQLBDJsglO0Ytc+SHTbxSmn1zotnFqTan0CluUs0mhV/U4idOR48cJeVl5VJWVqr+m5uapaG+XurrDspuNES79u6RjmRcAoW50gld5RZT+sKTSZaVGL+k3iRnOh52oGwYQ/Bbklcg3/vaN+Xsyon6CJovAdEoQ0b4qzCNdv9BGbDsGQPfdF5TvUs+/a2vyqZ9u3StG2coyK+RhaamfGVSNEin6nWuNKDCEZjzMXSyHZ3aGXNGaeyYSikrLZOy8nJdfsDZ0q7OTjlw8KBs2bJFP/1JM5efowyGw6ZMkSduus5UWEa9pW1kCpkhPzorgjD6fXLcK43kyU/+98sydUyV5OamP0R7TCAP/doHNg0jZ771T32KgDfmiya8p5aaD4IdPzfjpwz58YZYW4d2hhUVw2TyxEk4DpfyoUOkoKgA/pLSAEO9sbFRP3dcU1srHe3tahinoG80HjiAohxVdsojfmxigGWXxP1Pyb+u/wZjxbn5MnXCRPm/j92on462YGnYLPqi6h8YEJ0+62BOxOjUMzu3yP9+9UtS09yg+9Ry5srEa7p+C/1aVhY0TwAHOzr7iDaMA5arL75ULl58gYyAvNimMSUSk+depp1IpwDG7o79NbJqzWpZtmqFvLB2jdQ1NWAEGtZHuWpcwK8JZc5U2ey5IsNTJCckYRjO5ZF8edt1r5frX/4qGDpgUKcWEYYNSj8FxhR2tDXphwzu/tfdqE9oR/gkxIsApmuaCx45yIxzUAN3GnFEBHWQn4vlll9a/nDTNdMAvfjbCy4fYJlPLBkmP//Bj2XVqpXyjZt+ItXoY3uDxsLgKB7LBycI9AMJbG/Bj+oe9F71D9eaGjzzyIkGLhsoCoTl9de8Qj5w/dtkSI5/N+e+QYlzl4GCvFxZtW6dfPGXP5ZtB2t1JpdtSgDlSj1nnjmxZfkj0m7gW3mI04im4Yr6hvKbMXGyLD7nXFm08EyZhMEvl3NZOfm1ka3mHgzwVkNnlj71lKzdsknq2prN0+EQZMD2izLw0ufRDx1KoCwYD/+oaXnQk9KciHzlxv+VCxacrXvivhRx2huwBD/1xkX07/j8jbJ86wZJhNGFeSNoA2pMltb0gdNVnMw2GzfKiQ3PiPKh8qqLLpM3Xf1KGZVfKhHKD3741i0rmXbOdCCxMU6j/7IeMJCtaELa0XY9vmaFfOtXP5XNNXt0YMNvVicxqrZcJtmCMYA25mw6+GgfzaI2VGimmD1QGYzVwnCeTILxc+bceUozxk1KN2LsEHnOBlXtfAg0gji4B+GOPbtkDRq1x5Y/Ixt3bZc9B/dLCg2bSYNJM20PZIVH/BiOMqA/vseRjMZkwcw58pVPflaGF5aiwe3ZH/bbgLVJwzuNFnY8nG37zt9/Lw+uXq6PQ/kN8FTIW4MIMq9qGbkwuPJJB5zwQJmR2K0Wl5bIsGHDZP7YSXLJnIUya9ZsqSgt1x0MgjCEdVAAUHY0KSm7VnR09TBgt9XslbuXPSEbtm+RAwfqdM9Eo6OMm52SKR8LyxPllDY3cM6PUeTDYA2jLM4dPUU++4kbZcy4MToIOVYwlSMyYOGut8E4edN9VlF4NFLpV+/hqLOsyB/lTaOfenfNOUtk7vSZMqFqgqmPQLbe8UjUoBNfu3atPLxqmazctkmqq6spDPAEYxkBVO1ZaCYahZ9d8sZbjDsFufGlkuKCQnnPq98gb7zsGlwbA8MGZziNUq+OADAyOXPYhTq3p+GgfPH735KVmzdIHAYt23XqkOqT/pEbgxTffO8lMb5oNq5yrMybOkNefukVsnD8FOHrMMob6wnFjPhIBA/sJjhTx7aNHum2ad9euefB++XpVc/LLsiyAzpkXzpUUHY0ov0K6Emf5aZrxaMwjBHp5OGV8vF3vkfOnTVPgiykCJg4QkHZ9dsc0G3dvl23F7NxqHFkTvXxO6+amptlf2uj/Pu5J2Trzh3S0tyCQYyRn63HDMMolJgfD3Tn56zHl1fIR97/Qfn3vffKQ8uelpZYp5nR9fyYPsCcqxy84mGd5h8HZ2H4z8PAMRdGcV7Y2zOcwofQGYTre9u7OqSkrEwuPvs8ec2V18jQSKGWWX/BnVC2b9suP/7Zz+SxHeulMy+ob+8nOSPKl15Rv8ijzTOPzC3PKQu2F2S9KBiREUWlcjbK6ZWXXimzJ02VXPCPbkPBpkerjBcP4ROb6lFnZ1xq2hrlzicflmeWPSe7d++Wdn72Gf7YLugyBV94A9NeqQELoVDPuJ0Wl4hU5BXJ1z/1WTlv6hyt6y81OAMWuWczx42Kf3LbH+XX//iLtKGl4qM1Tr0bUMtIh8dLSZzMSTo3yD4bDM7gsONm5WZeTdOXow0NH39UlJbJnJmz5OWXXynnzTxDCnmXLSdrJ2or33YmrIGgKfhrscq5f7IeKJAzfglmw76d8r3f3KRb0PCt1ILiIolitG62IAKX8Jhia8ZzhOKIPYQGNa4ZpnGQg5F4WMaPGC3nnrFQFsJonQ0DojyvQGc9GZL9kXb2kAHjJDF9VSNEw0dj+rZ8MEfqO9rkhfUYpS97Vp5ft0Z2H6jR2R++xazGCspEA1Oe3qDA37FwNpHx8YtA+YGQXP+KV8tbXvVabfBDGiTj1x/ukGB6BLxzdrgdhuUtt/1F/njfXVKPDoszZFzywA6ea7lM42/MTspPH/EjrSAN3FhcH5vlBoJSBBlxxo7fkT/3rLNlUsUoKUlxNgR8Uh4mSSULq2acpVEflBkkvKe+RpavWilPPfecrN64QZraWiQH5US5aTjOHCOc6TjJFzNFAs+Ii0ZQiDJGXorRg1xx7mJ531veLuNHjtbyOhYwlSObgWUeIdNwCLdwE7LQ2WWe4h51jqSdV9kQOQMG//nnnCvnLDhThgXMw3tLhP/caK1JkkYh3RuTUdmwZ4c88thj8siTj0stBgYcPPEtf848UdcyLJqYdAcI6jT/4MQHoOoVdMm8M+WT7/yAVFYM18EU3TQ9kPVjYuk/+MlUbnf0hzv+Jnc8eB/qalISufzqGGTDiQjc1zitToM3NfAhO50Vw3UY7dqwYhgf8xbIq696mcyaPE2XO3HmSstYlcuLxzNUsxHT6oeIoXfkiZ/t3Qe+7r7/Pnnqhedl+/590gY37tTA8EkM7KwRR5A9XrKOsM50tsMww6A3tysplyw8Sz789nfLuBGjhF+G6yX5wyKGMg0jzzRmmY6Nw5a7Bd2ZZ/rb0lwnf7ztr3L/Iw/pJ18TyLuuwVR/Jgb++tsLzRLqSkkoV8ZXjZN9NdVSjzrHQSz1gvVJDT940yccPOuKST4UKj8vVyowYB0xfLg+mRo1YqSMHDlSyktL9YlVfh6NWegxEqHs+HSkM9olRcXFUhzMV8OVvNueOxv+fBPMe01jg/zst7+W/yx9TFoQsDURU90IoY3kkyuWB8N5Tb3mlWloXw8qwEC6srhczp6/UC5dcqGcOWsuBh8xyUP4MJckRlmv+ZldRK7KBNhjNhAl5csnYzur98gDjzwijz71pOyq2SfcKTuJOGLIeKbMWArkjkE92eI+lxlFYL9EoJPzJ06TL//X/8hE9EP+vL8U4D5kQCWEQrKxKx0xTB55aqk0xzr0kQU35jZgsb/Uir5/0MoLMiNN1DvIhY9K+IiIaza1EYFshhaWyIXzz5S3vfI6eeMVL5M5leMkl2EYCX+0gTOdImePzIl198PeOHlgw72nq1n+cs+d8uTzz+nC/iQaA37Nh7DcGdahIzhho8ZGg05cP8gOsjQvX64453x516tfL2+4/GqZggakOBRGZ2naL/aDbGiN0WHcGJ5HvY+fIDqrEBtTXJeEIzJl1BhZNPsMGV85BqP1Ttm5b7euK9N1ubQSUT5qvOLfMyE0VjUq6EamcZ+PUBsP1ssYdIjjR4/RmRH6tOi3AWsB7x1I4+EXlslN99wmDa0tyovGo3EZGfHcHzNnRHX2EK4JNPpcEzxuZKW8BkbE+177Jrlw1nwZj86hIMl1v8Y4o85pjDgikwaMmlkHQWQqT5ZBEW6MKCiWOROmytyZs3X7qQP1ddLW3gb2aGjB2EFnS+M1bcBr5H7CD/751n8sPyh7a2ulLLdApkyYpJ+j9fNwNDiSNbAKlF8SgyTWSYLJeyxKhI88o3GZMXGKvOO1b5Q3oS4unDBFSnNCRteQiOoaPFs9YziSXlN+OHIwyoFaPq7GDxkm8yG7EcMqILt6aW6GMYIA2oF7jKqmwdH8eXHyh2doR/UROhKItXfqLPA4GCfqx8svYyLUzZz2C1xfye267nn4AfnXQ/ej7UY3DwNb1wMjpvSfRmpSASc6QxjHgJNLDMK4OWfKNHn/G98iN1zzSpkxfLQUwBdn9NPywY92B9bBBxUDiM46CIID97vOQ4CKwmI5b84ZUjWmUpo623RdbidfZkM8nIDVtZwmFhw9o5sEFz7Jooy5nrTxYIMUlRbLhMkTYZiY7eqz2DgsWH8IhrXtjRJ41TLHba03njv1ZUg4X6qGj5Qd27bJvrpaicMzeTdGnOXdXFvwjI/+uTaUuyrw5U1tzACWNWVO3eUXtzg451rV4mRAlkydI69FvX/15VfJKy6+XC5adI6cNWOuTBs9TsYNHSmj0Q4Myy+W8kiBlKP+kWjgD8kr1OUDnBRgKuQ/w01P+O9xqcD9Tz4mf3zwX1Kd06n7fGtewJduXQXfWs9A5J3ggYOPgkgEehSW+VWT5T3XXCevvfJlMrOqSnVaJ3QYD/UCcQXDiMtEZ6gv4B7Lg1tOVhSXyOzpM2TCxEnS1NIsuzEQ4NM95UPJnJhSsL/eGe6xfaNB29zYhL44KHNmzdHJgZcSTnsDFnpijijz4oIS2bp3p2zcvlXX+5iWibCqcXrB5lobNTa2OGonjwrJt9g5g8WOfNH0OfLeG96KhudqmTl+ohSiczBrDbPAmm3F2Kc4baonDv5SJmjALn1xhfzh73/Vr1lx/0g2tAR/eZrmkPLAvxr4yLN2OmjcRpUNlbe9+nXyehrz4yerDDWQ8Z4JT1iHLOLBwi9NPlqj4TlnxgzJzc3Tx0wt7a3a4OZwlgMMMk80KEyvy7jURf/pTGpuaqIFKfPnzNM1iv40/B1Sn/AJjjLb39YsP/r1TbJh5zZ0XugIwIdGY1tcL0rvSikMg4sdIQdBpXkFsmDGbHnn9W+WyxZfIENRH8Po3NigG3a8BO251SfLa9qPdec1co4jXSP5eTJ18nSZMm2y1MN4r963T2cpmG87Y2jC0LcB5UAnzQLBQQwMn1hHl4wbM1ZGDhuudUJvWz9HiCMxYNP3mGfPgxogIBpNHFwuQcf/gbe9UxagwyqDTGmohdBxWTEdkk+VqfHAGR0aIXEMRCKRsEwcN0GGjRwhu6BvDQ0N2kFaGAl4EfvSUT7Vm5m1ind26Rvxc2bNNjzDnd6ZL97nOak/oLz4BGPt9s3yp3/cJjtr9kkCoxc1AG0kiNiv1wrc54xYLBHTennhmWfL+69/i1w0ZxEGmHxMfRTQ9MAR5McsG8IP6wB4qhgxEnmepcYEPyzQAUObj+Q5SLBg/eWlKWOWgycTnLIMOfCaP2+ejCgtN+3JcQbZzQafkOQVFciBxnp5YfN63dbLDA66t0k92gvmAwebH5aHLj2hm96G4YrCKw/lyZSK0fKuN9wgr7rqGlkwf56MGjlSivIL1FDngJV/Ni2mYqknGHMGRrO6w7pofQfPG3Zul5/89tdS3VyvedMwKIeMcc5rPVGwrpGkKyolaDMXTJ8lH37He3RJWGEB2lD4Zb1hkHQd5YHH/sLzyzCcWBg5fIRMnTUdZRHTusf16goI1vDbPecMR3mZfgo/8N/e0iaTxk+QsYgLLi8ZOAPWO7JU+QivsLREHuem11y3l77LIj9UsR/u/uADK7i+uQ0RMGf6OTscObvAR718s3nWtOnyP+/9oDY+cyvHSkleHjpK74GhFUf66EVkqU8c1sOAwJ8iZ3W+8uPvyY7qvRihwzSDkcOZEcMZ/rQ1ypBqCU75KJqzpSXhXPnYu98v15x/kYwpGSJh9eDlHzAx+aEeesD48v+yw4ZREU/oLgX54YjMnDFTCgsLZdPmzdLR1SWhvFyzLlL/EM4LqAde4J+dCTsVlm9jQyMayOEyFQMPGkC2I+rRIWXDxzIfeVFmP/nDb+SJ5c+aL+sgPOPwYkuTjVavEEcKupREZ1CaVyhzp82QGz/0EZkKQ6kwJ6zLTzgrZMAETaej5wxMpO97UHfe5znO4J95JSf6Vi/+KsqGyaxZM6SjrV22bt6iL2Sxo6a/TJ1HGMssYU9pwEL3+aJdaVGRzAbPeRFvRanP+5Gg3wasdfDdZ53U7Y8QjseLzzlP/uu975cZI8ZIXk5QZ6U4G2TWJ2fkb5DJazaUF/4hAPcSZTo0FiuHj5QRI0fJihUr9CtARrbk2RexPWV6emEcmD6XHrFDPXv+An0him/6a9MAL6bD7R8s543RTn1S8vSKZZIAnxxIWePVpI4/es6OGBmKQC5nz50vH33Hu+WMqimSyzUA0EcudO1W9odF73KkK5986MdxoF9D84tk3rwz5GB9vezcu9vM/Gs6JrzO+PEynXTmguXX2t6Os5RcsOCs42zA2vTTCaeh614x+NlbVytPrVohHTCiaIjSJ3XCwsxWZsGyD6KeUKfYVtCJujo0UiDXnHehfOoDH5H5qEfDhwxBepwRN2/gWzOSLawXjcIee8JfDiZE335Flw3+4fa/yTNrVkkXyklf+GN+vXD2Vw8E21UQd4nJA2+zJkyWL9z4KRlTMVyK0EfEEnGVlzGOM8GII9MnwPPOAzkK5+fLpAkTpHb/ftm9a7dmVaMEmbpHBxzwY/6MzIyLSGtrK/qLXJmJPrvQfuTgJQC3hACFz0aEVYUVjG9Qbt2xXfbAeOEbuAY82vNswN32OAp/JRq80HWEQX55JKWfIOWjbG4RU15QJGfNmivvft318p7XvUlmV02SAsivm4R4QjH0cLTHw9GJh02VLzfc/q+75B+PPiAJ5D+ATpEdmtUR/prHfpZXr+HGKbe74lY7H3vX++RlMF7LA7m6FRYNHnpTNVGvNjUDE1vPvwxXBmpQoHHUrWRSAZ1Vyw+FpGpslbS0tMq2nTukCx2MbdA0Bi8KE5uJVWdCQDSGOzs6dcueM2fOluJIHsqZM3VeoEPBRKjFzKUDL+7YLL/8863S2NGmHYFuQwd90Vlg9Uw54chTc6Yu/PQjhj2yeOEi+fRHPy6VJUOFc8HmFR/CGq0AjzzlQc89dxupgu48mPvKg/4ZcMaPVAyDeeLECTBEG2Un5KZrT5MJNRQMyzaED4ySXOMei/RATa3MnjFDRg8boWVytDhSA5b3NXs41yUB8ZR2qItmzZOPv++DMq6sQmVLI8cerQy9KA4Jag79K3n5YjlbVA0fIaWlZfLoc09JlOtx4V91U0MyAya9tNTVuNE7+hi7HZ3ppecvkaFFJbpOUL3Yn/4wCKCYFPym/u/+dYe0YPDG9poGLHcKsZGp8Ur44qUbjde5U2bIx9/5PpkzeqLkIz7WKW4BBfsJF/1kBEjLlnn2EX6UqIFcY8toabSfu+gc2bJ9m9TU1uib5upPw1O39JScG3clkyc+ct+yaZOcO3u+jK6oMB6PA9L89gHugb1513ZZumK5MWANS0oWvRqw2UAAvoQUTKRkRF6xvO0V18m7X/smGVtabnZdAA80Xu2sq02j+3nfsKHsn3HrCzmyastG+cktN0tTMqp8sZ23IVQmeg7Cvz5l4SAQAxxu13U2+sAvwXgdXQKjm7qDP74fYuAzHrPkeig59wbrmwY926zpU6dK9Z69sgdtBt+3YP+sIz9Quq0jr2kCTzi2o35wi68p4ydJ5YhR4NWLeJDDSvy0hG3bFLyAco4sKperLrxUhpaUqQIMKjAPljzwlG29Jb8Xe4/HNLwbnJ2zL8MMLSiW6cPHyMsXXyz/7z0fkq9/6nPyqgsv1zVJdt1RN1Bsmbbg1IWXcX/+mxqb5K6779LOkI/K7DY87PTs46OMUWYyaO9zHfB73vhmuW7xZVKMZliNV0YODzwcCxheo1KdBJmkJQdplIXy5e2vfr1cce4SKQnyBQcvNc+rPbXgXXZCXAbCt7fXbtssK9eu1s70aPjkF5f+ef+9uhUdt8yiEcBGM4PMuZo4uMd0KEvOwJ19xgL5+Hs/JGMLuFuFqE6p8cWZDMsQouBpb5SN3u6TgwCuaC4xDVJV+Qh555tukHPmL9QZTK5rY4eg4fzsIzQvLS/kn59Hrm9v1TfN2zu5SvrEoRtrRDwhVSNGyxte8SoZM6RC5afrXUGshmRb+Qf1B5p/jywYlnHqG/loNC49b4luDxQJc/YZf/DMIk+nQwF2i0RddRaXRtDq9WthKFJP4JCdWH+AcA31DfLssmWyv7lRjTvu5W2T9bwYeG7WnXpXnlso77/+rXLGmEmSxxtkjAG03UqHPCZodIhbl195iTP6PNDH3/YemQ8D2vYxyjdJrwysvuleozTO+fIc6N7/3CcxzhR78IcZMNg25XDweeMpiX0MwfzkQiv5Jca3ob3ijgHDC/mcBXKhYHygVI6FCHskLC8koq29Q/525z+kLRnXNisBGWsW2eYYL2mQb5qGfCcmAgN7ythx8u4b3iLjkY9ILCm5KDhVG3qGX8tD+toSr48UTBvE9olt1rghw+W9b32HPqWKtrV7ceImiJMbvss02F6FCvJk+7698syK56U9xi3UXhrIUpvTG/bt8jOmzZCzF5xpXmw5To3ZiUI2t6rLcKQxpi8OGGc92kfJ2aATH4VwOcC4sVXyqouvkBuvf7f8z1veIy8/90IZDiOJjbDtJAk2UrahGjTwVXTyHosm5PEnHpc91fv0UZdfPjyYhixzbsFrNjJXX3CJvOKCS/XNZT4i00hxk6P73uR8tGBcnEFVZpAu06rEgOtt175WZoybqLyY5DK//gaUrJM1GrD8cMfB9ma576EHhYtmrB8rF+/QJ1g91m7cKE8tf06iSFg/EenTs95gZUE+p0yYKG99w5tkZEm5MV5hSOisIojZs2B8DJcm6+aRRba7vcckmZ5dK0qzi4be+KGj5YbXvl5mTpmiSwH0DW/OaAAmrJcgjsbVXHIrmw4Y7vzkJGe+0wmdAOjMijnTX66Ru/yCi2TRrLnQPc4wm3pJ+dGH8XXsYDyqdui0S8MhueGNb5Ky0lKdedJ20k99gAOEjnhMVq5+EUz6/FF+RyBDJsFPlT7/Ah//JvXlG62v9r6Nz7oxKS856sF7YbyePW0OjA84+AeafqU7Rmid84iw/HEVyriiIXLNkkv07XkzZPLuezz6wbtsu3ULJdDylc/Lpi1bdH0y67EX/XEH4zVx41dPLKd9ADeVfc+7Ehy4rRP55D2+bHXNkovllRdfLsOLS+By5GA8/SE/0vyA+PRk3Yb1OmhvjXfpEg+dyQRlh7fn+vEQDBrKC4t1h525U2dIvDMmgc64BFBw9KN1AyeZp3WZNkPhZyKbDgXc58cx2M6zzZo+Bgb0m98mpQWFaT1X4xXEY/rPGrRgQp+4gZ57YYW+9EiVfymAMj9t0U25gBA63yAahTGlQ+Taiy6TyRWjVWm4xQ8NGoKKpG/b+gnu5jbP7dXAUm9/+piDlYdH/GkrjxqlL/XgnEdugs9ZRbrTLzco18fkPEdHxO2VCtH9LZ4+Vz7ztvfLDz72afng694si888S7eZoZFBkAsqj+Em02H2Da8ynUogS2xZAc49NnS0yj+XPiLNyKQtbwt2eppfNAqcP+TaNkbArVH4ZifXcF19wYXo2HPRQJoGhFYYtzRhMVhouRwlTKmaP8/BCN4bRUysHKtfoSnJLzDGGn2itSaxcdPnriD9UgxnDuIiucgodXrNpvWycec2jYdrefsDiq4lEZeHn3pcDrY0qU6xI6AsKR3TG1vKgDP7+ZFcGVJQLK+86HJZMGGaFPCG8uzXK/z5hEe5G8qGkbdJVVP2wbjpPQRU44+Ea9Z1dggzJ0yWt77+einNK4LxBw7At0nFl5JGa68NH5yvPQDj/+d3/VWacCs75YGCrk0HmA8OsseNHStXXn65FOXmGj3VNkq9KE8Z6s9fd1gpWCLC3IcUWDhuslw2/yyVoxqxvvaQupAmH1iv+IGBTdA1bhLfQ0Uss9nw3LzqKi2I4771z8vmplrVJ/vGta2XKgAQ/3T/VS9+7q5w/sJFcsV5F2AQDkebNo1p1TXSkYO5zv7T+JTMgbqNg+pcbiQk585fIOfBiC6EUUeDJ11CXuHRRbPhHVm2NEL2hqLy0PoVugUYa6rKhEFMsAEBeegvlF8QZU6jnFvRxWNR3dLpohlnyPVXvlyNV6NF/YWNtb/UHepKWYIOJjrljhVPyJ6Weh20p6EyRMlZwqUJx7YiJbk5IZk/e45csuQC9JNBfQFVQixNlo3XYvCo8XikSMekV/2GjzUblC9UUo/mz50nS85fbCYN4DERRU6Qthkq2IAIhHyw2edTk1goRzYc3CdLYcR2MAx8cGu1wYwj06GXIPwqpV/9QUPM9WTzJ0+XN171SimL5Eui00y5p9VCT3oqpF7hJ91uDSB5SXUjP/zXll3boPBIcEusAN9opPJ3xfRziWdgZPm1T35OvvY/n5Y3XHKVnDGqSkYVFUuEM7KM5oj1nQGOONDAw7IFojiiMNqeRcXe3VwnHTBgrYwIm2cejXMmcAoGHNe1cRPtmeMneS9ssaOGgYPapZ2RF5cvyuMCNlUsTyWccw3ZdBhjlyxeIgF9WQaEMiZLvM8zNdzgxpnOXATkAI2deltnh9z9n3vNXqRoCPsDvri1fudWGL8bJcYZClxbMrm1ZGDPuJcut8yaM3W6XHbuYilGZ8AZV2WS0AjwgwCZ0H3Dn64G7Qbm2vz5QYNBPxeLRPOh2dy4/pLzl0gODHsaCuy+jLQsBzyac3Nm5MTHuiu2b5Dl29dmpTBw0HW6LCMYBtwr9Oorr5LRZcOM8U8mlMxJ+tK76v7nv5fxk41MzgHvNq+HoEO/aMFZkotBnOm4KbVuvnuA9Yqz101trVIP45+daK/ee7KhoDPDJKAzf3nwHmlMdKX9ZoLwLEPWIOTHaYoiefL6V7xKKvKLVF70Qp6U1NdRgnnIJgvvnAemyXaUj8yHlw2Ry88+X4aXlHsdMThQXo3m6SWubBPCsmVd35/okNW7t0ltfR2M2MxSgoGC5eFIoWXtDYbzMLDnjhjvxUBx0tDh+iIwYdqlgQfzoAmBNu/bLat2b5UOjPTYTvth/OHXpxR0Y/lwj/OLzlssI0qH0hcccYdED+yUWee8NNJgHEcLG1Tj9wiRM/oi2CWXX3KplJWVwUCF2cq11JSmV+8NVIvMGdzZH7XAZP/XQw9AD3O0/R7sMPXGwVOODPLROL/qosvlNZdeJRV5xboxOJWBn8RkIzIYoDoPplnI2giSvHM+SuUej4UY0o8rGirXnHm+fO9//0++/9kvy0VnLJLKgmLdWDonBo+Ed8iW06CFLx9sRDkrRAOWHSs/02qz64fXnnUDX2ybMna8nDt3vq6P0vYKdLLExBn0V1/5Mhk/qhK9PIwsFH4UOtuFXlMNavhhR6iP6EHUAxK/q79i1SoEYUMIBzR4Zp9UhugdlNvqrZtk+95dmm/mmXGrEeWBp/4YeK84v1CK0QC/7LIrZGhJyQkVluXH8AQjFrWD+adBc9XFl8qYESPBI40xrv82vtLAJVm1dYldCV+kaGpukSeffNL4OQHg5vycVecAdHzlWDlr/kLlFJfZHA8MvPKKgo9pU6dK1ZixSBgyQ2duZ7j7gn3E2dbeLjv37M4MqPsO0g1sy6ihDz/1mBw4sF/CGDza4P4osuXAe5z153rryWPGmY6P8hpIgfkZ6uU8H1bsOWeeJROrxnFqTZ2pV7b+qDecW3eLeDQqW7dtlR379mAQZnaIOF7Q8rGkf2SB195Ddn8++gF6Z37Yf1571ctk6oRJ2m4E+IIwFRbwZW3AwFlIljVp8+bNUl1TLWF+zIQOGAhmnlJ5AXzQtg3ufMLFD4LowIdg5nhhZUK970HePcJ/TvDaIybbK/Gej7hLAt05CJoGWZ4z6wwzEcUREQXLcrPkNQiqOyCWA9u6NevXyfaDtRoHP2wxmHE8df8lBc5mFQdD8s7XXi9Xn3+hlAZz9Y1p1Z5DgX7SmnmSAOVl6nxLnQobRi9B3iMY9IajSSmAYcq3J8+cNlveed0b5duf+aJ8+b8/LRfPWyhDg2EpYhyoDNzGRB+tMc9elg6X/e44Mt8nHMwTGiB+NrCmvk62o1HjZwX5GcfDgUHZIPBjDuctWCTTRldpg5ABfNCT+fF+Bx5Mp6pihLzisitlaGGRljv3UuVsIw1S3dcT5cL1r3Y3An5ZiVv00IiNx+NqFNi4+JMuRYRPwiiGiNStvq1Z1mzeJJ2cTfEeIXOHBt2lwVf0/rzTPRBLyPzpM+X8BWfp49R0AtYjPdlWN03HDhNT5o9XbAC13JCp6VUT5KJF50pBMIJr3Me/XZbTA3rPNJ/hcEi2bNmin3zUTuMEgF9U4yPNK5ZcJMNCXPlKo9sTIX96yI90HOATBb9OVgQdmzplqufizRweAmb5Ro7qWW1tbSY+5dmc9glETS9RnDz65BNURy03TdIjjcKLi04ERcEBG3fZuOScxTKipFzdNfxAw+PFD6tOTH5IXoGct+gsyePHT8CjEm4YI7anPJkXvkzU2NQkm3Zwv2V+hGPgYFPPykLvyM4nAkfQB/Fl1rFok7jPq7qDtE3igMe7Hmjo1+qQEHfUqamu0Zfg+LIpd0vRTKLNMn13NnATisK6fsWFl0gpBt/0xSDp9xD8BcCbfZEf3rUmfQRko6LdPLygRM6fs0CGFZWoYZtOw3r2oKdQOrbLQdgC7O+eff55nYGNQSx+v4MNA6n7gxssVBRuRX6BfOzt75VXLL5EvwDCx6/aN/QJaFG6MliNOrHgmiMqNPnkd+/DMDrCXQmJRBMyqWK0vPLCy+Xj73iffPFjN8r7Xn+9zMNIrhyGK9/G5SNlvtmu+c+qmHSyHX//6NSFjrz1CBmBtu/dK7sO7pekb2agL/Cudoqg4aVDZMmZZ+nLIGxU0iKDvNTwSasAT9IXAwLyxfQrIkW6xu/qCy6W0nBEigIhyYM+8B6N12hOUmdl+dnXRG5I4rlBnQm7YMkSCaWNd2u4+btQNILodCi7GHSq+sB+2bB1q66p9uaPIBf4QWT2C0PZOeY139q96oJLwBc6EEaeScB4SAe0N7M9HS1MPNk6zLLMxaCuJBCRBZNm6Npc7lVq1iX2BrrjLjo1Ps7nNmS1tftly+atqHc5koBs0vCdHi+o7iFtfjDkisUXarlyoEL9M7C9UjYdXzBdqgj3p+ResTYdPq7sC/qCC2TEmesDBw/0KeEesB6RtYamBtm4fYt+B/+QVijDgMgnZ6kmjhor07nHMJ2PvziOGFpe0J/Z06ahfgZ1f1G+YMgnI2ZNJS6U0SxmcdnR2an7VHdwb1gWN9FvYfYfvaRuxJrt6AFZ8E6YB+QRvPErUJeeu0QHDhwsqt5k0UBDZy4hUw6atqDNiseTqKdgTtupbI4yYF9KDBuCdv6cc5EX044SbDO5plvz3DNo7/D5s7I9EmJQyy1b6pmjqmT00OG65aVFpn3DL/LMM7bPbJtDYDonGJJnli2Tro4obuA+PBgyYQYTMrl26A5oiL6RijKlEfCu696oSwq4fx0XdOsNn6JkgGvW7t4angGCPxU9p3bjhOtc+Fibn+ecO2W6fOgt75QvfPS/5aNvf5e8/KzzZXSpWXul9Ul/vKN1tG6AzY1pVvumTEBeZ0KdamCzxYYnhgaKn2LdsXe31Le3SCrIESoseF/e/WAY+6IIO5kzps+QSZVjhZ+HtQYE4+4j+IDBSphFRxo9tELe8fo36bZnL1u0WM6snCxnV02Vc6qm4ThNzsL5mWMmy5lVU+Ti2WfKh6ATr7jqGtMgUL/7ygDzj0MCTWJdQ4PsPVCrRjFlwiAUjc5M+8gPXo8dNlLXDOt22hooi04GUHh5oYDMR3mOr6yEHFK69zFnOo0eZwF8qi7glMeW1lbZtHmTd4+6PwBApBSPGoChkH5UYNyI0bruOmO8nljwJdDhFcOlAAN9C8qjL7CT5GwWnwQ0NDWpnA7hvVes3bhBP1UcjUZ7nfGmi5/4w1nLaRMn6WNgGnzZenkywHzzc7PTx06WKVUTzMwreDOzr4cAdJLy27ZvNwYBdSaTiGygsqTlc4SR2zLly0Pc7/esufORV++rdx6dSEDMWp+rq6tlqxqwcTMra+56x+6Ix2Pqh4OtRYsW6R7oNMCtb+aBRuyh9H0gwORI1JfK0qHmU+Coh+rei2BV3j4eY+jfNm3bKp0d7RLOfClmUEL7K4eeoGr71XvssKHy5ldeJ9defLkUwSAMoeH071NplDmFMLbD60WT/LBe+qIjgCquRyzQXPDHPW0LYXjz8fZnPn6jfPVTn1X+F0yeLiMj/NI3wM6E4ZCe5uMQxPs6ouY5nPoiPxjUyMNKky6nCMAsG7UcGC0d0S7Zt79W3+qNQyaH4pJrwTjrxryw/M9ZsFC3ZOqJ3twGHpZ3zqSPKi6Xay+4TD7+9vfq+uZv3vhZ+eFnvyw//NyX5Qc4/uwr35Iffv6r8sWP/o+88ZWvkeElQ3TAo9Nqh2A/hoade3iu37xROuNRGLMoYfhn2gzmJ0KNQHYWrC/wdcn55sWtNLIDnGj4WsGRw4bJ7OnTpSjPfhbSr7c2hxnQhdTW1Smb9+yUlk5+IjTjftyBSGm0UZ5zZ8zUDwHorNaAJHZo8I3oYgiPj1VLCsx+nofrzMk7xc3lLE3Nzcaxv+VOf6Atu3ZIZ8LoYF4+N/TrCSt/EoMVg7+JVePV0EfSfeJw7eBxJcBkPSmLzligs5XaHqtb39Dyh6dGDLhbOzrSAXS27VCZOwZYno4kdsqSg6tZE6fIGH7sI2EGuXrPoxMB8syHInUYMO2o2avvOfRHTmH0n5FIRHLz8nTPY9Yz9n/ZfeARgcl65I/Dlnu/iOG987KSUhkzarQxYD13U0i82x3UGbZmsOT1U8Z7aqq59HpQw9d0O/jB4u8mHCjF6CHl8rG3vku+8OH/lnlVk6UQKs230KPJmHQJjhhucpsqKgrn4PgIsi/imsRDkt8/rnXtmI84C0N39Qve2ptaYEgFpCSSr2v53vHaN8nPv/l9+d6n/0+uOfM8qSoqkyJYGbmIj/rNhpyvP2hlhBKTkAVYJyC0iYK+JVEXl6btjbJv9R7ZvnybbF+2VXY8t1XWP7JG9q3YJe3bmtAqJERwEH7l0Auf8l5vpAzMkWCqfjo1QN5a2ttky7Zt4Mr8KViInIInaQZghNF4RXlzmyk6ceP7c888U3JNBnuA+bd/Aw2mQKLOsmzz0EjxERMb3WFFxVIBGjO0QiqKS6WisFSGF4Hyi/VzjhURGCA5Efj18XmIIsoJBXXT+PWbNxnzDsG0VHG0hmwaaFUpt0SSykH5xeRcdAZ2oUI3MCBZUDbsycDJ0MSonOsZQaN1+pQpUoDOK4Xy1UfjcAvAQtTH31r/IGV41C/fwOAnRUM5srntoOxrqdfYzLANZ+woj7NRYTvfuTNnddO94y+hQ4NLbVj+5dCdsjzPgPWoL5BHU5YIi3z0i2dfhMz6ui2b0MwkdfDJR7zaFnrkB/XRoqioSKrGmXXqqBpm8EqCHz9pBeLxRBDArLHd5heWrPHMOnQo8Gt5lF1N3QGpb2mkJNWds4Vm2c/JhZU7RcmdThaOnybjR8CABW826yeSS4qVYgkW5suahn3SjsYn3ZdqPc6QH7orUSgs8WhMZkybobpjJ3F09xaPjnrwiHAsc0uM53CkHHpscjePZF5AioeV60CWSwTMTc+DB3VBWGoJX+rlU8ZObmW3n18bxTXu6Ut6OPHTYAB1zKEXpNXAnoAoLHa8Lzt3sXzjs1+QV112pUwcPlpKghHJR2vI7ZT4qIoVQTv1Q5B29IegbveRpp8saNzyyyZFgYjMqpooi2ctkI9c/3b51ic/Lx9+/VtkxvBK83gRw08+vOF3+i2o0KyIAdgVARqcMECj1W1ycEONbHlmvSx/8Gl57oGlsuqx5bLhmTWyY8Um2bFys+xYtUX2b9wnW5dvlJUPL5Nl9y2VjU+skto1u6VlS6NIg4mbRnBODJ0Ka4i1arRSkCzIT4anEw7T7usb0U3cxxSsmYrbO19s39io6RAAncWEqiqpKChJ+/Tn7GTCz70/F9RfGrd8aqQdOc894nm3xgB++pIEO9CWjjapqz8IeamZZnSWR+/c6i1hPwwg8Fs5apRUVVaaa4tuCQy8FJmcTdKk1j3NCVXjMKAzgxUarPSc9seMefCH4lq4uvYWaWxr0bfk0ynoIRPmeMDIM0fKS8u4VDct76xsDDiCQfNGdGE4V9/wJ3htNKJvKKtsI/HXL8kwfzhQv+qaGqUelPLStmsUD4eCwkIprximY+0G6GErQrejrrfz6KMOuPG7aieCmF4rctWJY+nQISo3lmO67Yef3sA3+NkY8cXLmgMH9KUcgh+fOVWgvOOHO45MqBxj2piTyB6T5lOSPQf36wus/UEsGpVoZ6eMGVWJAVqpNCNDLaBW6Eibj9oxkGtHlANJHZZQ1KQ2nJOXOgzl8qDb+bmm/pnaReoJ6hS7Yy4/4VMzLv8a7N/kykGHDVE49BeUFhsYFnx7IipPr1gmTy57TlasWy176molhlrK+6Rs9CnodIVCoCxP2dHoNfzkoOcqzi2QOZOmyqwJk+W8eQtl+riJMqykKB2GHSnbd9uuMWoSL3XmlZNiqAlttfXSVtckjTg21TdhxMmvX3N7FtNJZPZ3BOiAOKk2jDcYop+UdKViEsgNy/DKUVJROUKKhhaLlMEsomWk1hEC6VQvI+EPubCcEoyY8LsNILx8JMDb46tXyKe+9TU5mOzSTkR5UIvAgDm0L6ZwmQjf/OXeqVedd4F8778+rY3zYAdzmy35HiXiiYbjnc0Yvb/3xo9LdbTNzASoJwxYIBc+CtXZDHVjoJTODlGOixcskl/8vy/p18rSsAnxRMP0hIkl7fG4w+o66WCyUz7wqU/Iys3rRdAxJHV9Gf54k9N25CSrE2R9Gjl0qHz6HR+Qyxeco9kg0b2vPBG8fc/SJ+WTP/025ArdQmdIY5hhOOOiHrKBDqiksEB+9r9fkYWTp2n09uUfkxa0mPzhvJ8mYha8BgNg6EPFEEcy1TU18qVf/0QeXbeKVcqwrHKysLGwdsEH+A8jny8770L59kc/pbxroOyEfNeMl5uub9mxTf73Z9+VNdU7tSOmp3Tb5MFGR/AO9XHsiFFy7RVX6aeLte2Dj4w/69sgeybueENjR5IJPsmhIY8BSUtnh/zur3/WuqSzYmmPPCe3INU58wEOXb6GOvWBV75BPvC6G3Sf1ePBtd8cYBPIl3/4wY77Hn5AvnrLTXIg1qHunnqlwacQGeAO+wf4mTd6gnzxvf8lM6dN0W7gRIO5oZZQGzfX1ciHv/Z52b5vD+qYj3t92aUn+ISN7dnEcePkiksvkwjC9JgNBfQ40DrjpafpglgGbCcSwRzZuH2rPPHs09IMHeJnh3HbY8fjiQc4qPGKc25pxp2Irjx7sXz+Ix+XkhRKRh/B0psXBhjoenA84AzYIwWkpSNknLLIafLUNzfJtt075dkXV8kTL67Q/Q1jibh0YQTH2SoqjwoZDRWPiWTCdOh8zBsO66MvbkTMrT1MR0+v6FLhHg7iPpUPlUnXEQJDhwyVc+bM1xnX6ZOnyKiK4VLEeBgOpGpHr0iMOsgSVl209bQDBnhLVNoONEhT9QFpqDko8faYBGnNoWbwLeocKLiZbWQEXieBiBiXXcfGODkZxE5JDTs4ckumYF5Y8koLZczkKimuLMUwnJ5BWvNNHjwHc3oywIIACzTy//4oGuef/VDaw9zWnjdwiy2Eh2wDNo5QfGv9Aze8TT748jf0/jh8kIG5zeTYwOTY5+6T2eMwVj7y2U9Le25AG8XeDFg6sdNV/cCAix8Juf7V18mn3/BO/RRxGjYhnqQT6w56OVEGLGfHvnrT9+Uv992FDgIDORgHFsih8acNPvKoFcuoNp/AfPod75fXXnyFZoPaTfe+8kTw9tEYsOPGVMr3/vtzMmf0WPVCI9BjCcQLv4F2pMjUS4+VPsEkq2v3y1du/pk8uHq51h8aW30ZsOQohbaOdeaqc5bI9z6GAaCfUX9ivnOuYeT69GWrVsj//eYnsqW+RoOo/H11lbBR6X0STvQDNTBe2aLprDpkSE6zgp4wkCd2vUyePNDwaI9BA8gayXhT0Jd1Yw/Cl4gDnhH7hiVXyKff8yHJj+h3xY4ZR2/AeuWNfFC+XGbFYd+lc8+Sz7zzgzJ86DDJhbHVLWPZOB4ZyAKTo9aRu9V7dsj7/u/TcqClSeWdRh8GLH2wrwuHghLh7iwsL6/MGHE6BsRlWruBA2NXYrpe2tRf5o0vIZN0NxjcYPkYHx40YMaAzYU0Ql0JWQIb4lv/+3kp4xTMIDVgey85BwNqP8kPlCmLlYIjcY/V4cVlMCbPkPe96a3y1U9/Tr4CuuaCS3R5QXEwVwpQlYuCEclFz1+QE5LiENy4bRVi4JZC3IKJR12GgJFsHipUmF9Sau+SREubBLtiMnZIhVy5+EL51Ic/Kj/42jfkI29/t7zs/AtlxuhKKYfxyg4hPcIlz9BH3Q6LR15zyhg9c3Rfp2xfsVlWPPy0rHt6ldRsgbHd2CGBKKogv9IQRyOf4qqsMMLjGlqfkwThPCfJe5zBgLGcBMGNFEqEJExi2GhA4q0JadrXJNvX7JCdK3eI7EfanO01NYknJx8eGxRNY3MzxISuQcva8KinfcB0miIjMHA4HUHZHGxoMLs19AFbyvRLuer6PPxVDKtI3ztVwRl1drhmP1zqBboKH5lcEdQDSxjMdmFQ2Nam+R1IUP8ikVzdRiqdVDehnjgJsw1UmVAE/ci4qTvGHwfyCl4eJijX23Lf0Lb2Np0YIGw9zAZzb0mjxkkMBl9bIiotiS5pindKU6JTmnHeHD851MS0k1Fp8oi88EMjOhj0+M4AV57eZf6Mn5aWFoljcMi8DgT6itdTeR95XEHO6oL7nIAZMqRcCgu5QwV9AQPF6GFArrj1WJS6088Kqr6QB+5U0xbtkrZYVFrjMWkhJWIoM0soP5bhAFIT0iA14rwxZXSGPLSDuAsMX2hEhTB0GCEbwzSle+LGMGgyyAzGBxOcAdsX/DrunfPAisBml/YYjxy8seGmEtEgnVRSIRfPXCBffv/H5ebv/Eh+/e0fyI3v/ZBcfe4FMm/8VBlbMlRKAxEpC4SkBK1AXmeXRNq6JL8zIaUwEIeH8mVC6TA5Y9wUuWjeIvnwDe+QH37xa4jrh/LVD39Srlt8pUwtg9GaXyztOXFBd6m8WLW1szbpkRj1sxmVd1+rrHngeXn67odk96qNkqijYYxOAYZnAEY1533jAUMJEpTZXsdhWGcoaEj9BBHOEpdOcHbKkKSC0nGwTfbvqJUNz6+Tjv0dKjCOX01zewqoHuTEtzCbm1v6X3nhjzPn6FGlAkZOP0MNfnh1gOAnVBubGo0c+gmuz+PsxZDSslNeZsxqWWkpDFgM1ryFe161MpWsF/AeHwnToODTFHpTrwORWcRJ44A6OxDRDySUZ484u9VfcEaPJcEBQhydrtbXIzBE2B7y8bwlGookNcROMJEXzobRYOV+zCTOHcRwTXfe7y9aII8oDKoBAQRHViw79txKvbe8kWJxLkETDLAiMnzkCMmDAWvrUTrwCQaTbYesurq6qITGsRfwjiWit/z1IPobaEI62TqjekOd8fHRH9invxwIckDIzGp9GoTwtMqhV/g0wq8cFBqJMzXcQombxPMNbnVPJSSYjOs9fo51ZuU4ec0lV8rnP/xxuekb35Vbvv8T+ctPb5Kbvv4t+enXvi4/+upX5Qdf/qr88Mtfx/W35KZv/UB+8/2fys/h9wf/9zV51+uul0XTZsuIvBJdN8hHr3nght/eKQhwFperVQE7bAflYJAZhNGaOpCSjt3tsuHp1bL68RXSXt0k4a6A5CbCkpsKS1hnUhEaxiaXDGhYjcPm1otQf31/Oebxmy4bUGIlysxacpUA386ULlisHXGp21UrW1dukI49zZLTBTmxFp4KAMN8m5eV2ObUEit17zCPkDho4Us0BK8tvdSgeVKBZMC8NzU19bvRoz9+8YbmVnGheVu9G3pL5CSBrJCT0uISTw/AtY81nuolewyFPaJGpJLS2dmhy30GFkwTRN6Mw8mHT0YWVlaG+EfY45GBS6rYpPBrZ/y+PuvtkcKT2qkjMw/ULyVKBvkyLWl3Ur55z3PiMQgdpEHGF3LofDzgr9NcCmD7utwIXxc2fU0I/Z0OoJQvS+TfgEvd+EQ6LxTWDwCwb+S948Xj0YBpt7e36yCzN1j+KVdOAqmcAR7UOCQZJ73nJ8on222gyS9Me2n5T+cFxLywP+ayLt2mDdepRFK33YqjnaL+0N9gxSliSZxisBpBeEc2nmwmOH/ItUeqDEopiScTkkhxY5eohHLiEgnE0bh04l5cDU522QWIhzOuwyP5MraoTM6omiBnTpwii6bOkLNmzJEzp8+WeROmytSRY/UTcWXBPClIBiQfw/ECGJhh1Dt+ko/LEPKRbh544JezuMuALivlUzXyigFmbHuHND27U7Y//Lxsfni5tG2th0GblGAnjFdwFKLZnYKJzSUCMGBzdJmAyUsAeQmCeAxA0Uk5nFGCYW6Io2swkYNmE4ESoDiPSFw7FTReQVAI4bgQIRBLSQTxd+xpkOrnt4hwp4LWjHhPJsgD3+juZCcAnvUVE+ThkJ2jZpFzzDlSWlriOZrG4qWGHnnyHNiBNTbyfe7+gJ0XV5gGJC83VwryOfyy4Jmlkw+bXx5LS0vNI27oAq9JGS6ti9d8ao+CegIn7pEbS3A1q+d/ALKmqXvGK+lUhC4n6IV4MEeP1LNHh0BYt8zCgJyPgb0Zx+yO/FBgx802VAltnb7I1c+wxxtabkibPPm3Y+Le4lzfatZZkjlDtpxJuh6fR/QlwQR8IVwKxj2yhXYLP8cBqlt+QxYpjhs3TreWC8QTkhtG36F9gserkskTKRJk35KQIUUlMq5qnOYCbOqxW2ayaYARjXoz972ArmrseXnwg7yTCN6n7vjJ2gEDTbqbECgcN0fdVxfutj4R/nxY/qjv/BpniOFAKZShDrI50NBQgxfOgO0nTEGzWYHIWAlUa6EEMFjDUO9c3LEGZRCGZxBGZzCJsScNSxiVrL0dCKrfT2aro4pnZjJ5k0axVTySbeCU4MMWFC6pr2g/UlBCNFswEHWZQIdI/fqDsvmpzbJx5TrZuWOPtDS1qj/t6nSGNYs0V37qC5qqj/oHGrgqMQShgVy/v17WrlgjiYNtkkOe+x/VwIGi0ROPmUOJAaAvzrTRG/N1WiArnyqitNz6C2ghAmR3DqcamDdL/gzq6WHyzGaB4WxnMpDQtProjF+SoOwp1yPMsvXOx/L6mJ7E5g9ubAHTbewJJr8B1Bt1868GEtxBrD+6BIEZA5WXl0s4wL4GeYrRjD2OoLzxz/5jzOjRMn/mbH0/I9nWiX6NEx3ZBrihYDwphYGIzJ06QyaPNQYsibDHEw0zWEJfiDqT/af39RdHXJIIW59VT9TF+LN+TnWinqjeg/lO6D2XHPDhJ5cQJKNxKcktkLLCYpOxQQpbLg5+oNDTmssjT6G5liQBqzTeDs1oE2ltEDlQLbIfVFcrOS1NEujqQAWHhcYF0lxk6Q2PuWNBnCtWddjMiExCNjnt4FnJPIKnHqR9Fn64F2AwHJRYZ1za9rfIi0ufl43LVkvdxt3S0dAm0a4ERpxxiYGYnJcCiJnyUzp10KHg5+PQoA8uLzBvoINnrzYlY8h/e1y2bdgqSX4sQeXCEAaHj/n4A3XZw+Hyb0Bf5JOzEqa8XuLopVAwJjLOh8k8b2e8MBAM/24yO3WlZznzZ99/btDThbCd4oBBo8ePdsanD7grSjYOl38aLgzHJsgsddKmSEuOuuhv1wcLEcw3+Z8za5Z+ZUxgvAZzesrnqMF0QKmEWc/Nl5Hf+ea3yTnzFkigM6a7sJiZPZGIEp+0mfOcjphMheF6/atfK0U5ZgcPxnEyQT3gOmp9mVSFZynDmTX4VD/U2dzTNouEc79hOBiI62bt2lkeyT8HPNwxZfakKVKY2/uX7AYLjqPGvzTAeku7KsZH47xCgRvthWsShisN1qcfkvitv5aa731Dqn/wLan92Q+k9qffkeoffU1qf/AlafrN96Tzrt+KrH4C/vdiSMpd/bukGDFGNIWksV+59pRv+/NxPhqEvoxWSzrjghLTdiqaknhjVPZvr5YVTyyXxn0NkgObmrsB6MQwG+6cENJhBk4sTCVHbthxaOdhag4/epmEwd2w94DUbNqjs8a69IECRxZpSzKnJwpkK8Htzrq6dE1Xv8AygGz5UlI4aL5ddeIlfBKBskpgYMYB1CFnANMFiRPUHxUbR/491odaCZ5aUuT3zzULYJyfDtYZHI94nUwlcE53EPIFZ3gNmAERztO67D3iczh28AMcXAtr9e5QGsNy4npHDqD5Bahc1NU87vCCBpTETyazDg8KCuakict3+AXIcFdCLjnnfLnk/At0Bxr7dbjjDTNjafR58vAx8q3PfkW+9+WvyzVLLpbz5y6Q82HQnj93oZ4vnjtfloA++18fk+984UsyfWSV7qDI90HYZRHHn8P+gflQfUB9zeZCPwwC4n68fqI7e2guiejq6JQ4+gqS3baKxB0KLHGbN2rcqUasC+F4UrfOymmP6h6w585ZIO943fVSFIloP8gqpWXto8EA2Dmnd+vKBs4qNH95ZSkB6yrQ1S6haJdIY6N0bt8mNevWyJCD1VLQzsfzUAivg+K6UKoLV1LG+KlNKEZ7bpF05RbIyElTpXD2QpHRE2FhojpDOfQ9Tf38m6naTBvVRs/9oO1Mg1D1CY2XggYfWNrz4hbZsXGHvoyVakdDnQxIgGsUWKQgkzeGtc3HkQAJ9mn89hUf00OqWUGZB67SooxoWMcwdM8fVSqzF80RKcMIkG+nBZEthGHMfaU6EGhLpOSrN/1I/vHoA9KOHlL5Br/62UMjPvDEWWRzYfeBLcVA4S8/+5VMHTpKG2jC5H5wgtnuU+62zfdk0wEj9Ce33yq/veNv0olO1c5q0YPdB1ZnqNXdSIWzQwVw/9L/fEquWngeBnK9oW/pmVgGTrpco2tBE/vBlU/Lf33t8xJjneNjUy+PGX80yjWXOOe6eFRtnL/rZa+R9133JskryNcXXrhOTYP00SEwR0e6DyxZmjZpsnz3E5+RaeXDlF/qoG6b54Xlmp0+gvcDGVnY6A6FPTW18tXf/FweeHGZqfsIQcrAnnM2FAOCeEzCkMelC8+RH934eZ3FU0ZVTvTnISvhKGTz53/eLj/+55+kLt7hzUayzmZ59BBD+xxCe8sdsscOHynjR1bqI26Gsx8FGGygxpXkF8qi+QtkyTnnypBIgeaHyw48D8cHNj4eIV6WK/WMTQGLyxaZlTyPJCZPvWf9tvd5tOfW/4kC0yXPpH899pB87ufflyiY5LWB0VXlMYs5fWkNjlMmTpKK8iGS6oop/35/uqewBc6PLH9H5vtoQRuFSxv5CfAA6sMFi86RaxZfKIUoRIzjMoUzCHFaG7CmQ+QvTRRT8SgN6iRfS1LXpjpJbVovTauWSWLfbilsb5FcbwE7w/Dte07Nm0fm1ANWBq9KwCAKhAIYqcWko2iclM+5TMJTx4uMHyOJIKo4OsYgWwUqjyoQYyQRniMvGXeA6y6RENJraeiQ2g27pXH1Lol2xWETwwiMo2lTY9iEMSNNE1e3StZvMJ6+wjGd3mD4Z0fPoCoPOLGBVQMWPFEuUS7azcuRaWfMkNKZY4wBix74ZBiwXJ78vT/8Rn531+3SGeZsMRzAb18GLF9a41ClNJYjv/jad2TRlJnGeADRhxfklAB56a8s6a9PvzZTnocoZPH7/9wp3/31L6QrHOzdgPV0Lm3A4l4BGswb3/dBed0lV5tZI48y6Ft6Jpa+7x8r/AYsO+e/P3qffPbH30ZnxxmwsNFpuGc+cAGd8Buw+OVG+R9+7Q3ylquvlUge39qGHjkDFrDnx2DA4n5bNCp3PXCf/OC2P0httNXIh2n11b6hw+asW2kkXz5w/dvkLZe/QvhAm515uhgHGch2lliUrNtxy5bK1jt6kVJm7FVYXNmwRWeP3F+UH+mx4W10XlQnDEyXPJMeXvaMfAb1rDUW1TpjAP2BJ/WXxRzbsTAy/cX//axcOneRmU1mRD74Va8vNTyZIEsksq2v4yS5AwFn8T3whvU0CJFpqU5j2MqlSPK7I1EIpl6kfq10PvFvOfDQvRLatk0KOttxD/e5gbsaiOy4uJgdSoGOh28G8i1NvoHPRjKMWhLsSkpeNEfy6w9I27MPSsdTD0lqxTMSjLXASIIhx56HPR1LAo279k4k1garWDhX45UvbLWjw1ixRQ6s3yuJDhgG8RA6SXSkYIe2gjG6eMJgCMfwJxTkFX+o+OxgMsnzjKYgTIUURoIwuPdu2yPSogwr1Og/waD4hwwZkuZVZah3eofKFOUURYB9TQfTHJ94zvsHo6WGyKOWAk6yyRrrhwX8hSCDspJSVBXG2h/QMEtisJCQXfX7tQNkSPsN91MN7Nyq6/br5uAYjimvhOqH1imScUsDcuFLlbm5ubrHYvq2esz27HDEMMKX0pISiUQ4/IHI4XZIQ5RtsrddUFN9g9Z1NrMsEm1uByH1Br8I+luN+wUbGY8gpsOuitKnLHnkTCvJdmOWl3jMmIgcdB5Xno4BRUWFGIyibmY9kWR/xaEoa60OSbV+Iyf4p361NDaizUr2fLmuN0J8pwqxLGx58MhyKoRtkfmuIACeT5kCOgown6ctbOH6kZPDmVdUvoM7JfrMfZJav0KGotMt6miXXIzcOMmpa2Q0MF9KgREJogHL73vrLgRUZBiznF0NxnNwLyjFibiUte+X0JY10vDUIyLrVqGWwxrNgaferAc/c3obDjBU67buk9YdMJwaYWQnYbyy6bBR6FDSzH1kyB/RQMNLEcJhZVZjUHkHVGAkNBE5MGAhk/bGdmndW6u3CWPA2gAnALBMmFp5WZk2bN2S7oMNlSdkHAvmyPaavWrcWK77CHLS4efN6EkvRPjP/bBFh3vcQoynQ8uHSG6ETWL/wG6sC4mv3b5FOqCwmgw6id6SO5kgPyzTdVs26ePnYCiUNpJUn3kksZNTVwPmj/4LCgp0ljGDUy2HgxOUYghlUVZapnuSUsJ0O6R02RaC+JCxuroaRhUnHjLhWM6DjWx+bR4Iq5MW1v24AjJMwCi1+6haA6kbIz6wLhBqCAIDwtMRgOkXFhbqALOHSQ0WyaX22zjavFlfdQf2G+Oc/rIJni11K4RTAJYd5sPmxeZPr/lzCvJ9JCD7pzXYKVkhcLZFkjEYr/slvnSFxFfvlGRdkz5OFr60Aj/6liXC2E6tB+De8xZcAqjQOWEJdLZKYN9OaV/6BHrJ9SLcrQCNwyHB20g32dwpOzZsk65OPmz0NA+8waZQL1oxPQulL/ZOJMiDJcuV4Ywvu4Bb5Gnv7n32ZvruCQMS4xPe0pJSiXAxez8S131iKXBg0+ZNyvqpCCNlb6YETNqBVfpGNtEd5Ndreidld5zswkaPHJn+kENv0LA2LgiWn2XlIGHjpk3S3NKsSZpX4E49tEtUtu9E3U8lzWNQGKTpWZk+QHO2DAOhoUOHwh9zB1gBpqXncLSIcT9qlANlzP2E+yNRXR2n/ympq6vTLzGxCJNQ6JdCiWTngdpp6bjAHxFfIoNRmkId7kDKraA2OLfBTzuI7+Na4rIs1hv0bPo0g+3HyQbfV6EBW1xScsgPjegg1RMs6zv3gt62bTvywIGQ0SnaCWnitUenEsgN5W7bbj9Z9+OvMCceXkt7usKUXqYcodgtjSKrVkvXum2Sd7BN3/hsb2VVNdXQvgRglPwwpe+/RQWntRTvlGBXswRrd0v90sdEdu9CjefqlD7AZFlK8LJ7IzrVNn4kAQ1EiI9CvAS6H04RgBtaMJSTJyuz1hiU4ixsCGOCkDQdbDItHvywaThh8JLi5yz5aCk/j980M1we0pBmOWpjlYOi26OPlsxqw1MDlm+yqOd+1nzFQcoMfEA8BzEMjXTbIJvfDOza1pLiUv3cqn51h07pMIzEO3qkl/BDfe3oaJeD9Q2ajompf7D+jwcdDtX7a7Tj4qcW+Z15sk8cLmxxcYmUoIPslhZ/EMGp1sENNlB8pJLiYp1FU/l6M932XraIVfRwpD5HYzFpbW01u0SYYIMeWdkdQJhPpdMgfWz1MvnGr34kH/jCjfLWT31Y3vrJD8ubQW/51Edw/RF52yc/It/53S/k2e3rMRCM67puipy8njh+ewcnKUpQRxOo092R4Uz1ypwqeGf3vj36sSL1laU71K90W+mdnzwiDz4iT0rZf5l7gx2ntwGrpQiNxFEFEesU2bNHmp98SvLqGiXAGpsQKcjPhzdvFsb+6TUNMXvekzLajgTYcia4BCEmkXxcR5sktW+nyOrVMJqbjZ9ssOfnNCX+YzWt0rSvXnI6Ema9ERhmEt3S0zRPJZAfStaSuTarjZALvt2NxmTPJshBs2/9nCCgSPKCOTDESmRM5WikTGOrl3LwgWUeyCH/ObJn717Zu28fGgteIQsI272JODlIcS02GFIucIyCukC22VZecYE2Wc9J9Bzz1q3Rhfpk82NcAJxycpGlFI12yaRJE6HWjFXvAppiN7J3+OiRfrk27oknHtfOkHQksLweD/KDpUduLdauXQtDu0PX7caTfc/WZINLUfiIO/3SpCaGH5BpDxyOFqEQ653IsCFDZeTwESpjfp5YNZR66lF3GJlzkNrY2Cg7d+3Sl+TozU+DEZbtAWVf9Rf1FP0QaoPcufQh+dIPvyt/feAeeX77Rnlh9zZZuWuLrNy5RVZ4xxd2bZW/3f8v+fx3viFPrX4edVynhdJtz8kQt5cNyc8vkAkTxqeXNxiQIxBfIsnijrrFurt7926p3V/rVWVTl/3EfYZ7cz/xpOxmCHkw1P3P5O2lAfZFpz3MliroTlvape2FNRJpa0YDiTEn9VwV2yiCwmpFP8GY+SZ2EoZrMhzV9XFcuZoDCzSUbJfo1hdE9u81hkCPuFmBcIBd3VjdINGWqAQTQRSaKbYc5XvwqSIrm2bM6z2a+VlSr4XTRuNEgCx4y14LMUAZP3asmtXK2SF6Nb3vPSKmefbc88vVSDwVYNkwhqdIG343HqyRu559TH513x1y07//Ib/4x9/l53f8XW76x9/k5rtvk1/98w657bGHZdeBWolEQqYYEBHD98iXd83c50Nms2fPlvyCAk3PvHhowvjD8qDjMPLkyXXdunXww50J0lGeNCh/5lT5jsFgXb9xo7R1deqaS+47mg3NH4hvLdsdN4KhoIwaPdqsp8Y1Q/UM6XC0oCypL6SJ48frHszUIc6u+jttP3ipZYCTlrZW2bEHBiwGUhzgZXkdlDC1aYBgBcQjBNvY0iy3/etOaehsk3huUNpRT6IYBcdxP4W+LIl+LQHF51efutBn1jQclNvuulOaYi0azYDy2k8UhHKlsrJSX+zLZohtFL+G6dcLNlfUKU5eLX36KXUzeoZ+wiN1OInwt6v9AX32NNUHL07rNpaFyM5H519SMGC3bpGObVslT7/bl5JOGLCsoH6t1g7aowyyPKWhKcAvKnowIVFuSwB/QVjGOfwaBl/jbNor9Ts3oda3QbG4RZN68aLDTxKNdEuH1FcflBQM2QAM2PRWPjgYY/BE49jVP8018tLS1OwZsCc2L9FYQjrRoRXnF8noihG6PIQNGTvFvsA7VuQ8X7ZyRaZByCoLXlk63mB6lgibBo+crWqKReWO+++Rz3zna/KdW34lP77tVvnRX2+Rn9/2R/nF7X+SX9zxZ6Vf3/13+c7vfyXf+skPZd/+AxqfPmLzZGDjz0ZBTkRnwmj8c62oCs7Lv9YPHvXKOPMODQ661VRX62Ahmkpg2KgFf9LBDcqJ2gMHYOjslmgyobsJmLeWTb7SYP5I6LS5wIB5yovkytiRoyTfW9mbFeIEw0r+pQMrTx7HV41TA5Yz5GrA+v406x7ZpV687EB92LJ7p7R1tKPTO7ml4wd5I8gRidesEewHqJF9UbrNOQFgOlvQN+7ct0c60ZeR+GWnHM48gmx9V75xTsO2C3V7277dsn4z+jbgZEs8hHrM7rZqVKUMLStXw0fbI48xHtL644H1nu87dEaj8vjSpZq/bq2V5/dElUNvII9Mn3Q4nSHRTzfdOZnMHwec3gas9zhJizTWIc0vPC4lyYPQii40fAnJg7M+bKB2U1JQFv3TpQNagw1x9skj/7IC/Gg4nnPWNJjgrAGJ20jBPYpOMhaX1NYXJNC0Cz64hZdfpxhHSNrbuqS5AQ1vil/tCoNnNBpJKC48H8Hg6wiBiDn7rJSdCK/J6aHoUIxBPsYCUHm2t7ajdpm1hocKdbzBT/GSjQKUx7RxE2XssBESa+tAlsEFl26ogLlQn3yxoYBn5d3wydm3LXvRSG/fourB2SHmyOSKf/RtYI8DBfJDYiPFR/MPPPW43HTr7+SFrZtlb+NBae7skJZ4VFqSMWlNRKWNFO+ShvZWqW9rkafWrJTf//M2jSPkfWUr8wfwhg/cR7CqrEImVo7VPT2TMPhU5/3wAmo1ACUgOHZ+w0ZUQEOS5jEwPFneTYATR7Y8eWSRU25r2FHXVpuZJc0P8o9jhuCEwk5606y6KwkMqXFDh8sFE2aI/TAjvSlMFCcOml5WYZ0S8AvicO0D0IvMWMdIC2bNkYIgzBEar/BnYyapTnlk3VhP+RnvVZvXy57aGtR7DXrSYfOjTSyO0a6YHERdvGvpo/KZX3xf/uuHX+1BHwV96Zafy4v7dvjqjcHxzhLj0y854djU1KRtSxQDfu43zg3++S5Ghnht3ALaN6UkhrazHe0O83iyQR5owM4oGyUzK8chD9yTnHrA/LENgA92BgTywDNzhZ4bg6Ude/bIZrT1lIEfXgiV0QlDVmJsp8jXjliL/OGpB+STv/y+fODbX5QPf/dLafrod74k/+8n35Tv/O23svXAHg2X+TLZ4MWpoFsnDfoSAJWBj+8P1km8oUbC8TZUvi64m48VGA9+sqee6loNVnS7wKXnHzBbS/G+6TBpJAVISCPUVCeybT34iGoMmVAASqgNRlUiDtckunvtMVlsJq5TFyokc9orMryrmEDscky3c+LA70LT8Bw3YpRUDqmQ/HBEIiH7fnwmD2wkdB00zi2H/OhZbXOjPP7cM9KKhoCjW3vf+iH858cKf/yWLNgUsSHbWLNb7nn4AWmOdupjPX5sQ400eDYf3TDE2RIalcxHAsb8pp3bpBOGKN81PByY7ojScpk6pkqNiTAHbuaWghrKGTDKjy9E8cgvIhWFc+WySy4xS2a8dKyUD58sUxgIAjD4rG6ok6dWPS8Hmhr1bWsOTv0vtCng3fKaQJnTUEphEDqsqFRmV03U78M79AVP1n0hq0h6A28Nzy2RM2bMhs4FJaSfEuodtl0h4lDGvSjfFWtXS0tbVz90beDBbb1ZM2hIxGNJWbl+jfz3Fz4jX/3Z9+WuJx6SB5Y/1YMeXPaU3Hrn7fLNH3xPVq1ZrQMvYqDyY2a4WZfxy/YP9UI/54sEMwR3JVPnbfGxjSHsNW6dNNhqObKoTEajnWed5YvQNOC0juOe1z0beA5c3xqMhKULbdjdD96PgT9fS/NwMjLkS5N54vvPzfGoPP7i8/KeT3xEvvnzH8uf/n2n/OfZJ+QB6ArpIdJzS+Wexx+WW/95u3zq85+VHXt36sD7pOThOIL9zGkL1EeMrnCCViBVU4sWBcoZp+Fq7h8vaOXmHxsAJpqFRGeXtO3GqCiRVGMqDfIB781NLRKHVUHDIpmuZSQWX8/4BhuCWgg2HyeuRlkJcpZ9zPBRMnnsOAlRvvoInT56AdypH+oN1NjZJk/D6Nmxb/cJ49zybYlgY8bOkHusPvbMU7J2y0Y0unE1vuwsSWb3jJ6gP65rNS8keG4e9YWSvAJZOHWWlETyJN7BQV/GN1fhmK/W0PAHf2gsCyCwxVPnyIXnLkY6QZ21PVT8AwUve2mQB75lvWXPLnlixXPSAblxjboKwssTf7Xq+UFHGB+5gZAsmDNX1xCnC8RhQMAi4M4fV15wsUSgXwXcE9ZrV3trWy2oiizX+x9/ROpam4xxBTpEkAEHZwQDMFwDMKR21O6Vb/z8R7J2z3ZpSEalE4YSv2bVG/FxOLfwW77ieW9wOJAwBizJrgc/kjWXhBXxkYU6fvCnW1iQJzOnTZPyohJtC7nPMzJmBvW43xuPdONSp8eXPytbuSOBcdaMWf82jwMKH3M8Jb/kZeXGtfKz390sNTU1kkJ7ZPe75fInuwSKR+7CwKVS1bU18q97/61bnenyr0GM07q5tUogGI21VR/g8xHJsdNTPmXpG/R37KobSQWkteagSGtnJll7AgZbWlrQaOAEbvrIg/f6xd+pCsoMHQ5kRwpyFsXrSfhG/4kClZ+mMw27Ahhus6ZOk2GlZZKIxpQdj0tzAj/G+DOuZkYTx3BIttdUyyPPPSMt0cx2aLrP7QCUEVPXsidReb00aAryMenO2n3opB+VdnR0fEhG+TJ/NCg5i6L5ySbP/cwzFwk3KOo2iALoqzfQ8J8zeZpMGTNeZx5zOKK3zKFjjUCmIZzmQr+H5hXJyy64VN5/w9ukrKAYaTBFlIDHP+E7HVgoi6Zj5mlHtAtl1yn/gXFT29aEMuXb7ShbZSgjMQu9xj3mLRRPad4uPm+JuUloOIeBAvc0PnvefJk4aowE4uZRsL98LNiU2OZEZ8qhbhv37pR7nniYX/k2dR80EPW0P2Bt4afGD7S1yrd/+TPZ0VAnHWAqCTfOdHJgn00c+OmX3lC3uJ43Hh9YA9a0x6gD3tHWiUPTqYNsrsj+tMlTpHLYcJ2F5f6wfJKCXxiD5jPhmVYsMzPLl9T2tzTKw08/IY1R7slg4I/7hMHTV+ru3oYDcud998rGXTskCb2IcVkA+h5+LCjNHTLAcqMhyxdTqTtNzU0SjfGlcsYyeDG4uT8OUEXkOtTGVv1ylnlEbwr9RIEzCYnmNvxA8TAi55oobShIYLCri7Nb9GkqVOY4mGEqlzFgT5IaUohea8XqftYZ82U4N0rXJQTgz1qxgOHWXpozGrDhwgJdt/bAU0/Irn37hO8CoQ3RxoLBBwyZVlYrMYZe0hrvkr/ccYfs2LdXYlAg8sc/rknLzMAaN6PfGSorK5eFC8/U+sBoLTQLfgcfKLMx6AhmTJgkZfmFEkjQmIBuwrrj6pwcCIKfVx5TXiHvuO6N8q7Xv0lmjp+sM5aMkw0pU6Cup/X9ULB+jpUAGjQWgXBYnlz2rDz67FPSBSFx+YCKl35UhgY2OI1XlWUsIXmQwpKFZ8mkkZXd4ncYIEC+nNkvieTLpecsRputwzTvZnfYuQh7l7rdgcb1jgfulV11+yWGjp7lbFWBB+v3SGHD9kZ++N34RK0d/P/zwf/Iiq2bpBWjzHYaU2CKfFlYtbKqpbOwaKO453D3LaEGApZby3l/Cb+W4ZOM7N5l7MjRcsZMswQlrgN9Gq4g6IYxYCF9bZBwQFZ4xqdtzYkueeTppbJxxzbVJS+bJwZ+WXr6wemSp1c8L8vXrJZO6I1uS4gBjk6uQIlsu8q+iBNf0WhMP3dNjBs3Xo991Z3BgpNkOZwaSOsEtCGChsSuUe2mLCcA7Az5OVpqG9fdWpVSdrphcCtbBhQw82nWAIdp7Xia6LMrThwMOzr7+rIrr9Z1sf1Fa3u7tMe6ZPPunfpYhujsNDPpbGRIPD+u8EeIc6bBBvjxpU/KI08+Lp2wov0PEShSnYUFGfHyxHJmaN4Z82RMxSh9JIWq0G/QmLjwnPOlctiIdIfFA3cYYFM5o2qifPGjN8pbX/4amYL4OSvLNWcmdWgA+cwuc8tWNujvaOgQII+rN26Q3/zhFmlpb5NoHB0awpD8sHxatijL3JyQlOUVyHvf/HYE6I1hh4EA2+k8NBiXnrtYRpQN7VNdCLpbvQzQ2IsEZd/B/fLjn/4UhmJSukDUxd7UxMabTdmwYXnMJsIe/aAb3+RfvmW9/PPRB6Qu2qZbUNGdTzP4xMQPfx3h4+BhQ4fK1MlTJHSCZtBsvnn0ty2HAlkm9cfviURpKCJXXHSJlBYV6edxOR2U4RFnWQwzv3xXoKWrQ3bU7JV7H3pAX35l23GovPGepeMGTw8Y57K1L8rf775T6ttbJFiQp+8y9GhLAbppewZiu8W9qs8/7zzokdmKbjDjxGj/qQ6UKtfjaafaiwIMNKwhZ0Z9puXy86G3zJn+vjTAAQPyjTwFud4QOAmizwCJc03a5YsvlHIYJeYFOzjQ2MJoVo0ukC7hoH/88LWl3NyIhCIR3Trmrofvlz/d80/pCvPFKbM+yXaOJMbHnNpKp9Gb015hw2lYj9IBvBsp2NqdOH1+/Vq55W9/wUgchiPcbYOVgXcB/tORJBJaBrmhkFy+5EKJwxCnDCxjPaLIBv1ATjMnTZFXX3G1DAsXSFkqLGWIpap8uLwKbt/90tdkwbRZkofWlTPTzEMIAxa+5c8N0rsgtyh44LXtGFX3D5nwEYJxMd9c4uDFzdkvzmDUNNXL93/+E9m+b4+kQubxrAV5sVC+SIiHBhFntGloLFl4toweMgyG/PFk2OFQ4Ke9qadjhg6XxYvOlhCuWbdS+gQgA5ZX2gFHvrTLpxJt0POlLzwvf73nTknBAKQhom2/euwfGK0lwh4PB6ZBYpp7YEj/7YF7ZNfBWhjWMCa8SJgXc8qegYQw1F8O9HEsDkZk+vhJMnfOXPXH+wMFlSuONLZt/cyAqRtOLXhf6wifqnFQR74B+tL26yTBzyXb5VkTp8nZ8xfqGmoOiNIy755BBcuFSwjCeblop1Jy7yMPyrLVq9B+2IF4T/TmdjRgPCTKXgnn7cGkHIx2yB//eZts2btT9bkNxnUCss6k688x40CZoDy47GnerFkyZlSlPoUyT8EGLwY398cBWszojdoCMUlwYRQr3kmZBiSMupoPK2Rg1LK72+CGySO6EzQcKRk3fly6vp1wyTNBElsGYHhBsbzt2tdJGBYOjRSdjvQaYf7Sm76Zi8aAlIoldG0ac9MYiMsPbr9Vbl/6sFTHO2BYmgZOYXtJz8Ema/PLIyujn7L9pOF57oQMGxHxi3t3yM13/E121NdJKwZi3HmAnR0fHakuq057MXq6xQP55+P8SxZfILPHTpChgVyzrpPxA9bg7hPwF0LHWxyOyFte/hr58af+Tz76yjfJx6+9Xn7wic/Kf9/wLhlbUKLGBu3CONLjYy5+L70x2i4rNq6Rux+6X+68/z559sWVsmt/jXSoQWtmxRRk17Dcf9gwfuIBPVGSlivQiRQ27dkh3//lz2Vr9R7JyUfnxHIVvpmsXnrAdMz0AYqnZGRJuVx39culCLKm3HpN15LD8QF101PKsvwCufyCi2Ts8JGSyx0JcFP1Gvd6DILgbtalJyVSWCA1yXb5zd23yd9hQB5sb1G9jGKAE+Pz+z6QHaW99rv5YYvdf2Q6PNbU1cvvb/ubvi3elYqrMUG94pHGktCwQJ2lIahfhIvHNU/xaEwqcvLkFYsvkZK8/B5pHE9QlpQp4+5EJeYsZCa/9izjYpFC+8OP97DpMV/qQ/0HsT0heDhSOlaQQ6oNKQLKBb36Za+Qktx8HYjCJpQA2gabEzNRwT8fD/jhAIjLjL7/i5/Kg089IR1ob9luZMNKxdKxgOE5SdEKagKtbdgn3/nTzfLUxtUS1QyFlC/j0+YyGzDAoUCV5RXyxmtfAxnAj4YZ3Ogtp6cNbHHzB+Yr9NOMeLVgT3DZalXR1peVwZJpdIsKC3Xxvq6rVNfBvnLF5JdGbDInKWWjKryCMHk+YbBCxJENbTQal3AwIFdcfKksnDVXXz4KolHTWQg0Uma7FcMjg6oRi0sllE1cja+E/OEvf5Z//vtfUtt0UDss2q4agEE94iWzTLJs9AlfOJOwOY0hzbXbN8vNt94iK9esMSNw3NM1T7jvB92VcM5lKhw4RNA5lhcUyrlnLJDhZUO0k9Ho+WORHVE2mB4OzMeC2XPlza9/o9zw2jfIzMlTpShidkW1q/SC4RxtiDfu2ym/v+OvuuXL927+hXz95z+SL/7g2/KjP9wsz65frYZ5N7kR5ONwvGTDhiEhU9y7tS0Zl0YYDOv2bJdf/uUP8vjK56QtJ6GPb2k4UEYWfjGYPKITgMzyQmHJh+HPx5BTJ06G3kDuXkftcALgFQwPE8aOk/PPOBPlEZa8YDhtJPUGlhFfcCFyuXa9tVn+ePvf5P4nH5P6rjadjeJXpWwUtn6yXqgBBmKafr3oFZ7OabuAUxKdqM/U660NdfKr2/4s/3r0wXSdJNLx+twIfrQhD4NEGlmF4Vy59MKLZMHcecY4hEe/397A+36ipvaHFJ5R19HejvOkLhkKIyPkpS8kUI9YnyjLQIiPqb284YRHPy/9oYHCJOjOqzAAzUfpMl/UHZaZH7ZMeGSbyT8+4eJj+5//9te6q4VZTjAwnNr0uUs6Rb6xerv87s9/lH/9517oEgb68MD2nktJeFQ2svOAa7Zb1B0+aZsydoIOTIhevA8qsE6exvCKDiXM0aWesmC1bE0BnxAwKaavpWFVCkRWQMXFxRIKmTdP1Yil4wlk77jDyy+NV36hTIoxHmYPcTIypbyA0OjqNkhAWWmpvOKKq6Q0twAjVX761xsw4Ee1xMemDU7wZbtYPC4HDtbJ7Xf+U/78j9tl6/69+sgq3Rv6wlr44+gGnyooPE/sCBnnqs3r5OY/3CLPrXheOjo7paOr05s5yALCmWjMHzzpmuvCSEQWzZkn58w9Q43Z3pk4PBiMWePMbYSzkaAgdDWIowUb31ak/fBzS+XHv/ml7ke4uWa3NCMnraGU7Gqpl0dXLZcfw4j96313SXVbfcaIzYIVSV/ULR/qYBCFvnUgrSdXr5Af/u5Xcv+zS6UpGZUuFHscvLJjst695iADXGsRwgCKt3XKzIlT5LILL5Yi1ku6e8tgHE4cWESleQVyxeKL0CmPkxxvC8QeZeeB5WRJ6wkGNLvrauVWGLF33n+v1Ha2aBlb20z9Mi46kBg3DkcEjxcGZ51dt2ubfOemn8rfH/q3tGEglVa4PqA8cOa4Kya54I5vz7/m2ldJrj76RrMJD0fCE5PrL2nEEdP2HaiuRQVKqKEXoQGrHnpHJ7fvQ1va0tEuNQf2m7jSkXp5OkKyYLkdLxTn5Mq1V1wt40dWar5Ud+DuT49QN6Rr9YrGahQlWtPUoNtX8RO71dxH3mbwOIIxkqLxqKzbsl5uufUPsvSZZySWTEgn+hvKg3xRF9QA11AGes77OHD2ddr4SXLZ+RdIcYQryA0Yt/842BD8IuCdn5Zghx5ItEsUDUuwukby7bYk2VrcF+DPX/g9FAg/h46KHgISLyiW/LMvQOuQr1uo0HJVYxVDrGR7Smq31kokFYKS5kgqAB6htZ5ZdQLAdI4mrd7CMV/4BXUmO2TMjPFSMn4Y8q23Thp0UOCBa+xGjRoldXV1snPnTjRM3tupkLnOmFi/PHikesSlBOhs2FnxCzSbtm6R1RvWSSo3IhOqJmgatHN01Aw/9NfW0QnjByay50bwKSa/1x7wGYBscWjQcaxfH+uU2x66T27+062yHmnwQwUaJ2eQ4Id6ofnR6URvVlF5B6W4y0VCxV1ZPlTe/ea3ytSR4/ov/sN4MimCXfzwyDxy1vVgZ5v8/a5/yG//8kfZtHunfmqSMzW8z3WINCY4g13f3Czrt2yG3NbLiMpRUjZkCAxjDtwQH4j541bifNTLx2YsC2vk2hnkLjTafKwXTyb1s7odyHdrKiY76vfLLTBWbr3z77LjQC0MiIQkUSD6CJAv7iEu/unaMI0xAzb4nHUKxpIyCnJ72+veJOfMOcOMuyBgFKEBA2YHJnpz87B59y7doF5lAVa8YuszCOUwDHK58twLZFh+gYYjf8imCaQnx4JMyhqdOe0Tza1t8sTK5bKtdp/nOTtU5pq8p6B/rGMTR4+Vq8+/MGMMaSbMaX9gvZaXD0G8OfI0Ovb2aKeEuBwEOsInJgTFoX6ZuAdOxOoTFbh1xWOydtNG2YZyqJw0QcoKS7Su8ekXhycayvLGKDPR6KVJxRy1LHCfZQhV0Xh43hjrkrsfeQAGz29l9dZN0sW6CN1MUrc1QqN7yqNHPPAujStub1cUzJX3v+UdMn/6bJUfB4n+dotnmSsPzCPyYXWasjDr+6HnuLaGTw9CpeIEL8e1a/fsktv+c4/srTugdc6LyehpL2BbyTaN+5vzUfWsmTMkLzcPaaPPYpxG+H0S1zKr7FE3bRJdGKBz5wVue8U8+/N9NEBKWneL0O8WFObL6rVrpC3agbbItCkKHDSvYJoufmLvyydebWjnt27fLjV1+6Vi1EgpKi2FrDF4hx8F8quz/gwE9MU386vy1rx5biC2bS1I7b7HHpHf/fVPsmrjemmFjrO9T1BGkK/RIJancqtpdYEvcskdfjiw43KnN73i1Wiz5kuefUnZS8c7pI+DCae9AUtNzklAIWr3iOzcLXlRjIpZs/UGDochVgR/h0PyQ6+9e70DFRZ3c4eNkMCiJRgq5cKziUnVkUrdmSMtNc2S7KLxgRBoXUx8fcd6fGH4OXKoILOAXKEVZYefUxSUifOmSmAIzCfaD56Pkw3ykQcGS8rKZOuO7bK//qAu3ucMHXundAMHsPztURsnc6Kbk3NHNoZ99vllsmLVKikdNlRKR44wnRpSoc0TDGNQgmBs4+JouNkosdyD3tQKG7AoehR+o60h1SWPPf+sfPOnP5DHnn1Gdu+v0cfe/G6/WTNH2RrSwDiaTgaR43YQHSaN4hS34YGB/LqrXyFXXnCR5MIfG0L1ejj04clLUcGGN4ZGk80+ZcVP1f7mT7/Xx7U8T7Dj9vhlKO1KcUpeaXh0xaJSDQPzoUcelh17d0vpiOGSW1QA3imxHGnsaJOCSJ52ppzVisEQ1SOu+WIW3WnUJ5AGDf7dB2vlrofu19mSlRvWSj2MaW47w7XCLC7KxDb/7Nj9ebEnPNCQyIMSXH3hJfLal18ruRhositAdg5vM6Yj7AlnwOotLxPmtL9Q+SOuUaMrpXb/fq0TXYm4tHa2Q9/9y64A3zkNAMqZuhKIhHW2cOuuHfo0Iw69GI56GonkmqcJfp68c8uy/8i6SqM1ijpMiiOffFFx5daN8otbfit/vfMfsr+5SWf7uZxF2xHzb8BrXKmRiFOKg7LhzCv3G37lZVfKG191nURggHBZAWXohwmdgb58CquIT0K64nFd48u4mS6NL/Kne6B6xAEkB4ZoGnS5jxqve/fIT2/9razYuE74/TKG5R9lp3pKwH86bfzoi0HIP9eF1x+ok3box+Rp07T9pEzZZh2SYLjqwBLRcTtAxhsJ6+ul5ECPhGnnjg4MqfIFjRlXJQebGmTNpg1IH4Npnx5qbnHOlsKfGuVAWZL40YnN6CeeeX65Lk0ZOWq0fngohDJSFpXlDN8Wln9dnsaygczoKwbnKO41pqLy/Ma18uObfyl33HuP7kPLz39z4E9uOCgJ5EDHbZuFH40RP2HdXi2lXxvLD4blkkXnyg2veq2UYSCRzoh3zLocVMCgiE3maQzmPtooqdXPSttd/5aitlZoNbsEUD86AvqwFZneqVrGtTu0wvMIsoqmc3UQfyKFBmnWQpE3vAc1tcDc5A8DsRaDpV3P7ZKaLdUS1r1WdH4Afz3TGRh4vBwR6J8tAeHnM6mTXYFAUkonDJPxS2ZIqgi+09GrhMzpSQZn8v750H/kV3/7s+xurNPF+2xgUxzVgk1yaY8sR1UXNEIENygPhfm1qaR0tLVLaWGxdkYTKsfK2QvOlCnjJ8gknBdH8tWYzEPDnsvP2KKhjsVj0hmNohNu069p8SWTjbu3y72PPSwbdmzVBo5NVnt7BxqoEChi9vdD/FpMEKYtLqN35ImzItr1SKArJi9bcrH8z9vfJ2OLh3gezeGw8OI9HKKxBBrRoHQg/w8+9bh896afSiOMChqv/CwjOwAmaQxGdgRGmw3fOCPfnIWGv6FDhsrCSdNk0ZQZMnPGTN3/MoyBHr8sE4bxQe/xREKiMFw4W84OpbGxSVpam+WpZ5+WZ5cvk5q6A+hAU7rFGD9UkJMbxqAEHQDTQPggP9OMlFmGOlPNP/Jg8wt37td80dR58oVPfFKGlZak1/Zqf4f7h4SNJwsMds/SJ+WTP/22zixzAKMDJRD5Ug9ZoH0wbdJk+e4nPiPTyodpE6GmPS0oZYbtlwl6OLZ6h623hu0+WE9jT02tfPU3P5cHXlxmZIYQ3bv7TCwB1iF0wlyTd+nCc+VHN35e11Qqo7QmDpdYNpBV2GYSQ9j9bU3y2e9/U5ZvXCMdEIbmn/VSI+WVObMwLvyhQQfDDTrEGVd2+FPHjJOLzz5fzp+7QEaVDpXygiKtm3m5ZNKEtURpMx5mg+etqJcHYExv3LRJlq15QR5evUzaMSijjnJQZzhDWKTLgHrlHa1hzdlKLvPhoKkAFtWiGbPlI+95n0wfVaX+ehMVr/1u9BeNwuyETq3auknW79ouBw/W68wmt+LKBmWVgAEbR91lG9Te1SnPrV4lu+r3Swz5xi0Fu0d/OtR9c80UUb7ezSBkqk8tQKNHjtR1u2UlpT3C9gaWRV5+vhQUFMgs5HnOhEmSV1So7UHQq5SZwfqxgb3pqn3b5aa//VGeWP6cmRBQUF9QF5RJy6g5N/pt0k6gjeYXrfgyWH5OWCYMr5Qrl1woZ86cI5VDK6S8qFgKkQ8tbh+//nME1yUBLS2tUtfZIiv3bJVHnnxCXli3RhpaWiSYm4tBSNToDspPh9s4DUA3rPw5MUTuuJ0WPyoTgr8oKsfs8ZPkGx/5pEwdXYV656WJg6mrJixhj4MJzoBl7hPtIvs2S8Of/i7ljQfNNUvTUr/ByPoWp+kYESGMII5u+dm3BDrUptwRMuzyV4ucebZInh0h4QcaBj2UAGpY44Zm2bJyo0hrHEqLZlCLzSjskeBI/RsYXvoP+rXEg8cr+E4lY5LMQ7MwNF+mL5gpxeOKzfKBUw1gmQ1xfVeH3PLP2+Rv/75bZ+44o8JH3hZs4rQB0Szix6tOLBnOwnJbJnYi+iUd+CXxEVo+jK/hMMyGDxkmZYVFUpCXL/ko+1wQ95Fta2+XppYmqTlQK/sbDmoH2Axe0CppA2Yab9N4aZrQE6MNYBr3lAs2VqBEigZjSnJpKMeSMm/adPnsJ26UqcMqtSPUXpfwiuuQ6I8fIMHdGWAotoLvb/70h3LPk49KFyx48w0bw7uBSlB5tw2q/uJcvzoE4sbt+WiyI/GUGq+VlZX64QV++tZ8/hZ5RO/KPVxb29p0DXJ9Y6PKrzPaqfWN5nE8bmaacnR23JMRkwKxU9RyVCfyAv+so5AtH2kWYZAwd+JU+dy7PyIzqsYxpPq1Rz3XCHuB9Whh/cGdRXfPU0/IJ38CAxbX/TFgOaM2bdIkNWCnwoClRNWgMaJNB+wjeD/g129Dh0L/DVjUCUSdREesBuyZ58iP/gcGLPWPjDLZwyXmh80gwnPnCgkHZNmmdfLLP/xOVm1YJ+3hlLSiveG+zvpImiNnwCZhguNP00bdxH2tT2iXud6T68K5z+zU8RNlXOUYDKSGyJChQ2GMFOoMF79iZHW2vaND6uvr5SCIn/TcunWr1NTW6ONebqvHZWHGdoBsGADQ2Uyvrpp48McjiIaGrnuFgTJj7Dj54JvfLufMWyC5rPPwr1FlIdudAyI+8bjnofvl7/f+S3bX7Ycr5BAMqV53B0MaA5b3tH5CJjHODHIgjoEnZ20JqpetK4TKLA1eGAfNGcKTY/1ENdxogKbhiyMblIVp43JkRHGpXH7+BfLW171RisN5kkfeEJZxHY9toDgA5DKnVVvXyzd+8kPZvHenvt3Pdp5y4MtbRjogZVi5w5FlCYMdukcjVmfLA2HdESOMXBfn5mk9nVg1XkaPHim5uC4u5kAooh+gMC8OR7W9b21pk/0Y9OzatUv2oJy27d8nrR2wQ9DWo9boVo2d6Ef4tIl5Zj/CcuAEgAIHs0SMeo77iJv1qmr0GLnxgx+R86bO1g+vcPYemTKCZxgTWuHFNKhwehuwqpGgAFQ42ihdt98pORvWSKSrka2s8Is8hy3UbtKzEfYCreVsoKg8UHw+QuIjHDSWTeMWS8Wr3i5SiFpTEFalNerEdYGwWcBe/EBKNj+/Xpr3YgQd4+jcdLja4DH+fuLoipuJHFYSabDCQajmQls6NkZ8RAJLHNQBm7Vk3jiZO3sqjDz4MU+HTEb6n8zAwpMtG7fdzQ3yr0cfkl/96ff6tStB45ORuzEijc2AfBpHMwtBI8nzp40tT1j+nsXI00xxpE/SsIMUwneqAe0sh36fnJ23Lzjl79eLdjSEBSWFUtyRlHOqpsi73/o2/XY/jQidrCOpBUTfxwfJKAZaoZB0war6yg+/J/9e+pi0BZMSiwSgAnEkZRLTjkBl0hM6+5G+bwSgPvFj5ObLtAdbFpQPKeXNRipwatPlkWdWjux8bNnxhOuddWcCdAScIb9g7pnygTe9VeaPnWzWkHnheEwH846HhPXsgdzdsxQG7E+/bfbChaHFIyPz7NDugDs7KGvAToOBRR3tZsAqeTPaoCOHV3cBG92h0D8DlqDxhPLHQIMG2qULacB+TmcZlVGvuPsFmzlLCMeZp2g8Ic+/uFJ3Alm6d5M0oG2Pcy0mjAbzeU2DDEckXhlto0NfbSSfduRhgMmZwUgkjBDMp0E7Bk4dMGJpkDA8//yZoQqrzuGErhpOzzN1lbHpH65D0IMQjMmq4aPUeL1o/iIpQx4sfFqdBuMlWXDHjaWrV8lXf/FDqcYgOOEVa3ZbYkHeuqN7jLausJ5k+/SD7VZGMgaZPPYTWhlNHDQkSzFo+MT175RrL7hUCsAI49G2D23sUcNjyHLK4wPLnpbv//aXsqVunyQw0OWSAr60Rnb0QwH0xyT1B7n0ylrzS8Hin2K2+eWkDZeDhUIwbHMj3oAbBq4+4kf/Ho/DgO2A7mCg09WlXwZTAzUI/UqXhyk4xscZWK7dVuNV7ygzKBsY0TjlVQB1IB8Dn3mTp8t73vhmOXvOGZKPNDUWRmLh8WhhUxtMMJI5XcECVAlAmYLlkjtvkbSVlOkt07gYHBcbX6NAnDjm8FlMFJTAKD5YLBUTJsJ45dpXekqnqkG0foJCpTkyrHKY5OQhWDChCqt16BSEYZkZNZWbXWkygAqGziSZm5LyEWUyurLCNMLWeD1FwbxUlJTLq69+mbz7+rdIaThft9bSR2Mmi4rssjAyMPctKbSRwx0eKAC6K9EtizSG3pGJlxF5jj7wHl/W4Do0fuY1Ek3JJIzG3/nmt8rsGTO1fDR2/gxAK6BfPUIG+bnGebPn6Mifhkogit6ALB8+ixnYPKKypkjGMu2VmCtd56cRW+oNjNDnw1wqaEBy9pUyLMoJy5I5C+XDN7xDzpgwTfLso1ef/xMOyMMaQqcCtKM9ImaM554G0xGCwX3E8soLB2X+nHly/eteL+OGjZSyUJ6UU/9h4uvLSyDd/o7hTTDPEAAOUaZklYYDd/vgTGt1dY3sq66WGo+amprUANG1jPBHle0L/ltUWzqY2TQarqIGUx70fMywEfLxD3xYLjzrfCnyGa+E5f9Q4GDoxdUvKr/HKmqC/Gmb4133CXjIqpbpPPPYL/JkaOXY3t4uDz7yMPpDuy0XIj1WeFHwYGnxGWfKlz/xKZk5erwUwi5gO8+2gEtUPFbSMrBE3eHRQtf+e551lh4XUegGl3w1NDTqDP327Ttkx44d0CPqTrPqjr5gC/9aL2wEPmhacOauODoh4qVKnwzDyTFdygDDftq4CfLeN71FlsxbKHloL1W/CQaxlDmkj4MN6XydjjCmFecvCGjoqDGSP2mSJNlYRCLaEFEhssmYZZ5C97vk4ZFDODQqVE6+5BJF5xjNL0W6o+AWo7Z78ZlIyZ+ClzD0howsl7yyfBiwSVQq8IKapNwgPjWye1H6kwPyAc74ljfkm8iJg1+cw0ZPFQRk3LTxUlFRLhhkarY1m6cK6z5Q7KRi0EgYrq992SvlTde+RvJRjnYvRG3U6RlgFvyNtT2x9zMxEvb8UET4zzPI9pEBXzpBgwVdoPEajqckFzS5YpT89/s/LOedMV8Kod9sAFVn2Bpnt8DHA158jHrxuefKZRdcKLks544uuB0iMcpMiX78/uw1yTZbfrcMZYxXC//9LCAtrhFUWXjQpAGueZ0yaqx88Ia3y9xxkyWfjhlvJw1+FnjeR84GHGgKFcaY7j8H8K6G3jHBJufLPONNYHDJPTEvOOts+X8f+qhMhBGbbOmQFPQuhDprjTAKTg0RJXDPo4mmV1A9+LSMfHOpQQgDGeoN17WS+LEBNVw9/z3gKZW57+koZxBVdoYvGq987JubyJEqGK9f/vTnZMmMedB280zrSMElTLW1tTorzKUBJoc2l/5zwl77qSd6d+0O5pH581PPuA9FROZan4KEw1J38KC0xfh2/cCAqRUEQnLGpGnymQ9/TCaPGI2ygDvL1bJlMqfthe4uYK8p3nSbZYh/unQCg3j9bDGMVJaF6lAwoLsqEFwiRd3icgWuTdY932kLpOMCGDeIbafVW4L9v3rBoTAvT5KdUZk4eoy894a3yVmz50kwmtCntYfCoe+e2jiaevGSAQuOjYMqIVFSLHnz50vL0GHShoZFv4DCxgnKqg0UvNBrd8PWUyBLfYFTvUk7jEOVLiyQVq59PGuxyJjR6C1xX2etEAkrBvyYP6TKSR9OEo8Iy9zzF0qoOCJxtHbRJIxD24sAGor86NnJBI1X8sW1l6SYdCQ7kOeQjJ83VUoqK2zbfXi5nSx4PFH0VsJDg7ny9te+QT7x3g/KBDRunE3kLCwrkS0tRa/58We2Vw+9IONf16RRYCo0HujmxeOdk7g+kgv4uX8tDcZ80FlTZ8qXP36jLJk+2/hHjpRntIJsAKnZOhAyN48ftBGG3ApLdbuuG151nYwZUqFvjasBg6MxCsADjUjVe+aJ4by8HSt8nYqVkZFbJn5eWoMqkTQNfn5OSC5aeI58/VOfk4Xjp4p+ksEqwkkG67jZOcHmjI78ObHQpsYiI86+oXKnWphZKVMORw8WrRLURQnn1P+IN0t+zrTZ8oUP/7dccMYiKc4JSy485MFAUYMEvFPdSCYb1DmaBwEM7mBE9EG8T2OQhrIaHIiPpPdw7ScjFBOfuTakBp2X92gXjMtYXDpb2yQQS+hnYhdOnyVfhfE6o3K8+uEWWn5R97es9cMNqisUDv49MnwZ3vzCY5Pdk0y9PDLqLZ4jJB+/zEM8Htc9tvnOiOqNZsHI8HiCcYeR5sLJ0+ULH7sRurMQdT+gS174uXmmGwcPtr0w8GSZJsIz3jUvpgxosDJ+Y9SaOkDQaDUv1fnjIGkmEYF39IifRCYxPOXNwRTXeefGUnLpwrPlkx/gRMUC6DtiYdkzGMvFS++lhNN7G61uisFDDBJJSCQSlI6DdZLX0WYKHf+2zqg3X8XhuelK+oDVGZ19hRXKx+gYZrcU5ktg4hTJX3S+SGk5Wim+vGX5MASV813ilyfQ81HDR0tTfaNIexw9rsef9Wn50bh6I8J/3h8czr+9b8j4BPdqvKLSo0XILy+QSXOnyfDplZoHW8/TbPqRfX2SQXZskxJBZzVx4kQZMXK4NLe2Sn1zo3RhBM2n2rr2i0cG4m/mAqfeyRGgrxCqFV582X70i1Bo6NkI81Obl5yzWD7xgQ/JtFFjTZNIXUEghmMTzLhIRmts2R0neJEx3aK8Apk5a6aUDxki+xrrpb6lSTsjrmPzp5tdtzI4Cs40PDPsXXpkYa+Zuna8OOexauQoecPLXyUfecs7ZWxhuX52sldkReiPu79gGWzevVMeem6p6pAOJLyIei0NOFHPhldUyBUo2yGQK32pT1OQHvHiaKGxKdJx9wIO6tmR8q17bqO1tWavudFXALjDOwjyjidkStU43QpMzU0/7/2AlpWPiOzg3P6KX5hbMH8BeE1JXX29NLW2gAEYD55HPYAff7g+0cOfTZnwn3dHb2rM9Klx/AAGZ4zzgyGpKCyWqy++VAd7E0aO1tVVnKPT5hLRp6PpzkQadLa3yA0/KPDos0/Jlj270P1A5l6bq77IlA1wNKRInxwBvIwcjnzy5BmNtLJIvlx71TVSBCOfrUY6D8cTXnyMfyj65RlTp6lbdU21dPBl3FAQzSsfG1IX/In3wgjqoM3F4dr/zICHQMzdvGeF9V8iDZQseC2VVy6+SD7+9vfI1Mpx+rKfvidjZYToD8fDYMTpa8BSs5S8Qg2gK4EBmwwkJFBWJnldHRKoq9MXDggWvvr0fqwqGHdeZSpct3MdWeE6hWMCzVEopt+VDk0cL8UXXCLJyilwjoANjPD94RClvWLsRvfww0FgcUBKwiWSauqUaKd5JKGPHHBbHzKkjYKef2YQpjGaQ7/g+e8V9p65b33xpS0arzmwpArLCqVqxgQZNnG06HNYtspE96AZZF+fAiBLtomh0TV29FiZNH0yijUgtXUH0Im3ocDYmPAP/jQP+NGjvT4y9BaExacqywjNv0KdQOzoOPs6Gw3vm159nbz+ldfKuNIhZr0uOvF0CO+g8YGsftj4jifYjDONwkBYJo2fLKOmT5Si8lKpramVttY2k6plywpZnbyTo4U14mzcmVOFvaa3MOppUUGBnH/e+fJmyO26JVdJBfhVVUWdY+fPlyTIXhpZEfpO+w8E2rxrh36hjAYsX9Jg+Wod9tjvBt7DYSQM2CvPXSzlMGDVmY56wh8EtNdHhUxgnvUVFWfN1YDt7JAnVy6TrdV7Pd0093sExrlZuwckYMCOHY88LDkqA5ZgEEs2qAa3jmjSWR+K8/Nl0tSpMnrsWP1owZ7qfebJFTzzvgJ82dO+wG2KLHsmiUwI/3k29CmaV0B6AFFOOisHiqDtn4P6+tbrXi+vuOwKGVNu6iuXAKnxyiA4t2XMsNmpebe68deFdB99hgbsTp0/0bI5XrAZOSIwE9mc9wb6yfijbEOBoJR6Bmwh+kt9gYs4nnkCUNU1TrJJA3BIcbHMnD5TRo4aKe2xLqk9UKuTBOxn+0qcoumL+oIxLjMe0n4pBnvL58WIMaVbu82bN0fe+Jrr5PoLr5YxxWXgGwMj3Nc4OGLk/6ESH8Q4vWdgbZnqkSUekCQMzUCkSKS0RNoxgj1Q3yA5iZiE4p2QVlKSMD6pDKpXCGcaF16ROJ/CNbWsBuz1cM1lAaAUL9FQ1RbkS3zKDCm94pUiFeMlEchDSLPbQcaAxRUip5slA7qbY7goIsXF5dLU0arbayhHiaQu8KYpzHVd7HVzlBC/d85WLP1HN/rtlfx/2dcZvszMAGce+XEFrg8jpaQrEJWG3JjkVpbL+LlTZei4EXwW5gkMRNhIstGb2ykCyzINm6FFpTJ3ynQ5a/psyeuMS2Nzk7R1tgs/SZuIxyUF4iwQH5mb1/3NaJnhrRgOTVYfPFAnqHvQt2QcAy16gheud+WHF7h1y5DcfHnjZdfI21/zBjln7nwYOIUmLfq1AbxOhBzRhciU8EDAbB9GkJeRxcNk9uRpMnviFHTSOdLYUC/RWFSZZGfFR4Xs3NOPv0Da+R4pWfAcWdZt3LSu0n5KqAy5jrkst0Bmjpko73n9m+W6i6+UuWMnSinTp0fjXaPwXyu8dLxD/5DlkeUSzMuVBx99RLdO4+wgHyfqY0J20igr1isaQfRLkRSiLbl09kK56Kxztdw1Hv6QN5Ztv5npC5kIeNZXdCkWCvjhbi0bd26Tjdu2wC0hMcg2kgsjQ8sQrREGeSSu+6MMk11RfSv62iuukXnQg6MxYK3X3qgbyB8c88K5UjVilMybOl2mw3Cu3rZDYq0d0IG47iUcBd/cQziHu2QgTOarexnSyL34FNZNyZN7FvHjAGosozzDeWaPZxrxfPO8HK3IvKFj5Z2vfr289VWvkwUzZkkxP56AoGxXKSstc1uk+mPc/OClEmUIkD/Wbb6MuGnXNlm3ZaNqUHrrOA+M5+iJbf7RUG9x9aRYNKo7Peh6UdTZCAZLC2bOlqsvvEy3N6MMTSbM4XiB0VniD5PJDYVl8pjxctaceRhcDJfm2jppa2rSF7MKCvLQ7aLPRyHxowH8WIxCI4G8kWcWjNEhL8JeyOqY6hbJ/OCaW5uhPURHQorBFuFuBgH09dMqq+Qt11wr11/+Crloxnwpge4wOu3Btf3AhUcmtpceTl8D1pZoumTZdbKww1CasOQUFkl4IjqyvALZu3s3Glk0CRgWp3KgrDD8dAN2r5HRSLRloLLCHxUWlS6Khty4BqQjkCsdBUMkMmuODLn0Klg/lZIImulINR4QRlnhjyod/63imV8TP2+A0OoHSoIybOhwGE1tUlO9T/Kg2PTDmRF2HiZGbQZ9xN9j/PN4ZXOoR80zmshAAp0ZOgIYs+0wYIfPmSjTzpwjJcML0DHAo2XlcOiPn5MIssdOhRvpFATCMqKkTM6ff6aMnzhBWjvapK6mVmdQBAYS16OacsO/ly8eqDt6PASZn17AmVR0vNQcNq588YPrtK675uXy6Y98XC5fdJ5uoE0jgcYBWSFp98WEvWsLk579O/7wx0kVoCoUQ25VFaPkrEWLZOq0qdJQd1AaGhrSr1QSKq9jZMhGYaPhmnV2jiwfbk4/c8Jkeet1b9A3dmdVTZSRBSVSAC7Vv19IvcEf8ZHAF0a3voEB2NTaLOs3bjRJavsBXqE7SXRe3C9aDW9ch9BJThw6Qt5w8VUyHe2T1116UXoMe2V89Pj/7d3bbx3XdcfxRfEukiIpitZdsoREtZUoSII4jeu0iZG2gYE8Bn1w0VyAIAECpI/9X/rYPvSpQB+CFimSBgUaNEHTJnFk2VYc2ZZbWTYpUbyJd5FdvzWzDzeH5/BiUxRH+n6I4TlnzsyePXv27FlzOTPrGdS7LLsbKJhW7W7r6IjT1a++8ZpNTU76RrwjnvKkx37mnY5ctXvd1XWo50ZP2Pe+8W0b8va1EcBKq4k1kQbN8xiv2Qclq+LQNBT4DPkyv3Tugn3tqy/ZgE97/IMxm/ZgpLh1UTmiClXl7WMXbVzqPK0s7fhcdtIYpuz0TzsjuudnPDVLO0wrq9bpwYeOPr/81a/Z33zzuxG4Hj/SH4Gr8qlO42t/M7UTDelD1lNvNyxy76Hloq3PsrfLehLgnO6QoPxFoj5nuoWjlpHq2IfqNK6uBdXrTrtm6TTvYodH2zB/f9h30nT98stf/wv7+Lmnvf3QjlBZAOXLXlFykWTjTbE8dDmHLl24dP6CvfDcF2x0ZMRmpibt7sTduKwg7rWtHWSfz6KO+L94XV8wjeC0SaeXddrGFj31Ujx4QgfXivXn5NBR+95ffcP++lvfsRc/8Rk7NTgU+Ys6kBLamGD142OjzRvGvOo/sVIxpFfdbiXq3tKcrb3zO5u49ks79P5bdnh6zNp1sGjJVzL/vrHJ13jR2iiY8wbEGy6v2fFowba2DlscPm8DV75o9tyn9XNB9fS9/PYIhIsar4lFgk799JrRcLEGlNKWS6PNmU28M27v3XjX5ifu26FFz9Wyd7psQS1ZY2AfXMMnjTWqKs9Llb5T01g06pqA7rX5QMFrjwdMfZ3WNzJoZy5dsP4z/UWxpFY5tnbebWcnwzwiZcnEf82bNgL6EYYeQqBHLc6vLttV35D/+N9/aq/feNNuT9yxuZUlW/SGeNmHbSzCIpENi7RqfXO4LjbG3uk0mk49Pn36rH3uyqfsz1580c6dPB030dZVkXoqVVd5dM43CfFanVSZhaB63KjLD5smXE5KAase/zq1umiv3HjDfvSLn9mvXvl1PElrYXEhjpQ2lOOkfOf5bybmqCxg7Z7qBu6He3ttcHDQLh4/ZS89/yXfGP1h3By9z9fBKC0lquJaX2U2ShNNReWv1V67seKVSLf9un7rbfvbv/87++/XrsbTwto86FF/Hd2JOhbXuq/ZmTOn7etf/nN7+csvxTPc1U+nV+PsjSqkZOWU8rY76zOvpFrNl9KOIMm7yZV5++FP/tV++KN/sXc/uB1PXIvplyMX6bTZEQ8a9Svp73/7O/bZ85eK4EADprahVbnvRjnT8VK+b/BpqGn3eCBuXn/77rj94tf/Yz//1S/j4Qe6Yf/k/GycBSjuKpAloHa6nB+Jb8rPuna6Kvp4GlpnB7p7I1h/5uwF+9Lnn7cX/+iPbXTgSNx5QMOpi+TL9FJy+lgNTkXlmnrHMHpT9tB36Tzg5Nq8/fNPf2z/8E//GE/0W/F2qE3BkAfRxQ9tDyZth1Wm2kEf7u23P/3in9gP/vK7EahpB7ixrkpZJg+NpqN1SwtFQXXUnVW7tzBr//bzn9lP/vM/7MZ7t+L6arXxCtZj66hlVJZxJBHJ6P9msQzTV/4hb4t1/2G1Wxd8h/Wl516wr3z283Z8aNR6fBitLlqWPtG473Y22hOBADbRClO+qqoVp+D9rU7jLdz3btbsnWt2/8ZVu3/7PTu04M3f0op16OkW3lp06JZRbQ9s0VukFR2BaO+0joGj1uXdwImzZmefMTt3WZFHBHNaOaPCanpRe73TBON9pRbGVqDsF3kqX9Jgaqm0JZhYs3u379rk7Qm7f3fG5uMU2Zo98L1+7dEVlz6UI4cs3U00UGPAjMpJlwus2SGfgfaONus53G1d/T3WOdhrR08/ZQOjR62ty6enSwaUL2mWVDOtsnOArDdJ5X9fhsVF+MVnLQ6djrzlG/Lfvvaqvev15Y3/u2lj9yZs0vfaZ2a8ofOgV3vU8QjLGL9YPgUvY9ULX+5xyx6vT+oGjxyxIQ++hgcG7fLFj9unnnnWnv3YJRvs7St+qeyNWJc3sEpFacaPZSJHRV63ogZTf/siz45PUo/s1RGqiQeL9sDXm7HpcXvj+nW7eu1Vu+UbhnsezKrcdIpdlxoouChWCf+Xykzl5aK3/2ne232Z9HnZqNwGh4bs/NlzdvHpp+3y5ct23gPYofYe34FciyPpXl0L2vIXiRTdVvz7asluN0pDGtFHUH2a9wmPT0/Zf73yG3v75js2v7joG67O4iiZD6znquspZFeufNKuXLxkwzpT5OOp1hVZ9U9lGaRM6FOazO4UdVmKtJtT2sp7CpaWvM/VN1+3V1+/Fk9CC2lkH1iLavToiL3wheftzMjxOGug5iHOVqhLw7aa4C6l4shtSNo/KP8KwKcW5uz3N9+2q9dft9//7814At69qam4dZNO+8ftjzzBdGlHtIK+vpVbDU/K//y7+FGir4O9Pd12dGjYBvsH4j7Suib9WV9nr/zBszbQpTn3cXzUKOkm89soEv8XX8cHvSmkzZOod56E+mu+0vfjy/ftN9d+a797+614Sp2eDti8cPJUHh3lQjf+12nwgb5++9j5C/a5T38m1tN+36iozkS55QXwMGk6+TR8260QVQ+G0CNZZn3n+7qvs2qvxu7csRtv3bDJmWlvs3RJ2XyxA+rlXdSWjZluHHH299oR1Xre3dVlI8PDduzoMQ9ce+yyt/OfvPwJu3jhoj3Vfth6PQ0d+Fr2tjDVu9h+qO0/IMtwvxDA5mK31zv9cj5KxSvDWnEUKz6vLpnN3bGV229a2/RdW52Zs9WJWTs0NWedD7wZb1u2hT5fuXxj2TE4YoeOnTMbOmXWP+q1s9d3pYrrq9T4NBptFb8O5RYTLOp1tRIWW+vivfjbbIxiFL1RD21J5j0ouDtnM5PTHnsvxFM+dCQrnnO9kuZNKuk25KlvpNVQd2no7uq0np4u6+8/bAOD/XbIO+vxmfNdZO2hao1slvLjoAhgN0olpk7zrUa2sUz8zc2ZCRvzIGx8fNzGxj6Ixm3SA9kZ32uf9cAsTrl6Q6b6oMs/dOpRjbcC1oGBARvo77dTJ07asWPHvGEbsZGe4ln8mk782CNNXNTTFfnMv2gtGsIixw9fkyzpo/KbfokfRx99p1BBxNid8djw6lfkd7QT4IHezOxsPKt9znckdVo9GnBPpLer24Y80DvigUN/X5+deupEPAL02MgxO338RDxQIc1lnEFR5+83zXnqkX+R59n762PeS5qm1UwasRxYq606lUFKo1yMLaXhiiQ256ZZ/nZGK3BhPf3NlHYss+y9aOxU/9O4KS8pPxqm8X3qmWs10Y8qTSufpk9LH3U5h5aBnrY3PnE36tp7778fDynQwwD0Q02dFVjw9jTODvi6mjafWj/7vdO62u/dsG8DTo6Mxl0QTg2PxpOkOtIlCjuQsteqfLYKYJP1ZVP+aftW5jfy7SM11nm9P0DBT353kup8NnKpL/YjyykDkr8vM6Neqe7r/c1bt6LuRJs1dc+m52Ztytt6HaGdvj9bDOcD6uis2vo4OOHt1dCA72j7q7rTx0/a6RMnbMDrjdoyHZiItVITiAnqn/hyVR68qy6/JyGYJYDNRFFEsFjQ27g9klfPuAZWzZsHGqYfdD1Y9FcPWpd8/728lVV0XtGss9usywPWQ10+sn9WRVJ/7fkq+UbrU77mu9l6bVbxsnwVwzYZJlGa6nySS1PLMV/xwxBPd0WnxjQP2/L5bTqJNV/hiovodZ2Srn+LeUwT9WDicZcaq6RaTCqJJH2no1SiktJpvKVl39nxPWjdmkVHFHUdpK6l0jLSKSFdM6g98e7ubh+nLW4jo9Npkk9f6avEFcSqGgWfSLk0yv/pi9aKjcUWdeohidyV2YsXz0LKrV7zHKnWLi4txX0Yl32909FYfdZGQOWmLsrJy6zHOx3B1JHdlJ7S2m4O9b2WUStRxpU85lL6201n04hSphvjVqaTNJteMS19s/HbzX12ar0E1tNfl6ep99X6qC72yT+K6kT3QZqXfH70Xj/E0hFY3T5pyevdou806YBAalNFQUhnZ1f88Ej1T0fTlF6URdk1WkYlmgqqhVR8MUiTsmxsQlyezBZJhjTOpgDWbTfugaGZOECZzRdPtGVZ3pa9h9p61Z+FeJCBnrhVfBc/bvRtp+pRtFedOsasTWiHdfm2QHUmpa3++XSUiPqlNj9eKmWS6ubjjAA2UxSFL3R/0bs4GhR1YNkbH2+wokqpp1ogH8I/xtEi79b8Q7vpd+DeTEWrVwxatFo6Ous9Vdui5VFXpqVOLzFFV/baXusBU3iah5LqtxoXmms65bT02oh6qpr3L/Ya23xOdSVSu8+ZB/I+aEf8SmtHGa+9ZiVTnXNVgbSdksay0MgrXmd8JyJO5bV7gOUDaYdapyRFDY9uyK4a0syKD6bqUwxdbhx9fC3KmJ73WM+j3q1/aqXYkFXnYu+l3GzKkfeoTl1BguYpAoWyMFZ85oudp63z6tW0PMWrsvX/3unHRSmdfPp6nz4rVQ3SqjRSvzR8Pl6u2bgb5BnI5f1TIllizUYrvvZvNJ/bDLs9JZAl4jZ+Wk+3mn5jzFYDNFNNXJr12yPKkrrqJNJnrYK6rCd+1OU9U/8l/QDLg1JdO6u6pXZ0wy/hy7erqp86WKHh9Nm7ND11Uf3SipuNV5WKLr5OH5JynGpvaSTX7EtJ48Z2wD/WMchR1vcx25pcKs580nqtZiPqhleiqAP+ZXGtcXEAqVj4FamC5BtrUf/K8OqVBtd/TTudedN7bUdyBLBPuFQwCk91HKeoDqlSrBdb8S7ty5bf56UavSrFHB9TWqXKx+Y0ojoNXB1h/buU261FJj6SzVNJfVLaO8nH46daso1S2KJYti0xDVB+2TL9A6ya51w1/xGL7fFMRUuXp1n93MRWX2v0NE8a7kNlN08g16r/VnYwP3spZVF2Ndl8xNw+5H03ed6L4mw6vdRzN4nvJuPYU3nRJ49iETTLR9GoFZ6EgLWKAPZRSaWuOpe/35GtRth1Yg+R8vLkrVRo7iDVzNAiQzvNZxoueeTztc+r254tzz1LaHv7OKm9lVe22mW+3g5yncnDNwJYPDpaCjRMAD6sfW5D9nTDTvu3tXwrTTkBgQAWAAAAtdLssmIAAADgwCKABQAAQK0QwAIAAKBWCGABAABQKwSwAAAAqBUCWAAAANQKASwAAABqhQAWAAAAtUIACwAAgFohgAUAAECtEMACAACgVghgAQAAUCsEsAAAAKgVAlgAAADUCgEsAAAAaoUAFgAAALVCAAsAAIBaIYAFAABArRDAAgAAoFYIYAEAAFArBLAAAACoFQJYAAAA1AoBLAAAAGqFABYAAAC1QgALAACAWiGABQAAQK0QwAIAAKBWCGABAABQKwSwAAAAqBUCWAAAANQKASwAAABqhQAWAAAAtUIACwAAgFohgAUAAECtEMACAACgVghgAQAAUCsEsAAAAKgVAlgAAADUCgEsAAAAaoUAFgAAALVCAAsAAIBaIYAFAABArRDAAgAAoFYIYAEAAFArBLAAAACoFQJYAAAA1AoBLAAAAGqFABYAAAC1QgALAACAWiGABQAAQK0QwAIAAKBWCGABAABQKwSwAAAAqBUCWAAAANQKASwAAABqxOz/AWnqhoWGDXEzAAAAAElFTkSuQmCC;" vertex="1" parent="1">
          <mxGeometry x="753.53" y="332.20000000000005" width="146.47" height="53.8" as="geometry" />
        </mxCell>
        <mxCell id="EbK2CHf3StFBIsQLwMvG-42" value="" style="endArrow=classic;html=1;rounded=0;exitX=0;exitY=0;exitDx=0;exitDy=0;exitPerimeter=0;entryX=0.665;entryY=0.983;entryDx=0;entryDy=0;entryPerimeter=0;" edge="1" parent="1" source="EbK2CHf3StFBIsQLwMvG-88" target="EbK2CHf3StFBIsQLwMvG-22">
          <mxGeometry width="50" height="50" relative="1" as="geometry">
            <mxPoint x="565.22" y="457.9999999999999" as="sourcePoint" />
            <mxPoint x="564.9995000000001" y="394.98" as="targetPoint" />
          </mxGeometry>
        </mxCell>
        <mxCell id="EbK2CHf3StFBIsQLwMvG-45" value="" style="endArrow=classic;html=1;rounded=0;entryX=0;entryY=0.5;entryDx=0;entryDy=0;" edge="1" parent="1" target="EbK2CHf3StFBIsQLwMvG-36">
          <mxGeometry width="50" height="50" relative="1" as="geometry">
            <mxPoint x="595.39" y="359.48" as="sourcePoint" />
            <mxPoint x="661" y="359.98" as="targetPoint" />
          </mxGeometry>
        </mxCell>
        <mxCell id="EbK2CHf3StFBIsQLwMvG-46" value="" style="endArrow=classic;html=1;rounded=0;exitX=1;exitY=0.5;exitDx=0;exitDy=0;entryX=0.012;entryY=0.545;entryDx=0;entryDy=0;entryPerimeter=0;" edge="1" parent="1" source="EbK2CHf3StFBIsQLwMvG-36" target="EbK2CHf3StFBIsQLwMvG-32">
          <mxGeometry width="50" height="50" relative="1" as="geometry">
            <mxPoint x="849.45" y="465.48" as="sourcePoint" />
            <mxPoint x="1024.5" y="359.9849999999999" as="targetPoint" />
          </mxGeometry>
        </mxCell>
        <mxCell id="EbK2CHf3StFBIsQLwMvG-47" value="" style="edgeStyle=segmentEdgeStyle;endArrow=classic;html=1;curved=0;rounded=0;endSize=8;startSize=8;" edge="1" parent="1">
          <mxGeometry width="50" height="50" relative="1" as="geometry">
            <mxPoint x="1094.5" y="329.98" as="sourcePoint" />
            <mxPoint x="526.5" y="329.98" as="targetPoint" />
            <Array as="points">
              <mxPoint x="1094.5" y="239.98000000000002" />
              <mxPoint x="526.5" y="239.98000000000002" />
            </Array>
          </mxGeometry>
        </mxCell>
        <mxCell id="EbK2CHf3StFBIsQLwMvG-56" value="" style="dashed=0;outlineConnect=0;html=1;align=center;labelPosition=center;verticalLabelPosition=bottom;verticalAlign=top;shape=mxgraph.weblogos.google_drive" vertex="1" parent="1">
          <mxGeometry x="268.1000000000001" y="119.48" width="65.4" height="58" as="geometry" />
        </mxCell>
        <mxCell id="EbK2CHf3StFBIsQLwMvG-58" value="&lt;span&gt;Feedback Store&lt;/span&gt;" style="text;html=1;resizable=0;points=[];autosize=1;align=left;verticalAlign=top;spacingTop=-4;fontSize=14;fontStyle=1" vertex="1" parent="1">
          <mxGeometry x="249.99999999999994" y="89.98" width="120" height="20" as="geometry" />
        </mxCell>
        <mxCell id="EbK2CHf3StFBIsQLwMvG-59" value="" style="endArrow=classic;html=1;rounded=0;exitX=0.284;exitY=0;exitDx=0;exitDy=0;exitPerimeter=0;" edge="1" parent="1" source="EbK2CHf3StFBIsQLwMvG-11">
          <mxGeometry width="50" height="50" relative="1" as="geometry">
            <mxPoint x="284.5" y="319.98" as="sourcePoint" />
            <mxPoint x="284.5" y="179.98000000000002" as="targetPoint" />
          </mxGeometry>
        </mxCell>
        <mxCell id="EbK2CHf3StFBIsQLwMvG-60" value="Display &amp;amp; Download&lt;div&gt;Feedback&amp;nbsp;&lt;span style=&quot;background-color: initial;&quot;&gt;from Users&lt;/span&gt;&lt;/div&gt;" style="text;html=1;resizable=0;points=[];autosize=1;align=left;verticalAlign=top;spacingTop=-4;fontSize=14;fontStyle=1" vertex="1" parent="1">
          <mxGeometry x="317.99999999999994" y="227.98000000000002" width="160" height="40" as="geometry" />
        </mxCell>
        <mxCell id="EbK2CHf3StFBIsQLwMvG-63" value="" style="endArrow=classic;html=1;rounded=0;exitX=0.806;exitY=0.155;exitDx=0;exitDy=0;exitPerimeter=0;" edge="1" parent="1" source="EbK2CHf3StFBIsQLwMvG-9">
          <mxGeometry width="50" height="50" relative="1" as="geometry">
            <mxPoint x="104.49999999999997" y="336.17999999999995" as="sourcePoint" />
            <mxPoint x="264.5" y="337.98" as="targetPoint" />
          </mxGeometry>
        </mxCell>
        <mxCell id="EbK2CHf3StFBIsQLwMvG-64" value="&lt;span&gt;Response&lt;/span&gt;" style="text;html=1;resizable=0;points=[];autosize=1;align=left;verticalAlign=top;spacingTop=-4;fontSize=14;fontStyle=1" vertex="1" parent="1">
          <mxGeometry x="139.5" y="378.98" width="90" height="20" as="geometry" />
        </mxCell>
        <mxCell id="EbK2CHf3StFBIsQLwMvG-65" value="" style="endArrow=classic;html=1;rounded=0;exitX=-0.016;exitY=0.713;exitDx=0;exitDy=0;exitPerimeter=0;entryX=0.975;entryY=0.808;entryDx=0;entryDy=0;entryPerimeter=0;" edge="1" parent="1" source="EbK2CHf3StFBIsQLwMvG-11" target="EbK2CHf3StFBIsQLwMvG-9">
          <mxGeometry width="50" height="50" relative="1" as="geometry">
            <mxPoint x="204.5" y="383.78999999999996" as="sourcePoint" />
            <mxPoint x="104.29000000000002" y="384.4" as="targetPoint" />
          </mxGeometry>
        </mxCell>
        <mxCell id="EbK2CHf3StFBIsQLwMvG-66" value="&lt;span&gt;User Prompt or Feedback&lt;/span&gt;" style="text;html=1;resizable=0;points=[];autosize=1;align=left;verticalAlign=top;spacingTop=-4;fontSize=14;fontStyle=1" vertex="1" parent="1">
          <mxGeometry x="88.1" y="316.18000000000006" width="180" height="20" as="geometry" />
        </mxCell>
        <mxCell id="EbK2CHf3StFBIsQLwMvG-68" value="" style="endArrow=classic;html=1;rounded=0;entryX=0.72;entryY=0.012;entryDx=0;entryDy=0;entryPerimeter=0;" edge="1" parent="1" target="EbK2CHf3StFBIsQLwMvG-11">
          <mxGeometry width="50" height="50" relative="1" as="geometry">
            <mxPoint x="314.5" y="179.98000000000002" as="sourcePoint" />
            <mxPoint x="314.5" y="329.98" as="targetPoint" />
          </mxGeometry>
        </mxCell>
        <mxCell id="EbK2CHf3StFBIsQLwMvG-69" value="Store Feedback" style="text;html=1;resizable=0;points=[];autosize=1;align=left;verticalAlign=top;spacingTop=-4;fontSize=14;fontStyle=1" vertex="1" parent="1">
          <mxGeometry x="174.49999999999994" y="236.98000000000002" width="120" height="20" as="geometry" />
        </mxCell>
        <mxCell id="EbK2CHf3StFBIsQLwMvG-71" value="&lt;span&gt;Document Store&lt;/span&gt;" style="text;html=1;resizable=0;points=[];autosize=1;align=left;verticalAlign=top;spacingTop=-4;fontSize=14;fontStyle=1;container=0;" vertex="1" parent="1">
          <mxGeometry x="478" y="518.73" width="120" height="20" as="geometry" />
        </mxCell>
        <mxCell id="EbK2CHf3StFBIsQLwMvG-78" value="Retrieved Docuemnts" style="text;html=1;resizable=0;points=[];autosize=1;align=left;verticalAlign=top;spacingTop=-4;fontSize=14;fontStyle=1" vertex="1" parent="1">
          <mxGeometry x="601" y="336.18000000000006" width="160" height="20" as="geometry" />
        </mxCell>
        <mxCell id="EbK2CHf3StFBIsQLwMvG-79" value="Rerank Documents" style="text;html=1;resizable=0;points=[];autosize=1;align=left;verticalAlign=top;spacingTop=-4;fontSize=14;fontStyle=1" vertex="1" parent="1">
          <mxGeometry x="761" y="309.1" width="140" height="20" as="geometry" />
        </mxCell>
        <mxCell id="EbK2CHf3StFBIsQLwMvG-81" value="Response" style="text;html=1;resizable=0;points=[];autosize=1;align=left;verticalAlign=top;spacingTop=-4;fontSize=14;fontStyle=1" vertex="1" parent="1">
          <mxGeometry x="804.5" y="216.98000000000002" width="90" height="20" as="geometry" />
        </mxCell>
        <mxCell id="EbK2CHf3StFBIsQLwMvG-82" value="Prompt &amp;amp;&amp;nbsp;&lt;div&gt;&lt;span style=&quot;background-color: initial;&quot;&gt;Documents&lt;/span&gt;&lt;/div&gt;" style="text;html=1;resizable=0;points=[];autosize=1;align=mid;verticalAlign=top;spacingTop=-4;fontSize=14;fontStyle=1" vertex="1" parent="1">
          <mxGeometry x="926" y="322.18" width="90" height="40" as="geometry" />
        </mxCell>
        <mxCell id="EbK2CHf3StFBIsQLwMvG-83" value="Response" style="text;html=1;resizable=0;points=[];autosize=1;align=left;verticalAlign=top;spacingTop=-4;fontSize=14;fontStyle=1" vertex="1" parent="1">
          <mxGeometry x="364.5" y="378.98" width="90" height="20" as="geometry" />
        </mxCell>
        <mxCell id="EbK2CHf3StFBIsQLwMvG-84" value="User Prompt" style="text;html=1;resizable=0;points=[];autosize=1;align=left;verticalAlign=top;spacingTop=-4;fontSize=14;fontStyle=1" vertex="1" parent="1">
          <mxGeometry x="354.5" y="316.18000000000006" width="100" height="20" as="geometry" />
        </mxCell>
        <mxCell id="EbK2CHf3StFBIsQLwMvG-90" value="" style="group" vertex="1" connectable="0" parent="1">
          <mxGeometry x="475" y="459.98" width="193" height="58.75" as="geometry" />
        </mxCell>
        <mxCell id="EbK2CHf3StFBIsQLwMvG-87" value="" style="group" vertex="1" connectable="0" parent="EbK2CHf3StFBIsQLwMvG-90">
          <mxGeometry x="77" width="116" height="58.75" as="geometry" />
        </mxCell>
        <mxCell id="EbK2CHf3StFBIsQLwMvG-88" value="" style="sketch=0;aspect=fixed;pointerEvents=1;shadow=0;dashed=0;html=1;strokeColor=none;labelPosition=center;verticalLabelPosition=bottom;verticalAlign=top;align=center;fillColor=#00188D;shape=mxgraph.mscae.enterprise.document" vertex="1" parent="EbK2CHf3StFBIsQLwMvG-87">
          <mxGeometry width="39" height="50" as="geometry" />
        </mxCell>
        <mxCell id="EbK2CHf3StFBIsQLwMvG-52" value="" style="sketch=0;aspect=fixed;pointerEvents=1;shadow=0;dashed=0;html=1;strokeColor=none;labelPosition=center;verticalLabelPosition=bottom;verticalAlign=top;align=center;fillColor=#00188D;shape=mxgraph.mscae.enterprise.document" vertex="1" parent="EbK2CHf3StFBIsQLwMvG-90">
          <mxGeometry width="39" height="50" as="geometry" />
        </mxCell>
        <mxCell id="EbK2CHf3StFBIsQLwMvG-53" value="" style="sketch=0;aspect=fixed;pointerEvents=1;shadow=0;dashed=0;html=1;strokeColor=none;labelPosition=center;verticalLabelPosition=bottom;verticalAlign=top;align=center;fillColor=#00188D;shape=mxgraph.mscae.enterprise.document" vertex="1" parent="EbK2CHf3StFBIsQLwMvG-90">
          <mxGeometry x="37" width="39" height="50" as="geometry" />
        </mxCell>
        <mxCell id="EbK2CHf3StFBIsQLwMvG-92" value="Generate Response" style="text;html=1;resizable=0;points=[];autosize=1;align=left;verticalAlign=top;spacingTop=-4;fontSize=14;fontStyle=1" vertex="1" parent="1">
          <mxGeometry x="1024.5" y="386" width="150" height="20" as="geometry" />
        </mxCell>
        <mxCell id="EbK2CHf3StFBIsQLwMvG-96" value="" style="shape=image;html=1;verticalAlign=top;verticalLabelPosition=bottom;labelBackgroundColor=#ffffff;imageAspect=0;aspect=fixed;image=https://cdn0.iconfinder.com/data/icons/phosphor-fill-vol-3/256/number-circle-two-fill-128.png" vertex="1" parent="1">
          <mxGeometry x="387.5" y="290.35999999999996" width="25.82" height="25.82" as="geometry" />
        </mxCell>
        <mxCell id="EbK2CHf3StFBIsQLwMvG-97" value="" style="shape=image;html=1;verticalAlign=top;verticalLabelPosition=bottom;labelBackgroundColor=#ffffff;imageAspect=0;aspect=fixed;image=https://cdn0.iconfinder.com/data/icons/phosphor-fill-vol-3/256/number-circle-three-fill-128.png" vertex="1" parent="1">
          <mxGeometry x="560" y="417.5" width="26.5" height="26.5" as="geometry" />
        </mxCell>
        <mxCell id="EbK2CHf3StFBIsQLwMvG-98" value="" style="shape=image;html=1;verticalAlign=top;verticalLabelPosition=bottom;labelBackgroundColor=#ffffff;imageAspect=0;aspect=fixed;image=https://cdn0.iconfinder.com/data/icons/phosphor-fill-vol-3/256/number-circle-four-fill-128.png" vertex="1" parent="1">
          <mxGeometry x="660" y="368.98" width="31.02" height="31.02" as="geometry" />
        </mxCell>
        <mxCell id="EbK2CHf3StFBIsQLwMvG-99" value="" style="shape=image;html=1;verticalAlign=top;verticalLabelPosition=bottom;labelBackgroundColor=#ffffff;imageAspect=0;aspect=fixed;image=https://cdn0.iconfinder.com/data/icons/phosphor-fill-vol-3/256/number-circle-five-fill-128.png" vertex="1" parent="1">
          <mxGeometry x="950" y="369.98" width="30.02" height="30.02" as="geometry" />
        </mxCell>
        <mxCell id="EbK2CHf3StFBIsQLwMvG-100" value="" style="shape=image;html=1;verticalAlign=top;verticalLabelPosition=bottom;labelBackgroundColor=#ffffff;imageAspect=0;aspect=fixed;image=https://cdn0.iconfinder.com/data/icons/phosphor-fill-vol-3/256/number-circle-six-fill-128.png" vertex="1" parent="1">
          <mxGeometry x="830" y="188.98" width="28" height="28" as="geometry" />
        </mxCell>
        <mxCell id="EbK2CHf3StFBIsQLwMvG-101" value="" style="shape=image;html=1;verticalAlign=top;verticalLabelPosition=bottom;labelBackgroundColor=#ffffff;imageAspect=0;aspect=fixed;image=https://cdn0.iconfinder.com/data/icons/phosphor-fill-vol-3/256/number-circle-one-fill-128.png" vertex="1" parent="1">
          <mxGeometry x="170" y="290.18" width="26" height="26" as="geometry" />
        </mxCell>
        <mxCell id="EbK2CHf3StFBIsQLwMvG-104" value="" style="shape=image;html=1;verticalAlign=top;verticalLabelPosition=bottom;labelBackgroundColor=#ffffff;imageAspect=0;aspect=fixed;image=https://cdn0.iconfinder.com/data/icons/phosphor-fill-vol-3/256/number-circle-seven-fill-128.png" vertex="1" parent="1">
          <mxGeometry x="387.5" y="406" width="26" height="26" as="geometry" />
        </mxCell>
        <mxCell id="EbK2CHf3StFBIsQLwMvG-105" value="" style="shape=image;html=1;verticalAlign=top;verticalLabelPosition=bottom;labelBackgroundColor=#ffffff;imageAspect=0;aspect=fixed;image=https://cdn0.iconfinder.com/data/icons/phosphor-fill-vol-3/256/number-circle-eight-fill-128.png" vertex="1" parent="1">
          <mxGeometry x="167.57" y="406.00000000000006" width="25.06" height="25.06" as="geometry" />
        </mxCell>
      </root>
    </mxGraphModel>
  </diagram>
</mxfile>
